<?xml version="1.0" encoding="UTF-8"?>
<svg version="1.1" xmlns="http://www.w3.org/2000/svg" width="893" height="771">
<path d="M0 0 C294.69 0 589.38 0 893 0 C893 254.43 893 508.86 893 771 C598.31 771 303.62 771 0 771 C0 516.57 0 262.14 0 0 Z " fill="#C9E9E9" transform="translate(0,0)"/>
<path d="M0 0 C6.17942676 4.83607311 10.8155883 10.58870731 12.875 18.25 C12.9472666 20.15255714 13.01529228 22.05591804 13.02476501 23.95982361 C13.13086653 34.25635707 16.05840249 41.70149515 20.8125 50.6875 C21.50598747 52.04894942 22.1972879 53.41151491 22.88647461 54.77514648 C24.84291495 58.62174076 26.85387227 62.43700994 28.875 66.25 C29.35743164 67.17586914 29.83986328 68.10173828 30.33691406 69.05566406 C45.59213404 98.25851373 65.06723765 125.5461267 87.49609375 149.66015625 C89.36312741 151.69273969 91.16288355 153.7522544 92.95703125 155.84765625 C97.29962275 160.82705991 101.95842457 165.48395157 106.63769531 170.14306641 C108.139863 171.63980932 109.6365273 173.14190999 111.1328125 174.64453125 C112.09342902 175.60448798 113.05435515 176.564135 114.015625 177.5234375 C115.30774902 178.81386963 115.30774902 178.81386963 116.62597656 180.13037109 C118.88374264 182.37643897 118.88374264 182.37643897 121.875 184.25 C125.31106029 183.90152954 127.70155578 182.22826379 130.5234375 180.328125 C131.43464355 179.72145996 132.34584961 179.11479492 133.28466797 178.48974609 C134.26322754 177.83312988 135.24178711 177.17651367 136.25 176.5 C174.91356707 150.96975226 216.86419042 129.64430144 261.83496094 117.79541016 C264.84059044 116.99184669 267.82545725 116.11977695 270.8125 115.25 C273.16630681 114.5820639 275.52049187 113.91545969 277.875 113.25 C278.5129248 113.06469727 279.15084961 112.87939453 279.80810547 112.68847656 C301.73026329 106.35575998 324.29977787 102.57653173 346.9375 99.9375 C347.63167023 99.85627899 348.32584045 99.77505798 349.04104614 99.69137573 C397.70871497 94.0785214 397.70871497 94.0785214 407.90625 100.63671875 C414.92972824 106.39206898 419.86095698 111.8721971 422.625 120.625 C422.74875 121.924375 422.74875 121.924375 422.875 123.25 C422.94976563 123.94480469 423.02453125 124.63960937 423.1015625 125.35546875 C423.61460604 133.84768941 420.69225777 141.90016744 415.5625 148.6875 C405.29018728 158.48203073 393.43962908 159.65219819 379.81942749 160.15997314 C363.86683138 160.75421455 363.86683138 160.75421455 348.0625 162.875 C342.48935064 163.883397 337.03751412 164.61207309 331.375 164.75 C330.1890625 164.7809375 329.003125 164.811875 327.78125 164.84375 C324.875 164.25 324.875 164.25 322.9609375 161.9453125 C321.49357008 158.30328545 321.89903753 156.01442666 322.875 152.25 C324.68225936 149.58151236 325.90488674 149.2428587 329.08837891 148.48217773 C330.42415447 148.28556201 331.76215619 148.10372556 333.1015625 147.93359375 C334.19377106 147.78162537 334.19377106 147.78162537 335.30804443 147.62658691 C337.70368227 147.29921698 340.1014385 146.99265227 342.5 146.6875 C343.7265329 146.52400558 343.7265329 146.52400558 344.97784424 146.35720825 C358.42389286 144.56698988 371.84242034 143.46877721 385.40087891 143.05834961 C392.34653098 142.77854431 397.27405273 142.54163492 402.875 138.25 C406.29678976 134.4970693 406.39345284 130.63830646 406.21875 125.75390625 C405.65059619 121.61542227 404.5005612 119.54878203 401.875 116.25 C396.08477325 113.01824554 391.34788844 112.84637466 384.8125 113.1875 C383.77391846 113.23543701 382.73533691 113.28337402 381.6652832 113.33276367 C369.90836838 114.02705349 358.2373268 115.55290005 346.5625 117.0625 C345.59134247 117.18688446 344.62018494 117.31126892 343.61959839 117.43942261 C330.24368226 119.17092777 317.06663784 121.44925728 303.875 124.25 C301.5686588 124.72954033 299.26200885 125.20756407 296.95523071 125.68499756 C287.21280621 127.74567792 277.74781949 130.57937295 268.24316406 133.52832031 C266.07240295 134.18984298 263.89643745 134.81892489 261.7109375 135.4296875 C240.29197583 141.42647689 219.88527401 149.58178562 199.875 159.25 C198.86518066 159.7337207 197.85536133 160.21744141 196.81494141 160.71582031 C182.70069266 167.50302452 169.10347643 174.86451826 155.875 183.25 C155.01422852 183.79285645 154.15345703 184.33571289 153.26660156 184.89501953 C150.70869713 186.51825032 148.16428677 188.16032454 145.625 189.8125 C144.45251709 190.56370117 144.45251709 190.56370117 143.25634766 191.33007812 C142.54784668 191.79994141 141.8393457 192.26980469 141.109375 192.75390625 C140.16916504 193.36987671 140.16916504 193.36987671 139.20996094 193.99829102 C138.76942383 194.41135498 138.32888672 194.82441895 137.875 195.25 C137.875 196.24 137.875 197.23 137.875 198.25 C139.29883817 199.73418401 139.29883817 199.73418401 141.234375 201.0625 C141.93820312 201.58070313 142.64203125 202.09890625 143.3671875 202.6328125 C144.11226562 203.16648438 144.85734375 203.70015625 145.625 204.25 C146.35460937 204.78367188 147.08421875 205.31734375 147.8359375 205.8671875 C149.2047921 206.86769577 150.57656629 207.8642304 151.95214844 208.85546875 C153.875 210.25 153.875 210.25 155.80566406 211.98828125 C157.82208506 213.4871632 157.82208506 213.4871632 160.33276367 213.10644531 C163.03322744 212.1966953 165.1464667 211.07453682 167.55078125 209.546875 C168.44821045 208.98532715 169.34563965 208.4237793 170.27026367 207.84521484 C171.23295166 207.23629395 172.19563965 206.62737305 173.1875 206 C205.65523892 185.92678759 240.06730359 170.47215896 276.875 160.25 C278.08671875 159.87101563 279.2984375 159.49203125 280.546875 159.1015625 C283.6031788 158.31955049 285.60163402 158.08927178 288.6875 158.5 C289.43644531 158.58765625 290.18539063 158.6753125 290.95703125 158.765625 C292.875 159.25 292.875 159.25 294.875 161.25 C295.24609375 163.2734375 295.24609375 163.2734375 295.3125 165.625 C295.35246094 166.39585937 295.39242188 167.16671875 295.43359375 167.9609375 C294.875 170.25 294.875 170.25 293.09375 172.32421875 C288.32791106 175.17562481 283.28903925 176.315371 277.9375 177.6875 C275.67220018 178.29454325 273.4078649 178.90519783 271.14453125 179.51953125 C270.05865723 179.81424316 268.9727832 180.10895508 267.85400391 180.41259766 C262.07105088 182.03819419 256.48082038 184.09503528 250.875 186.25 C249.92367188 186.5903125 248.97234375 186.930625 247.9921875 187.28125 C225.09737841 195.65010972 202.91231392 207.00687264 181.9375 219.375 C181.31029053 219.74125488 180.68308105 220.10750977 180.03686523 220.48486328 C178.61216945 221.3476289 177.23655099 222.29067655 175.875 223.25 C175.875 223.91 175.875 224.57 175.875 225.25 C177.66478468 226.60939517 177.66478468 226.60939517 180.01953125 227.9375 C180.91341553 228.46601563 181.8072998 228.99453125 182.72827148 229.5390625 C183.70481689 230.10367188 184.6813623 230.66828125 185.6875 231.25 C186.69433838 231.83523438 187.70117676 232.42046875 188.73852539 233.0234375 C191.77690407 234.77840234 194.82401314 236.51706393 197.875 238.25 C198.66938477 238.70503906 199.46376953 239.16007813 200.28222656 239.62890625 C228.44328454 255.62067749 259.82634094 266.81704703 291.16308594 274.56640625 C293.76632205 275.22260549 296.35639871 275.91459637 298.9453125 276.625 C299.75774414 276.84647705 300.57017578 277.0679541 301.40722656 277.29614258 C302.87155429 277.69701679 304.33467268 278.10236653 305.79589844 278.5144043 C320.04382529 282.36524073 334.88458174 284.05286597 349.5 285.875 C350.3715271 285.98527527 351.2430542 286.09555054 352.14099121 286.20916748 C362.46759476 287.50749738 372.71121277 288.59799967 383.125 288.875 C394.67424495 289.18800726 404.86466435 290.33020101 413.875 298.25 C419.7817142 304.50645385 422.98331832 311.06382661 423.1875 319.6875 C422.86998836 328.88263705 421.34895832 335.44515048 414.875 342.25 C407.21505103 349.36750623 399.13312222 352.51969372 388.7590332 352.35644531 C384.44649631 352.19727608 380.16901775 351.86033426 375.875 351.4375 C374.93914062 351.34766846 374.00328125 351.25783691 373.0390625 351.1652832 C369.98362662 350.86730803 366.92935239 350.5588671 363.875 350.25 C362.83214844 350.14816406 361.78929687 350.04632813 360.71484375 349.94140625 C326.55253697 346.5791379 292.63602444 340.6658318 259.875 330.25 C257.79951334 329.60145313 255.72398941 328.95302552 253.6484375 328.3046875 C251.41108756 327.60013466 249.17410774 326.89440542 246.9375 326.1875 C245.89424561 325.85886963 244.85099121 325.53023926 243.77612305 325.19165039 C237.35304767 323.13690308 231.10238433 320.83400451 224.875 318.25 C223.97676514 317.88463135 223.07853027 317.5192627 222.15307617 317.14282227 C189.73853246 303.94991606 156.81446411 288.81484431 129.13476562 267.05615234 C126.25496808 264.82593819 126.25496808 264.82593819 122.7578125 264.28125 C108.43823195 271.64900099 94.4729469 289.38037541 84.69140625 301.9375 C82.92532099 304.18593543 81.0628083 306.27404973 79.125 308.375 C55.27272543 335.00846864 36.58414196 366.70886358 20.70068359 398.58007812 C20.16897552 399.6461731 19.63726746 400.71226807 19.08944702 401.81066895 C18.6886795 402.61564819 18.28791199 403.42062744 17.875 404.25 C18.67586836 404.24945793 19.47673671 404.24891585 20.3018738 404.24835736 C67.79180549 404.21710161 115.28161357 404.2223107 162.77153037 404.27472496 C168.4765929 404.28099013 174.1816557 404.28695133 179.88671875 404.29272461 C181.59034657 404.29445627 181.59034657 404.29445627 183.32839112 404.29622292 C201.70653084 404.31417899 220.08458313 404.30752339 238.4627213 404.29173584 C257.32727431 404.27607964 276.19167818 404.2869567 295.05620515 404.32234758 C306.69210907 404.34334442 318.32763725 404.34376649 329.96353243 404.31768017 C337.94802227 404.30176458 345.9322229 404.31167491 353.91667117 404.34166015 C358.52005941 404.35819258 363.12272724 404.36356217 367.72609138 404.33818626 C371.94873058 404.31516164 376.17003635 404.3248918 380.39258365 404.35963994 C381.91233154 404.36654962 383.43219049 404.36189104 384.95184715 404.3438629 C395.7474313 404.22500805 403.86499379 406.23107836 412.875 412.25 C415.72645954 415.04119468 417.86904597 417.80768382 419.875 421.25 C420.8340625 422.85875 420.8340625 422.85875 421.8125 424.5 C424.08009939 432.50329196 424.05094367 440.74363485 420.12890625 448.19140625 C419.71511719 448.87074219 419.30132813 449.55007813 418.875 450.25 C418.23884766 451.31541016 418.23884766 451.31541016 417.58984375 452.40234375 C412.92022353 459.38726314 406.61133648 462.86050596 398.51609993 464.82409453 C392.53519347 465.78857934 386.41672232 465.51521745 380.37280273 465.49050903 C378.78609905 465.49138181 377.19939565 465.49313411 375.61269379 465.49568737 C371.26392869 465.50015078 366.91526247 465.49217104 362.56650996 465.48213124 C357.8726736 465.47348455 353.1788427 465.47641777 348.48500061 465.47793579 C340.3563607 465.47898387 332.22775292 465.47271531 324.09912109 465.46146011 C312.34652583 465.44519765 300.59394608 465.43999634 288.84134078 465.43748413 C269.77296187 465.4331082 250.70460008 465.41980186 231.63623047 465.40087891 C213.11442144 465.38251747 194.59261707 465.36836225 176.07080078 465.35986328 C174.92888326 465.35933783 173.78696574 465.35881239 172.61044466 465.35827102 C166.88171048 465.35566092 161.15297626 465.35313351 155.42424202 465.35064721 C107.90781618 465.32991789 60.39140893 465.29469513 12.875 465.25 C12.8913147 467.20184204 12.8913147 467.20184204 12.90795898 469.19311523 C12.91675609 470.91910681 12.92528695 472.64509975 12.93359375 474.37109375 C12.94537659 475.65421448 12.94537659 475.65421448 12.95739746 476.96325684 C12.99740564 488.05619145 11.14273551 495.04436141 3.21875 503.1484375 C-3.89085427 509.52338267 -10.79876769 510.58265123 -20.12890625 510.45703125 C-28.21538605 509.89825233 -33.68446926 506.12157921 -39.125 500.25 C-41.0134254 497.68747845 -42.63095688 495.05856943 -44.125 492.25 C-44.47175781 491.66275146 -44.81851563 491.07550293 -45.17578125 490.47045898 C-46.33038026 487.76956443 -46.35288923 485.76003042 -46.3203125 482.828125 C-46.31386719 481.80332031 -46.30742187 480.77851562 -46.30078125 479.72265625 C-46.28402344 478.65917969 -46.26726562 477.59570312 -46.25 476.5 C-46.24097656 475.42105469 -46.23195312 474.34210938 -46.22265625 473.23046875 C-46.19911305 470.57008722 -46.16622799 467.91015664 -46.125 465.25 C-46.95112793 465.26571045 -47.77725586 465.2814209 -48.62841797 465.29760742 C-51.74086112 465.34922737 -54.85308358 465.38658622 -57.96582031 465.41479492 C-59.95652905 465.43701479 -61.94703968 465.47516595 -63.9375 465.51367188 C-76.57024746 465.60937451 -85.41354487 463.66022641 -94.625 454.80859375 C-100.94537202 447.90509217 -101.69352021 440.64445306 -101.47265625 431.65625 C-100.66906893 423.78290013 -96.87541814 417.58777239 -91.125 412.25 C-81.69900676 404.59138049 -70.62926268 404.9631366 -59 405.125 C-57.75734375 405.13402344 -56.5146875 405.14304687 -55.234375 405.15234375 C-52.19770996 405.17570271 -49.16146147 405.20845717 -46.125 405.25 C-46.12868717 404.48578106 -46.13237434 403.72156212 -46.13617325 402.93418503 C-46.22447026 384.34805968 -46.29068326 365.76197614 -46.33224869 347.17568588 C-46.35288316 338.18752261 -46.3810206 329.19949925 -46.42675781 320.21142578 C-46.46659857 312.37837102 -46.49242637 304.54541757 -46.50135398 296.7122643 C-46.50657345 292.56375289 -46.5188592 288.41553134 -46.54792023 284.26711273 C-46.57504589 280.36338232 -46.58345089 276.46006151 -46.57743073 272.5562458 C-46.57853225 271.12272733 -46.58650347 269.68919533 -46.6018219 268.25575829 C-46.62170089 266.29981747 -46.61455955 264.34365746 -46.60601807 262.38763428 C-46.60970524 261.29254421 -46.61339241 260.19745415 -46.61719131 259.06917953 C-46.00173693 255.54397227 -44.99570479 254.34024058 -42.125 252.25 C-40.805 252.25 -39.485 252.25 -38.125 252.25 C-38.125 244 -38.125 235.75 -38.125 227.25 C-39.445 226.92 -40.765 226.59 -42.125 226.25 C-45.09414407 224.03949186 -46.01779954 222.88228046 -46.64257812 219.19726562 C-46.64708984 218.02873047 -46.65160156 216.86019531 -46.65625 215.65625 C-46.66398437 213.74005859 -46.66398437 213.74005859 -46.671875 211.78515625 C-46.65930664 210.79153076 -46.65930664 210.79153076 -46.64648438 209.77783203 C-46.6250595 207.75561552 -46.64629739 205.73695039 -46.671875 203.71484375 C-46.66671875 202.43738281 -46.6615625 201.15992188 -46.65625 199.84375 C-46.65173828 198.67521484 -46.64722656 197.50667969 -46.64257812 196.30273438 C-46.02106249 192.63696478 -45.04174116 191.48449345 -42.125 189.25 C-41.135 188.92 -40.145 188.59 -39.125 188.25 C-38.98007281 184.31288563 -38.89105463 180.37645375 -38.8125 176.4375 C-38.7496582 174.75817383 -38.7496582 174.75817383 -38.68554688 173.04492188 C-38.66943359 171.97177734 -38.65332031 170.89863281 -38.63671875 169.79296875 C-38.61053467 168.80321045 -38.58435059 167.81345215 -38.55737305 166.79370117 C-38.87912817 164.02162067 -38.87912817 164.02162067 -41.53051758 162.52856445 C-42.38669678 162.10663818 -43.24287598 161.68471191 -44.125 161.25 C-46.76981221 158.60518779 -46.38454371 157.39297804 -46.40588379 153.69937134 C-46.42301422 151.92904541 -46.42301422 151.92904541 -46.44049072 150.12295532 C-46.44272644 148.82119354 -46.44496216 147.51943176 -46.44726562 146.17822266 C-46.45652109 144.79839547 -46.4665703 143.4185734 -46.47735596 142.03875732 C-46.50363553 138.28199349 -46.51650238 134.52530123 -46.52537727 130.7684598 C-46.53123972 128.41818436 -46.53944998 126.06792843 -46.54838562 123.71766281 C-46.57575712 116.35573657 -46.59507417 108.99385496 -46.6027894 101.63188136 C-46.61172667 93.15100355 -46.64669995 84.67077434 -46.70479059 76.19009364 C-46.74817443 69.62684953 -46.76820625 63.06378673 -46.77087164 56.5004009 C-46.77295908 52.58516415 -46.784583 48.67053613 -46.82051086 44.7554512 C-46.85373001 41.06321753 -46.85766243 37.37204122 -46.84023285 33.67971039 C-46.83798305 31.69717142 -46.86522978 29.71466559 -46.89373779 27.73233032 C-46.80648144 18.26572643 -44.72499158 9.89784377 -37.8824234 2.98409462 C-26.34556397 -6.73586042 -12.96488276 -7.26033434 0 0 Z " fill="#222222" transform="translate(195.125,47.75)"/>
<path d="M0 0 C5.06201697 2.39295348 6.88462001 4.9101291 9 10 C9.37555552 13.25936514 9.37555552 13.25936514 9.37638092 16.86194706 C9.38063204 17.530903 9.38488315 18.19985894 9.38926309 18.88908628 C9.39986439 21.12882633 9.38914748 23.36794873 9.37854004 25.60768127 C9.38183123 27.2303458 9.38644516 28.85300809 9.3922677 30.47566551 C9.40448768 34.93333821 9.39810967 39.39082095 9.38876271 43.84849346 C9.38197092 48.65631364 9.39249648 53.46409864 9.40104675 58.27191162 C9.41361786 66.60247321 9.4155847 74.9329829 9.41069031 83.26355171 C9.40388765 95.31361656 9.41638982 107.36360301 9.43419749 119.41365384 C9.46285269 138.97099691 9.48036209 158.52833153 9.48876953 178.08569336 C9.4895303 179.84160393 9.4895303 179.84160393 9.49030644 181.63298743 C9.49433871 191.13205351 9.49783261 200.63111978 9.50130367 210.13018608 C9.50436107 218.43501674 9.50763324 226.73984729 9.51123047 235.04467773 C9.51173308 236.21416364 9.5122357 237.38364954 9.51275355 238.58857442 C9.521491 258.07360856 9.54191317 277.55861359 9.57071257 297.04362816 C9.58791292 309.06679159 9.59446827 321.08987275 9.58740652 333.11304688 C9.58323433 341.34681935 9.58955384 349.58053987 9.60420525 357.81430025 C9.61228109 362.56830506 9.61534432 367.32218113 9.60538292 372.07618523 C9.59634549 376.4254049 9.6009721 380.77438478 9.61659735 385.12358379 C9.61979605 386.69952414 9.61788415 388.27548459 9.61043197 389.85141058 C9.60104076 391.98919784 9.61000443 394.12614763 9.62361908 396.26389408 C9.62389146 397.45258376 9.62416385 398.64127344 9.62444448 399.86598402 C10.07488547 403.62492026 11.30375603 406.30375603 14 409 C16.0888551 409.09936676 18.18113901 409.12663543 20.27235603 409.12749195 C21.27130244 409.1299577 21.27130244 409.1299577 22.29042959 409.13247326 C24.54993293 409.13682787 26.80937301 409.13400094 29.06887817 409.13130188 C30.69404904 409.13300235 32.31921949 409.13515126 33.94438922 409.13771313 C37.49235951 409.14232594 41.04031233 409.14372793 44.58828545 409.14274788 C50.35996568 409.14116056 56.13162846 409.14634549 61.90330505 409.15237427 C70.2835909 409.16050075 78.66387369 409.16543577 87.04416275 409.16866493 C100.28652483 409.17415248 113.52886102 409.19104106 126.77120972 409.21000671 C131.29822727 409.21636405 135.82524488 409.22267242 140.3522625 409.22898388 C141.48374495 409.23056764 142.6152274 409.2321514 143.78099719 409.23378316 C156.6717046 409.2517333 169.56241384 409.2679527 182.453125 409.28295898 C183.63201616 409.28433486 184.81090732 409.28571073 186.02552246 409.28712829 C205.12608109 409.30905415 224.2266331 409.31981294 243.3272021 409.32732973 C262.9228424 409.33539699 282.51842577 409.35867605 302.11403358 409.3952834 C314.20826748 409.41732937 326.30238439 409.42696663 338.39663737 409.42078307 C346.6851589 409.4176117 354.97358048 409.42891728 363.26207109 409.45167748 C368.04669612 409.46436261 372.83109849 409.47049427 377.61573219 409.45926094 C381.99555411 409.44911008 386.37494331 409.45730515 390.754714 409.4801239 C392.33958289 409.48512779 393.92449046 409.48337202 395.50934066 409.47419123 C410.24270783 409.39555118 410.24270783 409.39555118 416 414 C419.23585287 417.65338227 419.4728114 421.08220151 419.27734375 425.7890625 C418.67870889 430.5612784 417.06945901 433.13226801 413.36748886 436.13595295 C407.27368439 439.43578017 399.92209349 438.5513283 393.18267822 438.51225281 C391.5494725 438.51741383 389.91627154 438.52432942 388.28307986 438.5328458 C383.80096067 438.55116701 379.31916846 438.54467855 374.83703685 438.53414643 C370.00130773 438.52714565 365.16564903 438.54319825 360.3299408 438.55648804 C351.95300252 438.57639901 343.57615531 438.58183706 335.19919586 438.57755089 C323.08427608 438.57146038 310.96947264 438.5883171 298.85457644 438.61096082 C279.19455741 438.64717641 259.53456123 438.66633184 239.87451172 438.67407227 C220.78433175 438.68163823 201.69417276 438.69473968 182.60400391 438.71704102 C180.83951194 438.71909706 180.83951194 438.71909706 179.03937367 438.72119465 C166.20442773 438.73631382 153.36948432 438.7530438 140.53454208 438.77101612 C139.40743633 438.77258809 138.28033057 438.77416006 137.1190701 438.77577967 C130.36174131 438.78520538 130.36174131 438.78520538 123.60441276 438.79479728 C110.40146627 438.81363042 97.19853512 438.82749864 83.99557582 438.83259294 C75.71932852 438.83582707 67.44308763 438.84207902 59.16684422 438.8507212 C53.46591929 438.85645366 47.76501379 438.85806557 42.06408645 438.85648732 C38.61437349 438.85657008 35.16467506 438.86075295 31.71496674 438.86618242 C30.12899667 438.86784099 28.54302373 438.86777907 26.95705393 438.86587711 C24.81081912 438.86352319 22.66467924 438.8672287 20.51845169 438.87250805 C18.72597783 438.87324268 18.72597783 438.87324268 16.89729238 438.87399215 C13.93198667 438.87005537 13.93198667 438.87005537 11 440 C9.59433153 443.40992547 9.85822723 447.10499232 9.82421875 450.7421875 C9.80037109 452.05574219 9.77652344 453.36929687 9.75195312 454.72265625 C9.71689073 456.79844787 9.6875087 458.87365562 9.67407227 460.94970703 C9.65851078 462.96408208 9.61662889 464.97819883 9.57421875 466.9921875 C9.55963623 468.19214355 9.54505371 469.39209961 9.5300293 470.62841797 C8.73304805 475.69811441 6.20288373 478.7646059 2.6875 482.375 C-0.84442374 484.51058179 -2.92707003 484.50018438 -7 484 C-12.2590971 482.10672504 -14.79008594 479.40216785 -18 475 C-19.14049257 471.5785223 -19.15909371 468.85718652 -19.2109375 465.25 C-19.23899458 463.90623758 -19.26765896 462.56248772 -19.296875 461.21875 C-19.3381961 459.1054708 -19.37509411 456.99242928 -19.40136719 454.87890625 C-19.42895576 452.83544927 -19.47480693 450.79304998 -19.5234375 448.75 C-19.5531665 446.91695313 -19.5531665 446.91695313 -19.58349609 445.046875 C-20.04415349 441.67700145 -20.39163177 441.01560657 -23 439 C-24.90659175 438.55870014 -24.90659175 438.55870014 -27.0090332 438.63110352 C-27.81029129 438.62422012 -28.61154938 438.61733673 -29.43708801 438.61024475 C-30.29960678 438.61640305 -31.16212555 438.62256134 -32.05078125 438.62890625 C-33.88216328 438.61151909 -35.71354345 438.59393476 -37.54492188 438.57617188 C-40.42833969 438.56611144 -43.31163375 438.56249949 -46.19506836 438.56420898 C-48.98067954 438.56062943 -51.76533983 438.53324583 -54.55078125 438.50390625 C-55.40722733 438.51208878 -56.2636734 438.5202713 -57.14607239 438.52870178 C-62.5843933 438.4613827 -65.68621398 437.61630072 -70 434 C-72.79122193 430.69460561 -73.9083448 428.74633519 -74.4375 424.4375 C-73.72631618 418.84962714 -71.09382837 415.71003196 -67 412 C-63.96011276 409.97340851 -63.35710719 409.7492382 -59.94335938 409.72875977 C-58.72694763 409.71347984 -58.72694763 409.71347984 -57.48596191 409.69789124 C-56.17806702 409.69468117 -56.17806702 409.69468117 -54.84375 409.69140625 C-52.99869466 409.66625374 -51.15364265 409.6408556 -49.30859375 409.61523438 C-46.39860847 409.58644457 -43.48868093 409.56242716 -40.57861328 409.54370117 C-37.7708589 409.52209576 -34.96377407 409.48266838 -32.15625 409.44140625 C-31.28432007 409.44129044 -30.41239014 409.44117462 -29.51403809 409.4410553 C-28.70309692 409.42771652 -27.89215576 409.41437775 -27.05664062 409.40063477 C-26.34399048 409.39556412 -25.63134033 409.39049347 -24.89709473 409.38526917 C-22.31379832 408.86064357 -21.58065067 408.1137921 -20 406 C-19.54531302 403.01695408 -19.54531302 403.01695408 -19.61904907 399.54724121 C-19.6143691 398.8893427 -19.60968913 398.2314442 -19.60486734 397.55360937 C-19.59288249 395.3447805 -19.60238766 393.13656807 -19.61181641 390.92773438 C-19.60775223 389.34596901 -19.60241122 387.76420647 -19.59588623 386.18244934 C-19.58218837 381.88290534 -19.5875214 377.58357686 -19.59702349 373.28402901 C-19.60460733 368.78907811 -19.59757803 364.29414594 -19.59286499 359.79919434 C-19.58740371 352.2500476 -19.5946088 344.70098885 -19.60888672 337.15185547 C-19.62521396 328.4182084 -19.61992572 319.68477141 -19.6034075 310.95112944 C-19.58980323 303.45892139 -19.58786778 295.96677667 -19.59572351 288.47456026 C-19.60040587 283.99701779 -19.60100948 279.51957413 -19.59111404 275.04203796 C-19.58246202 270.83295014 -19.5884338 266.62413374 -19.60579681 262.4150753 C-19.60977113 260.86828246 -19.60861151 259.32146686 -19.60200882 257.774683 C-19.5938401 255.66706423 -19.60405689 253.56032138 -19.61904907 251.45275879 C-19.62018015 250.27215126 -19.62131123 249.09154373 -19.62247658 247.87516022 C-19.76542994 245.01522513 -19.76542994 245.01522513 -21.33630943 243.15920258 C-23.11181971 241.80556799 -23.11181971 241.80556799 -26 241 C-26 232.75 -26 224.5 -26 216 C-27.32 215.67 -28.64 215.34 -30 215 C-32.96914407 212.78949186 -33.89279954 211.63228046 -34.51757812 207.94726562 C-34.52208984 206.77873047 -34.52660156 205.61019531 -34.53125 204.40625 C-34.53898437 202.49005859 -34.53898437 202.49005859 -34.546875 200.53515625 C-34.53430664 199.54153076 -34.53430664 199.54153076 -34.52148438 198.52783203 C-34.5000595 196.50561552 -34.52129739 194.48695039 -34.546875 192.46484375 C-34.54171875 191.18738281 -34.5365625 189.90992188 -34.53125 188.59375 C-34.52673828 187.42521484 -34.52222656 186.25667969 -34.51757812 185.05273438 C-33.89606249 181.38696478 -32.91674116 180.23449345 -30 178 C-29.01 177.67 -28.02 177.34 -27 177 C-27 168.75 -27 160.5 -27 152 C-24.525 151.01 -24.525 151.01 -22 150 C-19.37088238 147.37088238 -19.74966405 146.22790012 -19.7484436 142.56085205 C-19.74036934 140.82800461 -19.74036934 140.82800461 -19.73213196 139.06015015 C-19.73625595 137.78636505 -19.74037994 136.51257996 -19.74462891 135.20019531 C-19.74187994 133.85004464 -19.73820062 132.49989559 -19.73365784 131.14974976 C-19.72553437 128.238109 -19.72338028 125.3265451 -19.72560501 122.4148941 C-19.72843393 117.80914517 -19.71410097 113.20355018 -19.69662476 108.59783936 C-19.64956052 95.49949469 -19.62566271 82.4011598 -19.61914062 69.30273438 C-19.61538802 62.071653 -19.59734011 54.84074513 -19.56404626 47.60973811 C-19.54383838 43.03341937 -19.54145917 38.45754832 -19.55232644 33.88120317 C-19.55493731 31.02917936 -19.54091092 28.17741499 -19.52224541 25.32545853 C-19.51440275 23.37763491 -19.52634838 21.42976291 -19.53892517 19.48196411 C-19.47798239 13.03238633 -19.41499158 8.86774709 -15 4 C-13.948125 2.824375 -13.948125 2.824375 -12.875 1.625 C-8.60849133 -0.7865049 -4.78840944 -0.75202584 0 0 Z " fill="#686DAE" transform="translate(183,59)"/>
<path d="M0 0 C2.63220937 2.52717097 4.27159541 5.00295577 6.046875 8.20703125 C6.63702393 9.25802002 7.22717285 10.30900879 7.83520508 11.3918457 C8.4670874 12.52066162 9.09896973 13.64947754 9.75 14.8125 C19.54724749 32.10916593 30.63022842 48.4367253 43 64 C43.90273133 65.16796683 44.80370648 66.33729266 45.703125 67.5078125 C50.73072923 74.02644641 55.89824534 80.28053207 61.515625 86.3046875 C63.49194364 88.44880678 65.41923181 90.61643193 67.33203125 92.81640625 C70.95613022 96.97274288 74.6735466 101.0327638 78.4375 105.0625 C79.05431641 105.73087891 79.67113281 106.39925781 80.30664062 107.08789062 C84.0667553 111.11406961 87.97113111 114.83232861 92.15405273 118.41674805 C94.5952854 120.5105708 96.95027113 122.69278546 99.3125 124.875 C121.16423252 144.73209208 145.56487938 161.14146168 171 176 C171.74620605 176.43844238 172.49241211 176.87688477 173.26123047 177.32861328 C201.89360673 194.0549666 233.47352563 206.88289697 265.53222656 215.34375 C268.13786718 216.03666274 270.73676132 216.75199334 273.3359375 217.46875 C300.96844839 225.00116064 329.45025432 230.10682648 358.08984375 231.515625 C358.83867325 231.55363724 359.58750275 231.59164948 360.35902405 231.6308136 C363.96910612 231.80863602 367.57655721 231.95585763 371.18969727 232.0534668 C380.63832059 232.44093128 386.5186983 234.02622329 393 241 C394.99016341 245.88494655 394.55861012 251.38623742 392.875 256.25 C390.05511626 260.38582949 386.70505988 262.43164671 382 264 C374.36722611 264.37333421 366.7292411 263.90630074 359.125 263.25 C358.11397217 263.16347168 357.10294434 263.07694336 356.0612793 262.98779297 C335.55901704 261.13085563 315.13615358 258.29612486 295 254 C294.09314453 253.80792969 293.18628906 253.61585938 292.25195312 253.41796875 C280.65045552 250.93593683 269.25034219 248.06252004 257.91113281 244.57763672 C254.91234234 243.67125728 251.89279699 242.84052735 248.875 242 C239.09725077 239.20957214 229.35476667 236.26090835 220.12890625 231.9453125 C217.84838613 230.93267788 215.54751072 230.12227184 213.1875 229.3125 C157.35818329 209.37345832 107.32852428 173.27484958 65.625 131.75 C64.87581299 131.00548584 64.12662598 130.26097168 63.35473633 129.49389648 C58.69896815 124.82463784 54.28037281 120.01441457 50 115 C49.53335938 114.46036621 49.06671875 113.92073242 48.5859375 113.36474609 C41.76307338 105.46763309 35.19411605 97.40109161 29 89 C28.47535156 88.29020996 27.95070312 87.58041992 27.41015625 86.84912109 C17.85672765 73.82347349 9.59717746 60.25322129 2 46 C1.64996918 45.38251892 1.29993835 44.76503784 0.93930054 44.12884521 C-0.09467478 41.78542762 -0.24239907 40.23824522 -0.22705078 37.69042969 C-0.22689972 36.84986023 -0.22674866 36.00929077 -0.22659302 35.14324951 C-0.21627045 34.24519592 -0.20594788 33.34714233 -0.1953125 32.421875 C-0.1924826 31.4953009 -0.18965271 30.56872681 -0.18673706 29.61407471 C-0.17555611 26.65925091 -0.15045527 23.70473195 -0.125 20.75 C-0.11496751 18.74479605 -0.10584213 16.73958734 -0.09765625 14.734375 C-0.07562358 9.82279949 -0.04110795 4.91145141 0 0 Z " fill="#FAC970" transform="translate(208,120)"/>
<path d="M0 0 C5.84673451 -0.25886305 10.41219647 0.54277087 15.12109375 4.19921875 C18.44614697 7.74030651 19.40000474 11.4145631 19.68359375 16.19921875 C19.4912905 20.55588213 18.40087375 23.26826954 15.80078125 26.7265625 C11.5225053 30.47751607 7.18778113 31.57287302 1.6171875 31.75390625 C0.33602051 31.80853027 -0.94514648 31.8631543 -2.26513672 31.91943359 C-2.94493591 31.94398621 -3.62473511 31.96853882 -4.32513428 31.99383545 C-17.2093089 32.48322079 -29.99255925 33.58679364 -42.77706909 35.25250244 C-44.42429145 35.46646011 -46.07236404 35.67397364 -47.72122192 35.87493896 C-50.03454242 36.15950841 -52.34325997 36.46823664 -54.65234375 36.78515625 C-55.34149368 36.8675354 -56.03064362 36.94991455 -56.74067688 37.03479004 C-59.84471336 37.49128987 -61.55940465 37.87317836 -63.78759766 40.14697266 C-64.86637957 42.17566186 -65.4759222 43.94250806 -65.87890625 46.19921875 C-86.8557581 51.52329282 -86.8557581 51.52329282 -91.87890625 51.19921875 C-91.87890625 52.84921875 -91.87890625 54.49921875 -91.87890625 56.19921875 C-92.20890625 56.19921875 -92.53890625 56.19921875 -92.87890625 56.19921875 C-92.96140625 55.08546875 -93.04390625 53.97171875 -93.12890625 52.82421875 C-93.44464061 49.19758642 -93.44464061 49.19758642 -95.65625 47.96875 C-103.86203608 45.12773092 -113.31342955 49.83848077 -121.03564453 52.56591797 C-123.70938458 53.48455131 -126.41705757 54.27620977 -129.12890625 55.07421875 C-160.66065041 64.77042095 -190.41716923 79.22532834 -218.09326172 97.09936523 C-218.91068848 97.62087158 -219.72811523 98.14237793 -220.5703125 98.6796875 C-221.28388916 99.14270264 -221.99746582 99.60571777 -222.73266602 100.08276367 C-225.20398629 101.3683225 -227.09458602 101.99523423 -229.87890625 102.19921875 C-231.92773438 101.19873047 -231.92773438 101.19873047 -233.91015625 99.62890625 C-235.00263672 98.778125 -235.00263672 98.778125 -236.1171875 97.91015625 C-236.86355469 97.30429687 -237.60992187 96.6984375 -238.37890625 96.07421875 C-239.12527344 95.4915625 -239.87164062 94.90890625 -240.640625 94.30859375 C-244.64196595 91.1500131 -248.36624163 87.89309226 -251.87890625 84.19921875 C-245.8175527 79.29841382 -239.59366475 74.94423996 -232.94140625 70.88671875 C-232.02319092 70.32404297 -231.10497559 69.76136719 -230.15893555 69.18164062 C-191.47877856 45.63748772 -150.42401602 27.7143846 -106.43261719 16.83105469 C-103.51615896 16.10946827 -100.60469895 15.36931063 -97.69384766 14.62548828 C-95.10521292 13.97385648 -92.51273533 13.33824238 -89.92004395 12.70297241 C-87.96742179 12.22106442 -86.01768638 11.72750462 -84.06811523 11.23339844 C-73.55175855 8.61448501 -63.06108719 6.93111272 -52.31640625 5.57421875 C-50.74664193 5.36927594 -49.17697994 5.16354776 -47.60742188 4.95703125 C-43.7770314 4.45536124 -39.94523213 3.96580905 -36.11254883 3.48199463 C-33.88844599 3.20042647 -31.66489827 2.91476559 -29.44140625 2.62841797 C-28.03387247 2.44874976 -26.62632117 2.26921878 -25.21875 2.08984375 C-23.99148193 1.93290039 -22.76421387 1.77595703 -21.49975586 1.61425781 C-14.34668668 0.79433889 -7.17878783 0.49676822 0 0 Z " fill="#FC798A" transform="translate(582.87890625,159.80078125)"/>
<path d="M0 0 C1.32 0.33 2.64 0.66 4 1 C3.649375 2.175625 3.29875 3.35125 2.9375 4.5625 C2.52105741 6.76835617 2.52105741 6.76835617 3 9 C6.10918181 12.42140091 9.87511603 14.93755801 14 17 C15.99021521 16.90276549 15.99021521 16.90276549 18.125 16.5625 C19.40375 16.376875 20.6825 16.19125 22 16 C21.67 17.65 21.34 19.3 21 21 C19.02 21.495 19.02 21.495 17 22 C17.2165625 22.67546875 17.433125 23.3509375 17.65625 24.046875 C18.07390625 25.38492187 18.07390625 25.38492187 18.5 26.75 C18.7784375 27.63171875 19.056875 28.5134375 19.34375 29.421875 C20 32 20 32 20 36 C21.98 36 23.96 36 26 36 C26 37.65 26 39.3 26 41 C24.02 41 22.04 41 20 41 C19.855625 42.19625 19.71125 43.3925 19.5625 44.625 C19.12960657 48.1005158 18.60383744 51.54950034 18 55 C19.65 55.66 21.3 56.32 23 57 C23 58.65 23 60.3 23 62 C19.53058454 61.54177532 16.32604951 61.10868317 13 60 C10.92776981 61.36148032 10.92776981 61.36148032 8.9375 63.3125 C8.24527344 63.94800781 7.55304688 64.58351563 6.83984375 65.23828125 C5.5456706 66.47750012 4.26699399 67.73300601 3 69 C4.65 70.32 6.3 71.64 8 73 C7.67 74.32 7.34 75.64 7 77 C1.46153846 76.38461538 1.46153846 76.38461538 -0.875 74.4375 C-1.24625 73.963125 -1.6175 73.48875 -2 73 C-5.36591866 74.44253657 -7.51047079 76.33264727 -10 79 C-8.84826645 81.46800047 -7.95216435 83.04783565 -6 85 C-6.375 87.625 -6.375 87.625 -7 90 C-10.32812571 89.42618522 -11.69842455 88.40619252 -14 86 C-14.66 86 -15.32 86 -16 86 C-17.40637961 87.64301434 -17.40637961 87.64301434 -18.6875 89.75 C-19.14511719 90.44609375 -19.60273437 91.1421875 -20.07421875 91.859375 C-21.17680634 94.40881802 -21.00198126 95.4535283 -20 98 C-19.67 98.33 -19.34 98.66 -19 99 C-18.95936168 100.66617115 -18.957279 102.33388095 -19 104 C-22.37462715 103.45276317 -24.08235 102.9451 -27 101 C-27.928125 101.763125 -28.85625 102.52625 -29.8125 103.3125 C-34.4281787 106.65554301 -39.50653349 107.77812589 -45 109 C-45.33 110.65 -45.66 112.3 -46 114 C-47.32 114 -48.64 114 -50 114 C-50.309375 112.7934375 -50.309375 112.7934375 -50.625 111.5625 C-51.07875 110.716875 -51.5325 109.87125 -52 109 C-55.05272465 108.10169161 -55.05272465 108.10169161 -58 108 C-58.04125 108.66 -58.0825 109.32 -58.125 110 C-60.76641486 119.05627953 -69.54123082 126.11491406 -77.1875 131.0625 C-83.83794588 135.64391827 -87.14026956 141.58152281 -90 149 C-91.32 149 -92.64 149 -94 149 C-94.91303601 142.00005725 -92.2028939 137.49741974 -88 132 C-83.95993782 127.79625206 -79.45277418 124.30003931 -74.75 120.875 C-69.25440785 116.82446396 -65.775673 112.77984237 -64 106 C-67.58377526 102.9748672 -67.58377526 102.9748672 -71.94140625 102.1796875 C-83.33326868 106.71913932 -90.16602184 120.92035744 -95.0625 131.375 C-98.90558775 139.33719838 -104.79886616 145.54689101 -113 149 C-116.03532092 149.29185778 -118.96350056 149.24787751 -122 149 C-122.33 147.68 -122.66 146.36 -123 145 C-122.41992188 144.82984375 -121.83984375 144.6596875 -121.2421875 144.484375 C-112.18082137 141.67325811 -105.72309109 137.21500727 -100.80102539 128.99853516 C-99.7064704 126.91089722 -98.65917425 124.80565361 -97.625 122.6875 C-92.50934376 112.66397386 -86.32345207 103.60958339 -77 97 C-76.34 97 -75.68 97 -75 97 C-75.66 95.68 -76.32 94.36 -77 93 C-83.03611362 93.30180568 -86.77497211 95.91765598 -91 100 C-93.1735179 102.74401613 -95.18489327 105.55873074 -97.17578125 108.4375 C-99.23622043 111.33182142 -101.38351718 113.61438331 -104 116 C-104.99 116.99 -104.99 116.99 -106 118 C-108.125 117.625 -108.125 117.625 -110 117 C-109.48655293 112.75103949 -108.25464941 110.75293948 -105.3125 107.6875 C-102.64572727 104.83092138 -100.1971652 102.0004601 -97.9375 98.8125 C-93.67532739 93.01409716 -88.68099016 88.79669355 -82 86 C-81.34 86 -80.68 86 -80 86 C-80.16242187 85.47535156 -80.32484375 84.95070313 -80.4921875 84.41015625 C-81.13084474 81.37899071 -81.13204556 78.53402247 -81.125 75.4375 C-81.12886719 73.73400391 -81.12886719 73.73400391 -81.1328125 71.99609375 C-81 69 -81 69 -80 66 C-82.31 65.34 -84.62 64.68 -87 64 C-87 62.68 -87 61.36 -87 60 C-83.37 60.33 -79.74 60.66 -76 61 C-75.67 59.35 -75.34 57.7 -75 56 C-73.4375 53.6875 -73.4375 53.6875 -72 52 C-73.15173355 49.53199953 -74.04783565 47.95216435 -76 46 C-75.625 43.375 -75.625 43.375 -75 41 C-71.51460083 41.64544429 -68.97180943 43.10134397 -66 45 C-65.773125 44.443125 -65.54625 43.88625 -65.3125 43.3125 C-64 41 -64 41 -61.3125 38.5 C-60.1678125 37.2625 -60.1678125 37.2625 -59 36 C-59.00469206 33.89768759 -59.00469206 33.89768759 -60 32 C-60.33333333 30.66666667 -60.66666667 29.33333333 -61 28 C-58.6875 27.375 -58.6875 27.375 -56 27 C-55.01 27.66 -54.02 28.32 -53 29 C-49.96782164 26.93652632 -47.29122219 24.88099009 -45 22 C-44.59869742 18.78957935 -45.10308643 16.09014754 -46 13 C-44.68 12.67 -43.36 12.34 -42 12 C-41.01 13.32 -40.02 14.64 -39 16 C-35.4213696 14.34832443 -32.25179812 12.21713508 -29 10 C-29.495 6.535 -29.495 6.535 -30 3 C-28.68 2.34 -27.36 1.68 -26 1 C-23 4.75 -23 4.75 -23 7 C-22.14664063 6.82855469 -21.29328125 6.65710938 -20.4140625 6.48046875 C-16.942813 5.99195194 -13.86673878 6.10397696 -10.375 6.3125 C-6.00389779 6.5257775 -6.00389779 6.5257775 -2.26953125 4.66796875 C-1.01680175 2.8569706 -1.01680175 2.8569706 0 0 Z " fill="#F9C169" transform="translate(731,301)"/>
<path d="M0 0 C1.32 0 2.64 0 4 0 C3.86722656 0.59167969 3.73445312 1.18335937 3.59765625 1.79296875 C2.68994822 5.85446525 1.7908887 9.91374171 1 14 C2.98 15.32 4.96 16.64 7 18 C11.18313239 16.10899495 14.43712913 13.34187164 17.9765625 10.4609375 C20 9 20 9 22 9 C22 12 22 12 20.35546875 13.75390625 C19.64003906 14.35074219 18.92460938 14.94757813 18.1875 15.5625 C17.47980469 16.16191406 16.77210938 16.76132813 16.04296875 17.37890625 C14 19 14 19 11 21 C11.4021875 21.7734375 11.4021875 21.7734375 11.8125 22.5625 C16 31.15789474 16 31.15789474 16 35 C16.59167969 34.855625 17.18335938 34.71125 17.79296875 34.5625 C21.92529941 33.59177306 25.7229762 32.72406298 30 33 C30 33.99 30 34.98 30 36 C28.58461283 36.33872513 27.16762037 36.67074624 25.75 37 C24.96109375 37.185625 24.1721875 37.37125 23.359375 37.5625 C21 38 21 38 17 38 C16.67 43.28 16.34 48.56 16 54 C19.3 55.98 22.6 57.96 26 60 C25.67 60.99 25.34 61.98 25 63 C21.20774749 61.5500211 17.62189716 59.83101449 14 58 C13.47599609 59.68029297 13.47599609 59.68029297 12.94140625 61.39453125 C12.48178595 62.86719222 12.0221497 64.33984821 11.5625 65.8125 C11.33240234 66.55048828 11.10230469 67.28847656 10.86523438 68.04882812 C9.9312816 71.04018411 8.99100896 74.02697312 8 77 C11.3 77.33 14.6 77.66 18 78 C18 78.99 18 79.98 18 81 C13.81998005 81.08196118 10.07787895 80.89445704 6 80 C5.51787786 81.56159059 5.03944127 83.12431928 4.5625 84.6875 C4.29566406 85.55761719 4.02882813 86.42773438 3.75390625 87.32421875 C3.03655471 89.87025921 2.482459 92.4003423 2 95 C2.5775 95.39832031 3.155 95.79664063 3.75 96.20703125 C4.86375 97.00173828 4.86375 97.00173828 6 97.8125 C6.7425 98.33457031 7.485 98.85664063 8.25 99.39453125 C8.8275 99.92433594 9.405 100.45414062 10 101 C10 101.99 10 102.98 10 104 C5.66265425 102.46917209 3.04042344 100.69361563 -1 98 C-4.96 104.6 -8.92 111.2 -13 118 C-9.7 118.66 -6.4 119.32 -3 120 C-3 120.99 -3 121.98 -3 123 C-7.571279 122.45144652 -11.67435795 121.58255197 -16 120 C-16.268125 120.5775 -16.53625 121.155 -16.8125 121.75 C-18 124 -18 124 -19.6875 125.9375 C-21.22330545 127.92675581 -21.22330545 127.92675581 -20.9375 130.375 C-19.77551015 133.62857158 -17.92477999 136.14387485 -16 139 C-16 139.99 -16 140.98 -16 142 C-20.55015893 140.48328036 -22.50057264 136.83108947 -25 133 C-25.94875 133.495 -26.8975 133.99 -27.875 134.5 C-31 136 -31 136 -33 136 C-33 136.66 -33 137.32 -33 138 C-34.32 138 -35.64 138 -37 138 C-37 137.34 -37 136.68 -37 136 C-38.98 136.33 -40.96 136.66 -43 137 C-43.09087891 138.26457031 -43.09087891 138.26457031 -43.18359375 139.5546875 C-43.26738281 140.65039062 -43.35117187 141.74609375 -43.4375 142.875 C-43.51871094 143.96554688 -43.59992187 145.05609375 -43.68359375 146.1796875 C-44 149 -44 149 -45 151 C-46.32 151 -47.64 151 -49 151 C-49 147.04 -49 143.08 -49 139 C-50.65 138.67 -52.3 138.34 -54 138 C-54 137.34 -54 136.68 -54 136 C-55.65697379 135.30959426 -57.3255761 134.6469365 -59 134 C-59.64453125 133.74605469 -60.2890625 133.49210938 -60.953125 133.23046875 C-63.09276916 132.75335862 -63.09276916 132.75335862 -64.78125 134.328125 C-65.3484375 134.96234375 -65.915625 135.5965625 -66.5 136.25 C-71.07556371 141.15868826 -71.07556371 141.15868826 -74 143 C-74.66 143 -75.32 143 -76 143 C-75.41457824 139.37363743 -73.97353457 137.54114586 -71.5 134.875 C-68.94538114 132.14762761 -68.94538114 132.14762761 -67 129 C-67.66 128.01 -68.32 127.02 -69 126 C-69.70812814 123.67891331 -70.38024152 121.34622853 -71 119 C-74.63 119 -78.26 119 -82 119 C-82.33 118.01 -82.66 117.02 -83 116 C-80.24921116 115.08307039 -78.64051087 114.89113917 -75.8125 114.9375 C-74.554375 114.958125 -73.29625 114.97875 -72 115 C-71.47023414 110.22556697 -71.19229453 105.75120867 -72 101 C-74.59808434 98.06259471 -77.40305703 96.49872624 -81 95 C-80.505 94.01 -80.505 94.01 -80 93 C-75.94718288 94.22527029 -72.55639236 95.69880494 -69 98 C-68.74476563 97.28457031 -68.48953125 96.56914062 -68.2265625 95.83203125 C-66.9123112 92.79753382 -65.30503984 90.36811089 -63.375 87.6875 C-62.42753906 86.36298828 -62.42753906 86.36298828 -61.4609375 85.01171875 C-60.97882812 84.34785156 -60.49671875 83.68398437 -60 83 C-60.62648438 82.93941406 -61.25296875 82.87882812 -61.8984375 82.81640625 C-63.12433594 82.69072266 -63.12433594 82.69072266 -64.375 82.5625 C-65.59316406 82.44068359 -65.59316406 82.44068359 -66.8359375 82.31640625 C-69 82 -69 82 -71 81 C-71 79.35 -71 77.7 -71 76 C-67.53058454 76.45822468 -64.32604951 76.89131683 -61 78 C-61 78.66 -61 79.32 -61 80 C-59.10183052 80.04232358 -59.10183052 80.04232358 -57 79 C-55.56357954 76.63808099 -54.38749171 74.43461163 -53.25 71.9375 C-52.93417969 71.27427734 -52.61835937 70.61105469 -52.29296875 69.92773438 C-51.51588722 68.29115358 -50.75624233 66.64631405 -50 65 C-53.26874082 62.99480605 -56.40056264 61.33693388 -60 60 C-60 58.68 -60 57.36 -60 56 C-57.8125 55.6875 -57.8125 55.6875 -55 56 C-52.3125 58.5 -52.3125 58.5 -50 61 C-49.34 61 -48.68 61 -48 61 C-47.18608745 58.41710408 -46.37382071 55.83371003 -45.5625 53.25 C-45.33240234 52.52039063 -45.10230469 51.79078125 -44.86523438 51.0390625 C-44.64287109 50.33007812 -44.42050781 49.62109375 -44.19140625 48.890625 C-43.98717041 48.24125977 -43.78293457 47.59189453 -43.57250977 46.92285156 C-42.98830273 44.96071312 -42.48189352 42.98950416 -42 41 C-42.93972656 40.90912109 -42.93972656 40.90912109 -43.8984375 40.81640625 C-44.71570313 40.73261719 -45.53296875 40.64882812 -46.375 40.5625 C-47.18710937 40.48128906 -47.99921875 40.40007812 -48.8359375 40.31640625 C-51 40 -51 40 -53 39 C-52.67 38.01 -52.34 37.02 -52 36 C-48.37 36.33 -44.74 36.66 -41 37 C-41.020625 36.05125 -41.04125 35.1025 -41.0625 34.125 C-41 31 -41 31 -40 29 C-39.34 29 -38.68 29 -38 29 C-37.731875 28.2575 -37.46375 27.515 -37.1875 26.75 C-36.05770579 24.13363446 -34.79106798 22.19812889 -33 20 C-34.17325643 17.12018877 -35.37938667 15.62061333 -37.625 13.375 C-38.40875 12.59125 -39.1925 11.8075 -40 11 C-40 10.34 -40 9.68 -40 9 C-36.64749299 9.57575664 -35.06181371 10.59306263 -32.75 13.0625 C-31.96882812 13.88427734 -31.96882812 13.88427734 -31.171875 14.72265625 C-30.78515625 15.14417969 -30.3984375 15.56570312 -30 16 C-26.2627488 14.78322054 -22.6558378 13.46233512 -19 12 C-19.495 6.555 -19.495 6.555 -20 1 C-19.01 1 -18.02 1 -17 1 C-16.01 4.63 -15.02 8.26 -14 12 C-12.01432292 11.96744792 -10.02864583 11.93489583 -8.04296875 11.90234375 C-6 12 -6 12 -3 13 C-2.01 8.71 -1.02 4.42 0 0 Z " fill="#EC7245" transform="translate(709,91)"/>
<path d="M0 0 C52.59375 0 52.59375 0 68.67578125 15.3828125 C75.3222712 22.86709531 79.82663636 31.24680616 82 41 C82.17917969 41.59039063 82.35835937 42.18078125 82.54296875 42.7890625 C85.34792221 56.35832452 82.46022327 70.48562504 75 82.0625 C74.0183207 83.38875865 73.0200402 84.7030134 72 86 C71.2575 87.03125 70.515 88.0625 69.75 89.125 C60.40012666 98.89986758 48.96681357 103.11848587 36 106 C24.12 106 12.24 106 0 106 C0 71.02 0 36.04 0 0 Z " fill="#BF4949" transform="translate(655,600)"/>
<path d="M0 0 C48.45762712 0 48.45762712 0 56.5078125 7.3828125 C61.70117963 13.3225318 63.54539747 18.69049125 63.4375 26.375 C63.42920166 27.13014893 63.42090332 27.88529785 63.41235352 28.66333008 C63.20732828 35.40143709 62.06220663 39.9771365 57.17578125 44.80078125 C55.49769927 46.28144182 53.79682137 47.66752572 52 49 C53.95807282 49.9964415 55.90877853 50.96103698 57.9296875 51.82421875 C64.58645827 54.77832787 68.92283812 59.04927909 71.875 65.75 C74.79876695 74.83643742 73.16668062 83.60112492 69 92 C65.00319109 98.89515709 58.2916006 102.25990293 51 105 C34.16762379 107.40462517 17.00326766 106 0 106 C0 71.02 0 36.04 0 0 Z " fill="#BF4848" transform="translate(753,600)"/>
<path d="M0 0 C0.80083008 0.00749268 1.60166016 0.01498535 2.42675781 0.02270508 C7.91158563 0.12284626 12.89387857 0.51229529 18.125 2.25 C19.23488281 2.59160156 20.34476562 2.93320312 21.48828125 3.28515625 C28.63383483 5.63179528 34.51716696 8.18205151 40.125 13.25 C38.76149571 16.89475185 37.123536 20.16244487 35.125 23.5 C34.609375 24.37140625 34.09375 25.2428125 33.5625 26.140625 C32.125 28.25 32.125 28.25 30.125 29.25 C28.09375 28.140625 28.09375 28.140625 25.625 26.5 C15.44024538 20.27034923 4.92282385 18.73760996 -6.875 20.25 C-14.36879365 22.30936314 -19.53905048 26.90912675 -23.875 33.25 C-29.46664732 43.25719169 -29.5060025 57.48642809 -27.19140625 68.50390625 C-26.27240225 70.9406015 -25.24285091 73.03680024 -23.875 75.25 C-23.43929687 75.97316406 -23.00359375 76.69632813 -22.5546875 77.44140625 C-18.59912518 83.30990444 -13.58122078 87.01459307 -6.875 89.25 C3.25121272 89.87462997 11.61928526 89.94101928 19.9375 83.5 C25.28572327 78.56598992 26.11047516 73.35167386 27.125 66.25 C17.885 66.25 8.645 66.25 -0.875 66.25 C-0.875 60.97 -0.875 55.69 -0.875 50.25 C15.625 50.25 32.125 50.25 49.125 50.25 C49.125 82.23969072 49.125 82.23969072 37.23046875 95.3359375 C28.55511945 103.73766725 17.19546031 109.31364553 5.125 110.25 C4.09761719 110.33121094 3.07023437 110.41242188 2.01171875 110.49609375 C-11.853424 111.04405748 -24.98219282 106.08400554 -35.37890625 96.8359375 C-47.32870978 84.16852174 -52.42375597 69.08471849 -52.125 51.90625 C-51.01966751 35.74076228 -44.90717266 22.75338576 -33.25 11.5625 C-23.97310715 3.78654693 -11.96645117 -0.1475005 0 0 Z " fill="#BF4848" transform="translate(162.875,597.75)"/>
<path d="M0 0 C2.65481842 3.31852303 5.0937826 6.5494221 7.44970703 10.06201172 C16.69838403 23.84646497 26.49655837 37.68028699 37.91015625 49.76953125 C39.72595103 51.70751035 41.45668508 53.68601947 43.1875 55.69921875 C47.23335162 60.34193737 51.56037636 64.6716361 55.9375 69 C56.71673828 69.77472656 57.49597656 70.54945313 58.29882812 71.34765625 C60.1969242 73.23410757 62.09733149 75.11816245 64 77 C62.51891127 80.4534417 60.57178301 82.64921326 57.89453125 85.265625 C56.66573242 86.47798828 56.66573242 86.47798828 55.41210938 87.71484375 C54.55423828 88.55144531 53.69636719 89.38804687 52.8125 90.25 C46.96176769 95.9793105 41.27298541 101.73090749 36 108 C35.48896729 108.60457031 34.97793457 109.20914063 34.45141602 109.83203125 C23.26355131 123.18638925 12.81041637 137.12398958 3.62597656 151.93798828 C2.77362983 153.30657383 1.89035128 154.6558289 1 156 C0.67 156 0.34 156 0 156 C0 104.52 0 53.04 0 0 Z " fill="#C8E8E8" transform="translate(208,194)"/>
<path d="M0 0 C0.75539063 0.35191406 1.51078125 0.70382812 2.2890625 1.06640625 C10.12724711 5.03792788 16.36985087 10.66960502 20.1171875 18.72265625 C21.32557581 23.20866419 21.50881232 27.49390908 21.5625 32.125 C21.57724365 32.97215576 21.5919873 33.81931152 21.60717773 34.69213867 C21.4549981 44.03523936 17.45683292 50.23674691 11.19921875 56.95703125 C2.19118438 65.32506318 -9.29248575 67.64098727 -21.25390625 67.33984375 C-31.66927842 66.3949664 -39.65504261 62.4233733 -47 55 C-54.79890035 45.29182529 -56.12047797 36.14633317 -55 24 C-53.25259018 15.45096335 -47.86429393 8.40415684 -40.76171875 3.43359375 C-38.55118518 2.15461491 -36.3232698 1.0579175 -34 0 C-32.845 -0.598125 -31.69 -1.19625 -30.5 -1.8125 C-21.41343547 -5.01199455 -8.61274634 -4.23828822 0 0 Z " fill="#BF4848" transform="translate(343,641)"/>
<path d="M0 0 C7.59 0 15.18 0 23 0 C28.61 12.21 34.22 24.42 40 37 C42.48445856 34.51554144 43.34371784 32.16554189 44.71484375 28.92578125 C44.97125137 28.3237236 45.227659 27.72166595 45.49183655 27.10136414 C46.31161371 25.17363939 47.12465527 23.24315668 47.9375 21.3125 C48.48067342 20.03171165 49.02428851 18.75111051 49.56835938 17.47070312 C50.57819866 15.09269326 51.58492063 12.71345542 52.58959961 10.33325195 C54.04902705 6.88413253 55.52233438 3.44133723 57 0 C61.62 0 66.24 0 71 0 C75.13436604 8.70855826 79.12089524 17.45977014 82.9375 26.3125 C83.3389624 27.23764404 83.7404248 28.16278809 84.15405273 29.1159668 C84.52473877 29.98133057 84.8954248 30.84669434 85.27734375 31.73828125 C85.60984131 32.51212158 85.94233887 33.28596191 86.28491211 34.08325195 C87 36 87 36 87 38 C87.66 38 88.32 38 89 38 C89.35835938 36.8140625 89.71671875 35.628125 90.0859375 34.40625 C92.15553482 28.19989 94.94530573 22.32461477 97.72558594 16.41308594 C98.63512536 14.47846299 99.53683539 12.54033081 100.4375 10.6015625 C104.84884542 1.15115458 104.84884542 1.15115458 106 0 C107.63472882 -0.08700342 109.27314055 -0.10701063 110.91015625 -0.09765625 C111.89951172 -0.09443359 112.88886719 -0.09121094 113.90820312 -0.08789062 C114.94912109 -0.07951172 115.99003906 -0.07113281 117.0625 -0.0625 C118.62967773 -0.05573242 118.62967773 -0.05573242 120.22851562 -0.04882812 C122.8190666 -0.03699913 125.40950559 -0.02051689 128 0 C126.32326079 4.48331246 124.19271808 8.66865625 122 12.9140625 C121.60772217 13.67774139 121.21544434 14.44142029 120.8112793 15.22824097 C119.54322633 17.69505696 118.27178628 20.16010695 117 22.625 C116.1314365 24.3118109 115.26294698 25.99865989 114.39453125 27.68554688 C109.9548576 36.30340492 105.50730786 44.91727538 101 53.5 C100.62230469 54.22010254 100.24460937 54.94020508 99.85546875 55.68212891 C98.91559322 57.46111615 97.95881629 59.23114926 97 61 C96.42378906 62.3312793 96.42378906 62.3312793 95.8359375 63.68945312 C94 66 94 66 90.64453125 66.48828125 C89.37996094 66.43027344 88.11539063 66.37226562 86.8125 66.3125 C85.54019531 66.26738281 84.26789063 66.22226562 82.95703125 66.17578125 C81.98121094 66.11777344 81.00539063 66.05976562 80 66 C79.69296143 65.26998779 79.38592285 64.53997559 79.06958008 63.7878418 C77.65216403 60.42038069 76.23234556 57.05393741 74.8125 53.6875 C74.08836914 51.96563477 74.08836914 51.96563477 73.34960938 50.20898438 C72.6293457 48.50258789 72.6293457 48.50258789 71.89453125 46.76171875 C71.45987549 45.73006592 71.02521973 44.69841309 70.57739258 43.63549805 C68.44849789 38.72892464 66.2132329 33.86911237 64 29 C58.72 41.21 53.44 53.42 48 66 C43.38 66 38.76 66 34 66 C33.45698242 64.93378418 32.91396484 63.86756836 32.35449219 62.76904297 C29.82350903 57.80239419 27.28785423 52.838141 24.75 47.875 C24.29514221 46.98540588 23.84028442 46.09581177 23.37164307 45.17926025 C17.54460296 33.79366802 11.66461484 22.45329396 5.42871094 11.28466797 C4.9959082 10.50752441 4.56310547 9.73038086 4.1171875 8.9296875 C3.56973877 7.95878174 3.56973877 7.95878174 3.01123047 6.96826172 C1.85489958 4.71757614 0.93974954 2.34937385 0 0 Z " fill="#BF4848" transform="translate(369,640)"/>
<path d="M0 0 C6.6 0 13.2 0 20 0 C20.33 16.83 20.66 33.66 21 51 C23.64 49.02 26.28 47.04 29 45 C32.28797942 43.73129513 35.50021557 43.34888817 39 43 C39.76570312 42.9175 40.53140625 42.835 41.3203125 42.75 C48.7713249 42.33461255 54.21207932 45.15892031 60.3125 49.1875 C63.73308894 52.7671861 65.24968013 56.43121635 67 61 C67.33 61.66 67.66 62.32 68 63 C68.08991092 64.54227856 68.11756961 66.08840895 68.11352539 67.63330078 C68.11341209 69.07456833 68.11341209 69.07456833 68.11329651 70.54495239 C68.10813522 71.58457123 68.10297394 72.62419006 68.09765625 73.6953125 C68.0962413 74.75789276 68.09482635 75.82047302 68.09336853 76.91525269 C68.08775834 80.31853009 68.07520409 83.72174238 68.0625 87.125 C68.05748631 89.42838447 68.05292318 91.73176997 68.04882812 94.03515625 C68.03778559 99.69012936 68.02051409 105.34505363 68 111 C61.4 111 54.8 111 48 111 C47.95101562 108.04933594 47.90203125 105.09867188 47.8515625 102.05859375 C47.7974787 99.18574156 47.7402003 96.31296948 47.68261719 93.44018555 C47.64444739 91.450989 47.60957402 89.46172626 47.578125 87.47241211 C47.53221303 84.6050661 47.47426253 81.73817112 47.4140625 78.87109375 C47.40251129 77.98852402 47.39096008 77.10595428 47.37905884 76.19664001 C47.2591267 71.12438607 46.78953814 66.77014207 45 62 C40.02469921 58.87316165 33.66404788 59.35671478 28 60 C24.25130194 62.09927091 22.64420155 64.11241186 21 68 C20.67797584 70.13633955 20.67797584 70.13633955 20.68115234 72.40136719 C20.66128265 73.2619574 20.64141296 74.12254761 20.62094116 75.00921631 C20.60361435 76.38910736 20.60361435 76.38910736 20.5859375 77.796875 C20.56657135 78.74564514 20.5472052 79.69441528 20.5272522 80.67193604 C20.46754341 83.69786633 20.42110567 86.72383484 20.375 89.75 C20.33681223 91.80340187 20.29776003 93.85678786 20.2578125 95.91015625 C20.16022418 100.94002084 20.08058628 105.96971927 20 111 C13.4 111 6.8 111 0 111 C0 74.37 0 37.74 0 0 Z " fill="#BF4949" transform="translate(563,595)"/>
<path d="M0 0 C1.32 0 2.64 0 4 0 C3.86722656 0.59167969 3.73445312 1.18335937 3.59765625 1.79296875 C2.68994822 5.85446525 1.7908887 9.91374171 1 14 C2.98 15.32 4.96 16.64 7 18 C11.18313239 16.10899495 14.43712913 13.34187164 17.9765625 10.4609375 C20 9 20 9 22 9 C22 12 22 12 20.35546875 13.75390625 C19.64003906 14.35074219 18.92460938 14.94757813 18.1875 15.5625 C17.47980469 16.16191406 16.77210938 16.76132813 16.04296875 17.37890625 C14 19 14 19 11 21 C11.4021875 21.7734375 11.4021875 21.7734375 11.8125 22.5625 C16 31.15789474 16 31.15789474 16 35 C16.59167969 34.855625 17.18335938 34.71125 17.79296875 34.5625 C21.92529941 33.59177306 25.7229762 32.72406298 30 33 C30 33.99 30 34.98 30 36 C28.58461283 36.33872513 27.16762037 36.67074624 25.75 37 C24.96109375 37.185625 24.1721875 37.37125 23.359375 37.5625 C21 38 21 38 17 38 C16.67 43.28 16.34 48.56 16 54 C19.3 55.98 22.6 57.96 26 60 C25.67 60.99 25.34 61.98 25 63 C21.20774749 61.5500211 17.62189716 59.83101449 14 58 C13.47599609 59.68029297 13.47599609 59.68029297 12.94140625 61.39453125 C12.48178595 62.86719222 12.0221497 64.33984821 11.5625 65.8125 C11.33240234 66.55048828 11.10230469 67.28847656 10.86523438 68.04882812 C9.9312816 71.04018411 8.99100896 74.02697312 8 77 C11.3 77.33 14.6 77.66 18 78 C18 78.99 18 79.98 18 81 C13.81998005 81.08196118 10.07787895 80.89445704 6 80 C5.51787786 81.56159059 5.03944127 83.12431928 4.5625 84.6875 C4.29566406 85.55761719 4.02882813 86.42773438 3.75390625 87.32421875 C3.03655471 89.87025921 2.482459 92.4003423 2 95 C2.5775 95.39832031 3.155 95.79664063 3.75 96.20703125 C4.86375 97.00173828 4.86375 97.00173828 6 97.8125 C6.7425 98.33457031 7.485 98.85664063 8.25 99.39453125 C8.8275 99.92433594 9.405 100.45414062 10 101 C10 101.99 10 102.98 10 104 C5.66265425 102.46917209 3.04042344 100.69361563 -1 98 C-4.96 104.6 -8.92 111.2 -13 118 C-9.7 118.66 -6.4 119.32 -3 120 C-3 120.99 -3 121.98 -3 123 C-7.571279 122.45144652 -11.67435795 121.58255197 -16 120 C-16.268125 120.5775 -16.53625 121.155 -16.8125 121.75 C-18 124 -18 124 -19.6875 125.9375 C-21.22330545 127.92675581 -21.22330545 127.92675581 -20.9375 130.375 C-19.77551015 133.62857158 -17.92477999 136.14387485 -16 139 C-16 139.99 -16 140.98 -16 142 C-20.55015893 140.48328036 -22.50057264 136.83108947 -25 133 C-25.94875 133.495 -26.8975 133.99 -27.875 134.5 C-31 136 -31 136 -33 136 C-33 136.66 -33 137.32 -33 138 C-34.32 138 -35.64 138 -37 138 C-37 137.34 -37 136.68 -37 136 C-38.98 136.33 -40.96 136.66 -43 137 C-43.09087891 138.26457031 -43.09087891 138.26457031 -43.18359375 139.5546875 C-43.26738281 140.65039062 -43.35117187 141.74609375 -43.4375 142.875 C-43.51871094 143.96554688 -43.59992187 145.05609375 -43.68359375 146.1796875 C-44 149 -44 149 -45 151 C-46.32 151 -47.64 151 -49 151 C-49 147.04 -49 143.08 -49 139 C-50.65 138.67 -52.3 138.34 -54 138 C-54 137.34 -54 136.68 -54 136 C-55.65697379 135.30959426 -57.3255761 134.6469365 -59 134 C-59.64453125 133.74605469 -60.2890625 133.49210938 -60.953125 133.23046875 C-63.09276916 132.75335862 -63.09276916 132.75335862 -64.78125 134.328125 C-65.3484375 134.96234375 -65.915625 135.5965625 -66.5 136.25 C-71.07556371 141.15868826 -71.07556371 141.15868826 -74 143 C-74.66 143 -75.32 143 -76 143 C-75.41457824 139.37363743 -73.97353457 137.54114586 -71.5 134.875 C-68.94538114 132.14762761 -68.94538114 132.14762761 -67 129 C-67.66 128.01 -68.32 127.02 -69 126 C-69.70812814 123.67891331 -70.38024152 121.34622853 -71 119 C-74.63 119 -78.26 119 -82 119 C-82.33 118.01 -82.66 117.02 -83 116 C-80.24921116 115.08307039 -78.64051087 114.89113917 -75.8125 114.9375 C-74.554375 114.958125 -73.29625 114.97875 -72 115 C-71.47023414 110.22556697 -71.19229453 105.75120867 -72 101 C-74.59808434 98.06259471 -77.40305703 96.49872624 -81 95 C-80.505 94.01 -80.505 94.01 -80 93 C-75.94718288 94.22527029 -72.55639236 95.69880494 -69 98 C-68.74476563 97.28457031 -68.48953125 96.56914062 -68.2265625 95.83203125 C-66.9123112 92.79753382 -65.30503984 90.36811089 -63.375 87.6875 C-62.42753906 86.36298828 -62.42753906 86.36298828 -61.4609375 85.01171875 C-60.97882812 84.34785156 -60.49671875 83.68398437 -60 83 C-60.62648438 82.93941406 -61.25296875 82.87882812 -61.8984375 82.81640625 C-63.12433594 82.69072266 -63.12433594 82.69072266 -64.375 82.5625 C-65.59316406 82.44068359 -65.59316406 82.44068359 -66.8359375 82.31640625 C-69 82 -69 82 -71 81 C-71 79.35 -71 77.7 -71 76 C-67.53058454 76.45822468 -64.32604951 76.89131683 -61 78 C-61 78.66 -61 79.32 -61 80 C-59.10183052 80.04232358 -59.10183052 80.04232358 -57 79 C-55.56357954 76.63808099 -54.38749171 74.43461163 -53.25 71.9375 C-52.93417969 71.27427734 -52.61835937 70.61105469 -52.29296875 69.92773438 C-51.51588722 68.29115358 -50.75624233 66.64631405 -50 65 C-53.26874082 62.99480605 -56.40056264 61.33693388 -60 60 C-60 58.68 -60 57.36 -60 56 C-57.8125 55.6875 -57.8125 55.6875 -55 56 C-52.3125 58.5 -52.3125 58.5 -50 61 C-49.34 61 -48.68 61 -48 61 C-47.18608745 58.41710408 -46.37382071 55.83371003 -45.5625 53.25 C-45.33240234 52.52039063 -45.10230469 51.79078125 -44.86523438 51.0390625 C-44.64287109 50.33007812 -44.42050781 49.62109375 -44.19140625 48.890625 C-43.98717041 48.24125977 -43.78293457 47.59189453 -43.57250977 46.92285156 C-42.98830273 44.96071312 -42.48189352 42.98950416 -42 41 C-42.93972656 40.90912109 -42.93972656 40.90912109 -43.8984375 40.81640625 C-44.71570313 40.73261719 -45.53296875 40.64882812 -46.375 40.5625 C-47.18710937 40.48128906 -47.99921875 40.40007812 -48.8359375 40.31640625 C-51 40 -51 40 -53 39 C-52.67 38.01 -52.34 37.02 -52 36 C-48.37 36.33 -44.74 36.66 -41 37 C-41.020625 36.05125 -41.04125 35.1025 -41.0625 34.125 C-41 31 -41 31 -40 29 C-39.34 29 -38.68 29 -38 29 C-37.731875 28.2575 -37.46375 27.515 -37.1875 26.75 C-36.05770579 24.13363446 -34.79106798 22.19812889 -33 20 C-34.17325643 17.12018877 -35.37938667 15.62061333 -37.625 13.375 C-38.40875 12.59125 -39.1925 11.8075 -40 11 C-40 10.34 -40 9.68 -40 9 C-36.64749299 9.57575664 -35.06181371 10.59306263 -32.75 13.0625 C-31.96882812 13.88427734 -31.96882812 13.88427734 -31.171875 14.72265625 C-30.78515625 15.14417969 -30.3984375 15.56570312 -30 16 C-26.2627488 14.78322054 -22.6558378 13.46233512 -19 12 C-19.495 6.555 -19.495 6.555 -20 1 C-19.01 1 -18.02 1 -17 1 C-16.01 4.63 -15.02 8.26 -14 12 C-12.01432292 11.96744792 -10.02864583 11.93489583 -8.04296875 11.90234375 C-6 12 -6 12 -3 13 C-2.01 8.71 -1.02 4.42 0 0 Z M-28.765625 28.07421875 C-30.83324941 31.29997455 -31.44359116 34.75390499 -32.234375 38.46875 C-37.17205774 61.24255201 -46.65592755 80.53031667 -60.25 99.29296875 C-63.21092113 103.87314362 -63.79337707 108.60319088 -63 114 C-60.9991707 120.14273295 -58.19168452 125.13081125 -52.37109375 128.22265625 C-46.33862421 130.20035219 -39.63780745 130.04734598 -33.75 127.625 C-20.0279328 119.47663844 -11.66666305 98.90886536 -5 85 C-4.4121875 83.9171875 -4.4121875 83.9171875 -3.8125 82.8125 C-2.86585532 80.70075417 -2.6273021 78.92685522 -2.4375 76.625 C-2.10634418 73.0473344 -1.63523235 69.53915168 -1 66 C-0.01 66 0.98 66 2 66 C4.26645225 61.75040202 4.0991254 58.05102217 4.015625 53.375 C3.99835821 50.75044777 4.1434739 48.4917123 5 46 C5.99 45.34 6.98 44.68 8 44 C8.75732516 37.72502008 7.65744365 33.17603136 4 28 C-0.66183227 23.00675785 -4.94481022 20.30051047 -11.8125 19.625 C-18.3987263 19.82345503 -24.3429231 23.28295836 -28.765625 28.07421875 Z " fill="#E0C438" transform="translate(709,91)"/>
<path d="M0 0 C3.53320099 1.52349033 5.95208388 3.6302951 8.75 6.25 C12.98185354 10.13652425 17.34192051 13.64544921 22 17 C15.83475115 24.55215896 8.80588431 31.25801302 1.87963867 38.09985352 C-4.30914972 44.21990773 -10.39782511 50.32822451 -16 57 C-16.91205035 58.05660293 -17.82477871 59.11262109 -18.73828125 60.16796875 C-38.54428985 83.40020645 -55.61204274 108.63788532 -70.61206055 135.21118164 C-71.04301025 135.97035889 -71.47395996 136.72953613 -71.91796875 137.51171875 C-72.29719482 138.18678467 -72.6764209 138.86185059 -73.06713867 139.55737305 C-73.52890503 140.27147339 -73.52890503 140.27147339 -74 141 C-74.33 141 -74.66 141 -75 141 C-75.22583905 135.33008856 -75.38732153 129.66290154 -75.49438477 123.98950195 C-75.53909745 122.06813871 -75.60009444 120.14707145 -75.67895508 118.22680664 C-76.2604393 103.68210008 -74.01598822 94.14097547 -66 82 C-64.9627478 80.33022095 -64.9627478 80.33022095 -63.90454102 78.62670898 C-61.99489442 75.60260809 -60.01755594 72.64047051 -58 69.6875 C-56.95646362 68.14280029 -56.95646362 68.14280029 -55.8918457 66.56689453 C-51.12454677 59.54813919 -46.24126895 52.67420303 -41 46 C-40.13323634 44.86785934 -39.26740522 43.73500432 -38.40234375 42.6015625 C-33.06268623 35.65120141 -27.47265125 29.05916206 -21.48046875 22.6640625 C-19.44923951 20.48249031 -17.49198434 18.2705312 -15.5625 16 C-10.69498959 10.36895854 -5.2987135 5.22040739 0 0 Z " fill="#FC798A" transform="translate(283,283)"/>
<path d="M0 0 C6.27 0 12.54 0 19 0 C19.03738281 2.96226562 19.07476562 5.92453125 19.11328125 8.9765625 C19.15953636 11.85603072 19.21075555 14.73537101 19.26245117 17.61474609 C19.29563713 19.61076029 19.32368868 21.60686689 19.34643555 23.60302734 C19.38009793 26.4779384 19.43241977 29.35200743 19.48828125 32.2265625 C19.49467117 33.11429352 19.5010611 34.00202454 19.50764465 34.91665649 C19.64787032 40.8703438 20.45854939 45.45317634 24.84765625 49.8515625 C28.9670043 52.04954494 33.46874173 51.4915035 38 51 C42.31870894 49.29051104 44.05069247 47.16346111 46 43 C46.46740762 39.70487882 46.4884967 36.42988206 46.51171875 33.10546875 C46.52966995 32.15811356 46.54762115 31.21075836 46.56611633 30.23469543 C46.62015087 27.21900843 46.65409327 24.2034791 46.6875 21.1875 C46.7206791 19.13864997 46.75516931 17.08982072 46.79101562 15.04101562 C46.8783339 10.02732191 46.93846132 5.01434125 47 0 C53.6 0 60.2 0 67 0 C67 21.78 67 43.56 67 66 C60.4 66 53.8 66 47 66 C46.505 63.03 46.505 63.03 46 60 C44.7625 61.1446875 44.7625 61.1446875 43.5 62.3125 C38.84247211 66.16097375 33.861739 68.11298023 27.8125 68.375 C24 68 24 68 19 65 C19 71.93 19 78.86 19 86 C11.41 86 3.82 86 -4 86 C-4.24647545 79.18084575 -4.07931976 72.94092934 -2.95137024 66.2363739 C-0.64457828 52.41263003 -0.44765329 38.67246277 -0.3125 24.6875 C-0.27922603 22.27797747 -0.24472763 19.86847154 -0.20898438 17.45898438 C-0.1252597 11.63941678 -0.05792039 5.81987924 0 0 Z " fill="#BF4747" transform="translate(22,640)"/>
<path d="M0 0 C1.32 0.33 2.64 0.66 4 1 C3.649375 2.175625 3.29875 3.35125 2.9375 4.5625 C2.52105741 6.76835617 2.52105741 6.76835617 3 9 C6.10918181 12.42140091 9.87511603 14.93755801 14 17 C15.99021521 16.90276549 15.99021521 16.90276549 18.125 16.5625 C19.40375 16.376875 20.6825 16.19125 22 16 C21.67 17.65 21.34 19.3 21 21 C19.02 21.495 19.02 21.495 17 22 C17.2165625 22.67546875 17.433125 23.3509375 17.65625 24.046875 C18.07390625 25.38492187 18.07390625 25.38492187 18.5 26.75 C18.7784375 27.63171875 19.056875 28.5134375 19.34375 29.421875 C20 32 20 32 20 36 C21.98 36 23.96 36 26 36 C26 37.65 26 39.3 26 41 C24.02 41 22.04 41 20 41 C19.855625 42.19625 19.71125 43.3925 19.5625 44.625 C19.12960657 48.1005158 18.60383744 51.54950034 18 55 C19.65 55.66 21.3 56.32 23 57 C23 58.65 23 60.3 23 62 C19.53058454 61.54177532 16.32604951 61.10868317 13 60 C10.92776981 61.36148032 10.92776981 61.36148032 8.9375 63.3125 C8.24527344 63.94800781 7.55304688 64.58351563 6.83984375 65.23828125 C5.5456706 66.47750012 4.26699399 67.73300601 3 69 C4.65 70.32 6.3 71.64 8 73 C7.67 74.32 7.34 75.64 7 77 C1.46153846 76.38461538 1.46153846 76.38461538 -0.875 74.4375 C-1.24625 73.963125 -1.6175 73.48875 -2 73 C-5.36591866 74.44253657 -7.51047079 76.33264727 -10 79 C-8.84826645 81.46800047 -7.95216435 83.04783565 -6 85 C-6.375 87.625 -6.375 87.625 -7 90 C-10.32812571 89.42618522 -11.69842455 88.40619252 -14 86 C-14.66 86 -15.32 86 -16 86 C-17.40637961 87.64301434 -17.40637961 87.64301434 -18.6875 89.75 C-19.14511719 90.44609375 -19.60273437 91.1421875 -20.07421875 91.859375 C-21.17680634 94.40881802 -21.00198126 95.4535283 -20 98 C-19.67 98.33 -19.34 98.66 -19 99 C-18.95936168 100.66617115 -18.957279 102.33388095 -19 104 C-22.37462715 103.45276317 -24.08235 102.9451 -27 101 C-27.928125 101.763125 -28.85625 102.52625 -29.8125 103.3125 C-34.4281787 106.65554301 -39.50653349 107.77812589 -45 109 C-45.33 110.65 -45.66 112.3 -46 114 C-47.32 114 -48.64 114 -50 114 C-50.309375 112.7934375 -50.309375 112.7934375 -50.625 111.5625 C-51.07875 110.716875 -51.5325 109.87125 -52 109 C-55.05272465 108.10169161 -55.05272465 108.10169161 -58 108 C-58.04125 108.66 -58.0825 109.32 -58.125 110 C-60.76641486 119.05627953 -69.54123082 126.11491406 -77.1875 131.0625 C-83.83794588 135.64391827 -87.14026956 141.58152281 -90 149 C-91.32 149 -92.64 149 -94 149 C-94.91303601 142.00005725 -92.2028939 137.49741974 -88 132 C-83.95993782 127.79625206 -79.45277418 124.30003931 -74.75 120.875 C-69.25440785 116.82446396 -65.775673 112.77984237 -64 106 C-67.58377526 102.9748672 -67.58377526 102.9748672 -71.94140625 102.1796875 C-83.33326868 106.71913932 -90.16602184 120.92035744 -95.0625 131.375 C-98.90558775 139.33719838 -104.79886616 145.54689101 -113 149 C-116.03532092 149.29185778 -118.96350056 149.24787751 -122 149 C-122.33 147.68 -122.66 146.36 -123 145 C-122.41992188 144.82984375 -121.83984375 144.6596875 -121.2421875 144.484375 C-112.18082137 141.67325811 -105.72309109 137.21500727 -100.80102539 128.99853516 C-99.7064704 126.91089722 -98.65917425 124.80565361 -97.625 122.6875 C-92.50934376 112.66397386 -86.32345207 103.60958339 -77 97 C-76.34 97 -75.68 97 -75 97 C-75.66 95.68 -76.32 94.36 -77 93 C-83.03611362 93.30180568 -86.77497211 95.91765598 -91 100 C-93.1735179 102.74401613 -95.18489327 105.55873074 -97.17578125 108.4375 C-99.23622043 111.33182142 -101.38351718 113.61438331 -104 116 C-104.99 116.99 -104.99 116.99 -106 118 C-108.125 117.625 -108.125 117.625 -110 117 C-109.48655293 112.75103949 -108.25464941 110.75293948 -105.3125 107.6875 C-102.64572727 104.83092138 -100.1971652 102.0004601 -97.9375 98.8125 C-93.67532739 93.01409716 -88.68099016 88.79669355 -82 86 C-81.34 86 -80.68 86 -80 86 C-80.16242187 85.47535156 -80.32484375 84.95070313 -80.4921875 84.41015625 C-81.13084474 81.37899071 -81.13204556 78.53402247 -81.125 75.4375 C-81.12886719 73.73400391 -81.12886719 73.73400391 -81.1328125 71.99609375 C-81 69 -81 69 -80 66 C-82.31 65.34 -84.62 64.68 -87 64 C-87 62.68 -87 61.36 -87 60 C-83.37 60.33 -79.74 60.66 -76 61 C-75.67 59.35 -75.34 57.7 -75 56 C-73.4375 53.6875 -73.4375 53.6875 -72 52 C-73.15173355 49.53199953 -74.04783565 47.95216435 -76 46 C-75.625 43.375 -75.625 43.375 -75 41 C-71.51460083 41.64544429 -68.97180943 43.10134397 -66 45 C-65.773125 44.443125 -65.54625 43.88625 -65.3125 43.3125 C-64 41 -64 41 -61.3125 38.5 C-60.1678125 37.2625 -60.1678125 37.2625 -59 36 C-59.00469206 33.89768759 -59.00469206 33.89768759 -60 32 C-60.33333333 30.66666667 -60.66666667 29.33333333 -61 28 C-58.6875 27.375 -58.6875 27.375 -56 27 C-55.01 27.66 -54.02 28.32 -53 29 C-49.96782164 26.93652632 -47.29122219 24.88099009 -45 22 C-44.59869742 18.78957935 -45.10308643 16.09014754 -46 13 C-44.68 12.67 -43.36 12.34 -42 12 C-41.01 13.32 -40.02 14.64 -39 16 C-35.4213696 14.34832443 -32.25179812 12.21713508 -29 10 C-29.495 6.535 -29.495 6.535 -30 3 C-28.68 2.34 -27.36 1.68 -26 1 C-23 4.75 -23 4.75 -23 7 C-22.14664063 6.82855469 -21.29328125 6.65710938 -20.4140625 6.48046875 C-16.942813 5.99195194 -13.86673878 6.10397696 -10.375 6.3125 C-6.00389779 6.5257775 -6.00389779 6.5257775 -2.26953125 4.66796875 C-1.01680175 2.8569706 -1.01680175 2.8569706 0 0 Z M-65 51 C-71.33069611 60.01589987 -77.68848975 69.54103588 -76 81 C-73.66276803 89.60946465 -69.4138798 96.03540482 -61.9375 100.9375 C-54.89868181 104.53406309 -46.66547426 103.99103697 -39.1875 101.9375 C-30.4868275 98.47628357 -26.0090042 91.72633084 -21.1015625 84.109375 C-14.92898095 74.97670787 -7.44781488 68.44747513 1.46679688 62.14648438 C8.21959921 57.33817164 12.5088989 51.98169129 15 44 C16.15303817 36.75892027 14.65239644 30.31431249 11 24 C6.27540496 17.68602506 0.69738703 13.79086606 -7 12 C-29.98508896 8.80762653 -52.33127211 33.95152619 -65 51 Z " fill="#090D0E" transform="translate(731,301)"/>
<path d="M0 0 C6.6 0 13.2 0 20 0 C20 8.25 20 16.5 20 25 C24.62 25 29.24 25 34 25 C34 29.95 34 34.9 34 40 C29.38 40 24.76 40 20 40 C20.09684617 44.52118714 20.19951359 49.04143731 20.31738281 53.56201172 C20.35570301 55.10034021 20.39055056 56.63875925 20.421875 58.17724609 C20.46746059 60.38672276 20.5254634 62.59557448 20.5859375 64.8046875 C20.59748871 65.49432587 20.60903992 66.18396423 20.62094116 66.89450073 C20.64951022 70.8920154 20.64951022 70.8920154 23 74 C25.21072977 74.24253813 25.21072977 74.24253813 27.625 74.125 C28.44226563 74.10695313 29.25953125 74.08890625 30.1015625 74.0703125 C30.72804688 74.04710937 31.35453125 74.02390625 32 74 C32.69821417 76.10063576 33.38324472 78.20565737 34.0625 80.3125 C34.44535156 81.48425781 34.82820312 82.65601563 35.22265625 83.86328125 C36 87 36 87 35 90 C28.61144605 93.08019565 20.6644987 94.56605913 13.8359375 92.2734375 C8.01610974 89.59239325 4.09241939 86.3844154 1.375 80.453125 C-1.03743691 72.89486922 -0.31271915 64.77590347 -0.1875 56.9375 C-0.17242751 55.29232994 -0.15874364 53.64714655 -0.14648438 52.00195312 C-0.11367782 48.00096859 -0.06203766 44.00063369 0 40 C-2.97 40 -5.94 40 -9 40 C-9 35.05 -9 30.1 -9 25 C-6.03 25 -3.06 25 0 25 C0 16.75 0 8.5 0 0 Z " fill="#BF4848" transform="translate(510,615)"/>
<path d="M0 0 C11.17585403 0 21.47916502 1.66671116 29.765625 9.71484375 C37.50877693 17.92974233 39.61497115 25.15769141 39.46850586 36.26293945 C39.06565965 46.38878933 36.22866609 53.74559495 29.15234375 61.125 C26.03404939 63.84148147 22.83632492 65.52213431 19 67 C16.525 67.99 16.525 67.99 14 69 C9.38 69 4.76 69 0 69 C0 46.23 0 23.46 0 0 Z " fill="#C9E7E7" transform="translate(676,618)"/>
<path d="M0 0 C-1.6658292 6.16356805 -4.87805286 11.48259656 -8 17 C-8.99 16.67 -9.98 16.34 -11 16 C-16.45231794 14.47995985 -21.01341228 14.00670614 -26.25 16.625 C-29.68850816 19.59462068 -32.5276332 22.45237439 -33.38562012 27.07977295 C-33.5566426 29.50541357 -33.60583511 31.90429347 -33.609375 34.3359375 C-33.62591125 35.21528961 -33.64244751 36.09464172 -33.65948486 37.00064087 C-33.70782914 39.79216592 -33.72930535 42.58314676 -33.75 45.375 C-33.77817108 47.27476676 -33.8081001 49.17450832 -33.83984375 51.07421875 C-33.91687546 55.71639286 -33.95751938 60.35686854 -34 65 C-40.27 65 -46.54 65 -53 65 C-53 43.22 -53 21.44 -53 -1 C-46.73 -1 -40.46 -1 -34 -1 C-33.67 1.64 -33.34 4.28 -33 7 C-32.11248047 6.16855469 -32.11248047 6.16855469 -31.20703125 5.3203125 C-30.41683594 4.59585938 -29.62664062 3.87140625 -28.8125 3.125 C-28.03519531 2.40570312 -27.25789063 1.68640625 -26.45703125 0.9453125 C-18.37196562 -5.45590004 -8.93827333 -3.62712541 0 0 Z " fill="#BF4747" transform="translate(283,641)"/>
<path d="M0 0 C1.32 0 2.64 0 4 0 C3.86722656 0.59167969 3.73445312 1.18335937 3.59765625 1.79296875 C2.68994822 5.85446525 1.7908887 9.91374171 1 14 C2.98 15.32 4.96 16.64 7 18 C11.18313239 16.10899495 14.43712913 13.34187164 17.9765625 10.4609375 C20 9 20 9 22 9 C22 12 22 12 20.35546875 13.75390625 C19.64003906 14.35074219 18.92460938 14.94757813 18.1875 15.5625 C17.47980469 16.16191406 16.77210938 16.76132813 16.04296875 17.37890625 C14 19 14 19 11 21 C11.4021875 21.7734375 11.4021875 21.7734375 11.8125 22.5625 C16 31.15789474 16 31.15789474 16 35 C16.59167969 34.855625 17.18335938 34.71125 17.79296875 34.5625 C21.92529941 33.59177306 25.7229762 32.72406298 30 33 C30 33.99 30 34.98 30 36 C28.58461283 36.33872513 27.16762037 36.67074624 25.75 37 C24.96109375 37.185625 24.1721875 37.37125 23.359375 37.5625 C21 38 21 38 17 38 C16.67 43.28 16.34 48.56 16 54 C19.3 55.98 22.6 57.96 26 60 C25.67 60.99 25.34 61.98 25 63 C21.20774749 61.5500211 17.62189716 59.83101449 14 58 C13.47599609 59.68029297 13.47599609 59.68029297 12.94140625 61.39453125 C12.48178595 62.86719222 12.0221497 64.33984821 11.5625 65.8125 C11.33240234 66.55048828 11.10230469 67.28847656 10.86523438 68.04882812 C9.9312816 71.04018411 8.99100896 74.02697312 8 77 C11.3 77.33 14.6 77.66 18 78 C18 78.99 18 79.98 18 81 C13.81998005 81.08196118 10.07787895 80.89445704 6 80 C5.51787786 81.56159059 5.03944127 83.12431928 4.5625 84.6875 C4.29566406 85.55761719 4.02882813 86.42773438 3.75390625 87.32421875 C3.03655471 89.87025921 2.482459 92.4003423 2 95 C2.5775 95.39832031 3.155 95.79664063 3.75 96.20703125 C4.86375 97.00173828 4.86375 97.00173828 6 97.8125 C6.7425 98.33457031 7.485 98.85664063 8.25 99.39453125 C8.8275 99.92433594 9.405 100.45414062 10 101 C10 101.99 10 102.98 10 104 C5.66265425 102.46917209 3.04042344 100.69361563 -1 98 C-4.96 104.6 -8.92 111.2 -13 118 C-9.7 118.66 -6.4 119.32 -3 120 C-3 120.99 -3 121.98 -3 123 C-7.571279 122.45144652 -11.67435795 121.58255197 -16 120 C-16.268125 120.5775 -16.53625 121.155 -16.8125 121.75 C-18 124 -18 124 -19.6875 125.9375 C-21.22330545 127.92675581 -21.22330545 127.92675581 -20.9375 130.375 C-19.77551015 133.62857158 -17.92477999 136.14387485 -16 139 C-16 139.99 -16 140.98 -16 142 C-20.55015893 140.48328036 -22.50057264 136.83108947 -25 133 C-25.81404297 133.433125 -25.81404297 133.433125 -26.64453125 133.875 C-27.35996094 134.24625 -28.07539062 134.6175 -28.8125 135 C-29.52019531 135.37125 -30.22789062 135.7425 -30.95703125 136.125 C-33 137 -33 137 -36 137 C-36 136.01 -36 135.02 -36 134 C-34.845 133.525625 -33.69 133.05125 -32.5 132.5625 C-12.77577709 122.52736905 -0.22215179 90.13591321 6.23730469 70.38378906 C6.48899414 69.59713867 6.74068359 68.81048828 7 68 C7.2568457 67.20561523 7.51369141 66.41123047 7.77832031 65.59277344 C11.45598393 53.92716779 14.93227631 40.96797345 10.99609375 28.9296875 C7.68457542 22.60855565 2.75804087 18.31005418 -4 16 C-13.2398263 14.76456255 -20.72411847 15.8099321 -28.6875 20.625 C-34.97515631 27.08259297 -37.02063161 34.97522104 -38.875 43.5625 C-43.02882382 61.3131196 -50.32567741 77.2460256 -61.3125 91.875 C-66.99851316 99.53827117 -69.42210065 106.3404484 -68 116 C-65.33033096 124.03182481 -61.32884466 128.5132169 -54.0625 132.6875 C-50.72983002 134.11578713 -47.505832 135.08848368 -44 136 C-44.14133499 137.77119803 -44.28823208 139.54195287 -44.4375 141.3125 C-44.51871094 142.29863281 -44.59992187 143.28476563 -44.68359375 144.30078125 C-45 147 -45 147 -46 150 C-46.66 150 -47.32 150 -48 150 C-48.14285714 141.42857143 -48.14285714 141.42857143 -47 138 C-48.010625 137.9175 -49.02125 137.835 -50.0625 137.75 C-53.11440584 137.34843344 -55.10543142 136.47240123 -57.6875 134.8125 C-58.780625 134.214375 -59.87375 133.61625 -61 133 C-65.4658576 134.46436471 -68.61428908 138.18144595 -71.9765625 141.3203125 C-74 143 -74 143 -76 143 C-75.41457824 139.37363743 -73.97353457 137.54114586 -71.5 134.875 C-68.94538114 132.14762761 -68.94538114 132.14762761 -67 129 C-67.66 128.01 -68.32 127.02 -69 126 C-69.70812814 123.67891331 -70.38024152 121.34622853 -71 119 C-74.63 119 -78.26 119 -82 119 C-82.33 118.01 -82.66 117.02 -83 116 C-80.24921116 115.08307039 -78.64051087 114.89113917 -75.8125 114.9375 C-74.554375 114.958125 -73.29625 114.97875 -72 115 C-71.47023414 110.22556697 -71.19229453 105.75120867 -72 101 C-74.59808434 98.06259471 -77.40305703 96.49872624 -81 95 C-80.505 94.01 -80.505 94.01 -80 93 C-75.94718288 94.22527029 -72.55639236 95.69880494 -69 98 C-68.74476563 97.28457031 -68.48953125 96.56914062 -68.2265625 95.83203125 C-66.9123112 92.79753382 -65.30503984 90.36811089 -63.375 87.6875 C-62.42753906 86.36298828 -62.42753906 86.36298828 -61.4609375 85.01171875 C-60.97882812 84.34785156 -60.49671875 83.68398437 -60 83 C-60.62648438 82.93941406 -61.25296875 82.87882812 -61.8984375 82.81640625 C-63.12433594 82.69072266 -63.12433594 82.69072266 -64.375 82.5625 C-65.59316406 82.44068359 -65.59316406 82.44068359 -66.8359375 82.31640625 C-69 82 -69 82 -71 81 C-71 79.35 -71 77.7 -71 76 C-67.53058454 76.45822468 -64.32604951 76.89131683 -61 78 C-61 78.66 -61 79.32 -61 80 C-59.10183052 80.04232358 -59.10183052 80.04232358 -57 79 C-55.56357954 76.63808099 -54.38749171 74.43461163 -53.25 71.9375 C-52.93417969 71.27427734 -52.61835937 70.61105469 -52.29296875 69.92773438 C-51.51588722 68.29115358 -50.75624233 66.64631405 -50 65 C-53.26874082 62.99480605 -56.40056264 61.33693388 -60 60 C-60 58.68 -60 57.36 -60 56 C-57.8125 55.6875 -57.8125 55.6875 -55 56 C-52.3125 58.5 -52.3125 58.5 -50 61 C-49.34 61 -48.68 61 -48 61 C-47.18608745 58.41710408 -46.37382071 55.83371003 -45.5625 53.25 C-45.33240234 52.52039063 -45.10230469 51.79078125 -44.86523438 51.0390625 C-44.64287109 50.33007812 -44.42050781 49.62109375 -44.19140625 48.890625 C-43.98717041 48.24125977 -43.78293457 47.59189453 -43.57250977 46.92285156 C-42.98830273 44.96071312 -42.48189352 42.98950416 -42 41 C-42.93972656 40.90912109 -42.93972656 40.90912109 -43.8984375 40.81640625 C-44.71570313 40.73261719 -45.53296875 40.64882812 -46.375 40.5625 C-47.18710937 40.48128906 -47.99921875 40.40007812 -48.8359375 40.31640625 C-51 40 -51 40 -53 39 C-52.67 38.01 -52.34 37.02 -52 36 C-48.37 36.33 -44.74 36.66 -41 37 C-41.020625 36.05125 -41.04125 35.1025 -41.0625 34.125 C-41 31 -41 31 -40 29 C-39.34 29 -38.68 29 -38 29 C-37.731875 28.2575 -37.46375 27.515 -37.1875 26.75 C-36.05770579 24.13363446 -34.79106798 22.19812889 -33 20 C-34.17325643 17.12018877 -35.37938667 15.62061333 -37.625 13.375 C-38.40875 12.59125 -39.1925 11.8075 -40 11 C-40 10.34 -40 9.68 -40 9 C-36.64749299 9.57575664 -35.06181371 10.59306263 -32.75 13.0625 C-31.96882812 13.88427734 -31.96882812 13.88427734 -31.171875 14.72265625 C-30.78515625 15.14417969 -30.3984375 15.56570312 -30 16 C-26.2627488 14.78322054 -22.6558378 13.46233512 -19 12 C-19.495 6.555 -19.495 6.555 -20 1 C-19.01 1 -18.02 1 -17 1 C-16.01 4.63 -15.02 8.26 -14 12 C-12.01432292 11.96744792 -10.02864583 11.93489583 -8.04296875 11.90234375 C-6 12 -6 12 -3 13 C-2.01 8.71 -1.02 4.42 0 0 Z " fill="#0D0D09" transform="translate(709,91)"/>
<path d="M0 0 C6.75052532 4.02304034 11.16945274 9.37959627 13.6875 16.8203125 C15.76778254 25.24417266 14.23506297 31.1255929 10.0703125 38.703125 C7.60241057 42.48209983 4.97734446 44.79597122 1.3203125 47.3828125 C-9.09881287 55.06573807 -17.68829779 62.6112529 -24.8046875 73.6328125 C-29.38043678 80.66340162 -33.84448119 85.58245638 -42.09765625 87.90234375 C-49.54489079 89.28813777 -56.34093108 89.6281229 -63.1171875 85.8828125 C-69.99356607 81.12739485 -74.79684056 74.58331117 -76.6796875 66.3828125 C-78.24944464 55.70458801 -72.96199379 47.08604523 -67.06640625 38.5859375 C-52.79960534 19.43900338 -26.80367304 -12.32451847 0 0 Z M-30.6796875 10.3828125 C-31.50597656 10.90746094 -32.33226562 11.43210937 -33.18359375 11.97265625 C-35.2098661 13.33921202 -37.00137898 14.60577995 -38.6796875 16.3828125 C-38.8446875 17.4346875 -39.0096875 18.4865625 -39.1796875 19.5703125 C-39.3446875 20.4984375 -39.5096875 21.4265625 -39.6796875 22.3828125 C-41.68147192 23.33668293 -43.69946334 23.9071312 -45.82421875 24.53515625 C-46.43652344 24.81488281 -47.04882812 25.09460938 -47.6796875 25.3828125 C-48.40662654 27.36170211 -49.07785001 29.36235808 -49.6796875 31.3828125 C-50.58203125 31.63546875 -51.484375 31.888125 -52.4140625 32.1484375 C-56.80277216 33.80732775 -58.28550905 36.25181015 -60.8046875 40.0703125 C-61.22105469 40.67037109 -61.63742187 41.27042969 -62.06640625 41.88867188 C-67.4060183 49.68048821 -71.93118766 56.54959696 -70.6796875 66.3828125 C-68.51156545 73.35737378 -63.93122003 77.77472952 -57.8203125 81.5234375 C-52.34117539 83.72309108 -44.94875232 83.30665522 -39.4921875 81.1328125 C-33.78487356 77.79568472 -30.41061544 71.65977565 -26.6796875 66.3828125 C-19.43418875 56.86671731 -11.6005445 49.07325465 -1.8046875 42.1953125 C3.62072829 38.34081512 6.93789149 35.05828692 8.3203125 28.3828125 C9.06954638 21.84851044 8.14631227 16.79606913 4.3203125 11.3828125 C-0.75797147 6.30452853 -6.16848027 3.34522701 -13.3671875 2.7578125 C-20.17331041 2.96500041 -25.200929 6.66266784 -30.6796875 10.3828125 Z " fill="#BEE7F2" transform="translate(731.6796875,315.6171875)"/>
<path d="M0 0 C6.55632939 3.65641447 10.95929184 7.60388732 13.25 14.8125 C14.16465314 20.78343792 13.2145553 25.49674566 10.25 30.8125 C6.64673198 35.07090766 2.14524227 38.33038724 -2.20703125 41.7890625 C-3.04621094 42.45679688 -3.88539063 43.12453125 -4.75 43.8125 C-5.43449219 44.35648437 -6.11898437 44.90046875 -6.82421875 45.4609375 C-14.79123802 52.08665332 -21.06485097 60.2909481 -26.875 68.8125 C-30.24651229 73.46679884 -33.04940216 76.49546533 -38.75 77.8125 C-45.69513379 78.76980223 -51.31322737 78.53883578 -57.06640625 74.3046875 C-62.35601468 69.61644986 -65.47466025 65.171645 -66.0625 58 C-65.83968441 50.38609827 -62.18721445 44.46138509 -57.75 38.5625 C-57.31171875 37.964375 -56.8734375 37.36625 -56.421875 36.75 C-55.20768544 35.09694674 -53.97934073 33.4543169 -52.75 31.8125 C-52.151875 31.01328125 -51.55375 30.2140625 -50.9375 29.390625 C-50.545625 28.86984375 -50.15375 28.3490625 -49.75 27.8125 C-48.1 28.1425 -46.45 28.4725 -44.75 28.8125 C-45.2845952 33.18360191 -46.8169096 35.61281234 -49.5 39.0625 C-56.63883798 47.84394366 -56.63883798 47.84394366 -58.8125 58.5 C-58.04498696 62.64167414 -56.5068631 65.5830318 -53.75 68.8125 C-49.30460452 71.58612282 -44.82695503 71.31024069 -39.75 70.8125 C-33.31863643 68.56900108 -29.33227927 61.23536514 -25.75 55.75 C-18.8254001 45.5794939 -9.38275926 38.23773058 0.59375 31.19921875 C3.65211096 28.63856276 5.09379058 26.43733768 6.0625 22.5625 C6.27685412 18.27541764 6.00662422 14.75419337 4.25 10.8125 C0.55266684 7.11516684 -2.42868723 6.02910865 -7.5625 5.1875 C-14.91512458 5.1875 -21.07173809 10.63486773 -26.75 14.8125 C-27.41 15.4725 -28.07 16.1325 -28.75 16.8125 C-31.375 16.9375 -31.375 16.9375 -33.75 16.8125 C-34.05859375 14.5625 -34.05859375 14.5625 -33.75 11.8125 C-30.49672567 8.60179187 -26.5848251 6.282725 -22.75 3.8125 C-21.96367188 3.27625 -21.17734375 2.74 -20.3671875 2.1875 C-13.58082998 -2.09349973 -7.59942486 -2.40648454 0 0 Z " fill="#0B0B09" transform="translate(726.75,320.1875)"/>
<path d="M0 0 C4.05523038 2.85709413 7.51585617 6.46921234 9.75 10.9375 C10.28167861 17.1949482 10.42880464 22.60957604 6.75 27.9375 C3.03029116 32.24453129 0.16657345 34.50008402 -5.5078125 35.2265625 C-11.0586479 35.5490881 -14.95086329 34.82868521 -19.48828125 31.54296875 C-24.06052934 27.37624155 -26.51081032 23.1766443 -26.875 16.9375 C-26.51081032 10.6983557 -24.06052934 6.49875845 -19.48828125 2.33203125 C-13.35412793 -2.10994185 -7.07801952 -2.31396792 0 0 Z " fill="#C9E7E7" transform="translate(334.25,656.0625)"/>
<path d="M0 0 C4.59366202 3.24593473 8.54162721 7.80504656 9.890625 13.3359375 C10.0317353 16.02711251 9.9821249 18.63669032 9.890625 21.3359375 C7.953125 21.8984375 7.953125 21.8984375 5.890625 22.3359375 C4.28859884 20.73391134 4.73323338 18.8611164 4.640625 16.6484375 C4.15367108 11.24556779 2.84079098 9.0105105 -1.109375 5.3359375 C-4.22364266 3.4276203 -6.78532419 2.95938477 -10.421875 2.8359375 C-11.32550781 2.784375 -12.22914063 2.7328125 -13.16015625 2.6796875 C-17.57932891 3.66302658 -20.29784529 5.81488058 -23.109375 9.3359375 C-24.46956189 12.42442395 -25.10860616 15.52955686 -25.734375 18.8359375 C-26.13162913 20.63524583 -26.53399996 22.4334319 -26.94140625 24.23046875 C-27.13557129 25.10525879 -27.32973633 25.98004883 -27.52978516 26.88134766 C-28.8709552 32.56126492 -30.90803745 37.94205241 -33.109375 43.3359375 C-33.36493164 43.96999512 -33.62048828 44.60405273 -33.88378906 45.25732422 C-38.90629671 57.47559694 -45.98142814 67.85319938 -53.83764648 78.42919922 C-56.43301445 82.3205073 -56.48322406 85.77497898 -56.109375 90.3359375 C-54.76160572 94.32797152 -53.06064254 97.44062687 -49.984375 100.3359375 C-44.63270103 102.19738931 -39.43805623 102.19852492 -34.125 100.23046875 C-30.37009025 97.87149047 -28.31120959 95.24489077 -25.796875 91.6484375 C-25.32612549 90.98996826 -24.85537598 90.33149902 -24.37036133 89.65307617 C-16.82302271 78.88224926 -10.81935959 67.15896441 -5.109375 55.3359375 C-3.789375 55.3359375 -2.469375 55.3359375 -1.109375 55.3359375 C-1.7369424 59.93220575 -3.5864274 63.75044308 -5.671875 67.8359375 C-6.02902588 68.54008789 -6.38617676 69.24423828 -6.75415039 69.96972656 C-23.26340056 102.05394602 -23.26340056 102.05394602 -36.109375 106.3359375 C-43.51255926 107.21409299 -49.2397173 106.8832007 -55.26171875 102.23828125 C-59.36019785 98.0184941 -61.25240345 93.0550651 -61.546875 87.2109375 C-60.78867752 80.49547411 -57.92147339 75.76784947 -53.984375 70.3984375 C-41.75626624 53.09351369 -33.26500514 34.10898541 -29.77734375 13.078125 C-28.22944439 6.72359077 -24.19101358 3.08208977 -19.109375 -0.6640625 C-12.74303786 -4.2553296 -6.16211142 -3.42069965 0 0 Z " fill="#130D04" transform="translate(707.109375,113.6640625)"/>
<path d="M0 0 C2.805 -0.0825 5.61 -0.165 8.5 -0.25 C9.8003418 -0.30462402 9.8003418 -0.30462402 11.12695312 -0.36035156 C17.62231212 -0.45162814 22.71454604 1.13729247 27.66210938 5.44824219 C30.49523332 8.73425237 30.34868686 12.59779966 30.26171875 16.71875 C29.82597469 20.5168773 28.66331989 22.27326773 26 25 C17.93752346 30.23897767 9.21004781 29.31220501 0 29 C0 19.43 0 9.86 0 0 Z " fill="#C9E5E5" transform="translate(774,661)"/>
<path d="M0 0 C0.99 0.66 1.98 1.32 3 2 C1.95863415 23.52156086 -7.58068634 43.74369049 -20 61 C-25.97233668 69.52812599 -29.40645569 76.29933711 -28 87 C-25.34962454 95.03075139 -21.31806241 99.51941096 -14.0625 103.6875 C-10.72983002 105.11578713 -7.505832 106.08848368 -4 107 C-4.14133499 108.77119803 -4.28823208 110.54195287 -4.4375 112.3125 C-4.51871094 113.29863281 -4.59992187 114.28476563 -4.68359375 115.30078125 C-5 118 -5 118 -6 121 C-6.66 121 -7.32 121 -8 121 C-8.14285714 112.42857143 -8.14285714 112.42857143 -7 109 C-8.010625 108.9175 -9.02125 108.835 -10.0625 108.75 C-13.11440584 108.34843344 -15.10543142 107.47240123 -17.6875 105.8125 C-18.780625 105.214375 -19.87375 104.61625 -21 104 C-25.4658576 105.46436471 -28.61428908 109.18144595 -31.9765625 112.3203125 C-34 114 -34 114 -36 114 C-35.41457824 110.37363743 -33.97353457 108.54114586 -31.5 105.875 C-28.94538114 103.14762761 -28.94538114 103.14762761 -27 100 C-27.66 99.01 -28.32 98.02 -29 97 C-29.70812814 94.67891331 -30.38024152 92.34622853 -31 90 C-34.63 90 -38.26 90 -42 90 C-42.33 89.01 -42.66 88.02 -43 87 C-40.24921116 86.08307039 -38.64051087 85.89113917 -35.8125 85.9375 C-34.554375 85.958125 -33.29625 85.97875 -32 86 C-31.47023414 81.22556697 -31.19229453 76.75120867 -32 72 C-34.59808434 69.06259471 -37.40305703 67.49872624 -41 66 C-40.505 65.01 -40.505 65.01 -40 64 C-35.94718288 65.22527029 -32.55639236 66.69880494 -29 69 C-28.74476563 68.28457031 -28.48953125 67.56914062 -28.2265625 66.83203125 C-26.9123112 63.79753382 -25.30503984 61.36811089 -23.375 58.6875 C-22.74335937 57.80449219 -22.11171875 56.92148438 -21.4609375 56.01171875 C-20.97882812 55.34785156 -20.49671875 54.68398437 -20 54 C-20.93972656 53.90912109 -20.93972656 53.90912109 -21.8984375 53.81640625 C-22.71570313 53.73261719 -23.53296875 53.64882812 -24.375 53.5625 C-25.18710937 53.48128906 -25.99921875 53.40007812 -26.8359375 53.31640625 C-29 53 -29 53 -31 52 C-31 50.35 -31 48.7 -31 47 C-27.53058454 47.45822468 -24.32604951 47.89131683 -21 49 C-21 49.66 -21 50.32 -21 51 C-19.10183052 51.04232358 -19.10183052 51.04232358 -17 50 C-15.56357954 47.63808099 -14.38749171 45.43461163 -13.25 42.9375 C-12.93417969 42.27427734 -12.61835937 41.61105469 -12.29296875 40.92773438 C-11.51588722 39.29115358 -10.75624233 37.64631405 -10 36 C-13.26874082 33.99480605 -16.40056264 32.33693388 -20 31 C-20 29.68 -20 28.36 -20 27 C-17.8125 26.6875 -17.8125 26.6875 -15 27 C-12.3125 29.5 -12.3125 29.5 -10 32 C-9.34 32 -8.68 32 -8 32 C-7.18608745 29.41710408 -6.37382071 26.83371003 -5.5625 24.25 C-5.33240234 23.52039063 -5.10230469 22.79078125 -4.86523438 22.0390625 C-4.64287109 21.33007812 -4.42050781 20.62109375 -4.19140625 19.890625 C-3.98717041 19.24125977 -3.78293457 18.59189453 -3.57250977 17.92285156 C-2.98830273 15.96071312 -2.48189352 13.98950416 -2 12 C-2.62648438 11.93941406 -3.25296875 11.87882813 -3.8984375 11.81640625 C-4.71570313 11.73261719 -5.53296875 11.64882812 -6.375 11.5625 C-7.59316406 11.44068359 -7.59316406 11.44068359 -8.8359375 11.31640625 C-11 11 -11 11 -13 10 C-12.67 9.01 -12.34 8.02 -12 7 C-6.555 7.495 -6.555 7.495 -1 8 C-1.020625 7.05125 -1.04125 6.1025 -1.0625 5.125 C-1 2 -1 2 0 0 Z " fill="#171711" transform="translate(669,120)"/>
<path d="M0 0 C14.65 0 14.65 0 19.9375 4.5 C22.52490065 7.99556115 22.65691047 11.34781684 22.4140625 15.59765625 C21.77994351 19.27674287 20.56421079 21.30429122 18 24 C11.61333543 27.9102028 8.24669723 27 0 27 C0 18.09 0 9.18 0 0 Z " fill="#C9E5E5" transform="translate(774,616)"/>
<path d="M0 0 C2.96208288 2.19442959 3.89546126 3.38341867 4.51757812 7.05273438 C4.52208984 8.22126953 4.52660156 9.38980469 4.53125 10.59375 C4.53640625 11.87121094 4.5415625 13.14867187 4.546875 14.46484375 C4.53849609 15.12726074 4.53011719 15.78967773 4.52148438 16.47216797 C4.5000595 18.49438448 4.52129739 20.51304961 4.546875 22.53515625 C4.54171875 23.81261719 4.5365625 25.09007812 4.53125 26.40625 C4.52673828 27.57478516 4.52222656 28.74332031 4.51757812 29.94726562 C3.89546126 33.61658133 2.96208288 34.80557041 0 37 C-3.86403349 37.55200478 -5.99716974 37.7429368 -9.18554688 35.38085938 C-11.57296329 32.24817842 -11.51613972 30.31981293 -11.53125 26.40625 C-11.53640625 25.12878906 -11.5415625 23.85132813 -11.546875 22.53515625 C-11.53849609 21.87273926 -11.53011719 21.21032227 -11.52148438 20.52783203 C-11.5000595 18.50561552 -11.52129739 16.48695039 -11.546875 14.46484375 C-11.54171875 13.18738281 -11.5365625 11.90992188 -11.53125 10.59375 C-11.52673828 9.42521484 -11.52222656 8.25667969 -11.51757812 7.05273438 C-10.38709565 0.38502076 -6.24154869 -0.89164981 0 0 Z " fill="#202121" transform="translate(160,237)"/>
<path d="M0 0 C1.485 0.99 1.485 0.99 3 2 C2.13556017 19.8650899 -5.09216335 44.98308304 -18 58 C-20.16796875 58.7109375 -20.16796875 58.7109375 -22 59 C-21.34 57.35 -20.68 55.7 -20 54 C-20.93972656 53.90912109 -20.93972656 53.90912109 -21.8984375 53.81640625 C-22.71570313 53.73261719 -23.53296875 53.64882812 -24.375 53.5625 C-25.18710937 53.48128906 -25.99921875 53.40007812 -26.8359375 53.31640625 C-29 53 -29 53 -31 52 C-31 50.35 -31 48.7 -31 47 C-27.53058454 47.45822468 -24.32604951 47.89131683 -21 49 C-21 49.66 -21 50.32 -21 51 C-19.10183052 51.04232358 -19.10183052 51.04232358 -17 50 C-15.56357954 47.63808099 -14.38749171 45.43461163 -13.25 42.9375 C-12.93417969 42.27427734 -12.61835937 41.61105469 -12.29296875 40.92773438 C-11.51588722 39.29115358 -10.75624233 37.64631405 -10 36 C-13.26874082 33.99480605 -16.40056264 32.33693388 -20 31 C-20 29.68 -20 28.36 -20 27 C-17.8125 26.6875 -17.8125 26.6875 -15 27 C-12.3125 29.5 -12.3125 29.5 -10 32 C-9.34 32 -8.68 32 -8 32 C-7.18608745 29.41710408 -6.37382071 26.83371003 -5.5625 24.25 C-5.33240234 23.52039063 -5.10230469 22.79078125 -4.86523438 22.0390625 C-4.53168945 20.97558594 -4.53168945 20.97558594 -4.19140625 19.890625 C-3.88505249 18.91657715 -3.88505249 18.91657715 -3.57250977 17.92285156 C-2.98830273 15.96071312 -2.48189352 13.98950416 -2 12 C-2.62648438 11.93941406 -3.25296875 11.87882813 -3.8984375 11.81640625 C-4.71570313 11.73261719 -5.53296875 11.64882812 -6.375 11.5625 C-7.18710937 11.48128906 -7.99921875 11.40007812 -8.8359375 11.31640625 C-11 11 -11 11 -13 10 C-12.67 9.01 -12.34 8.02 -12 7 C-6.555 7.495 -6.555 7.495 -1 8 C-1.020625 7.05125 -1.04125 6.1025 -1.0625 5.125 C-1 2 -1 2 0 0 Z " fill="#1E1E17" transform="translate(669,120)"/>
<path d="M0 0 C2.8100346 1.79363911 4.50940468 3.01880935 6 6 C6.59873168 11.26883876 5.25400021 13.8846468 2 18 C-1.46782828 19.73391414 -5.20833321 19.45877819 -9 19 C-11.89115314 17.33758695 -12.69207311 16.08584747 -13.59375 12.90625 C-14.31784262 8.7287926 -14.42885043 6.7098214 -12.1875 3 C-8.4620862 -0.40609262 -4.91281441 -0.70586414 0 0 Z " fill="#070503" transform="translate(715,337)"/>
<path d="M0 0 C4.30405014 0.43770001 5.81989572 1.17003051 8.6875 4.375 C9.93471924 8.03870652 10.05047705 9.61447666 8.375 13.125 C6.6875 15.375 6.6875 15.375 4.6875 17.375 C-2.29841549 18.05105634 -2.29841549 18.05105634 -5.75 15.75 C-7.68481132 12.8090868 -8.24059193 10.89849544 -8.3125 7.375 C-6.29172865 3.14100288 -4.82807175 0.54657416 0 0 Z " fill="#0E0806" transform="translate(675.3125,176.625)"/>
<path d="M0 0 C4.45850936 0.79616239 5.90783917 1.93313458 8.5 5.625 C9.125 9.125 9.125 9.125 8.5 12.625 C5.90783917 16.31686542 4.45850936 17.45383761 0 18.25 C-4.45850936 17.45383761 -5.90783917 16.31686542 -8.5 12.625 C-9.125 9.125 -9.125 9.125 -8.5 5.625 C-5.90783917 1.93313458 -4.45850936 0.79616239 0 0 Z " fill="#0C0604" transform="translate(697.5,124.375)"/>
<path d="M0 0 C0.33 0.99 0.66 1.98 1 3 C-0.109375 4.76171875 -0.109375 4.76171875 -1.75 6.6875 C-6.19573224 12.30913357 -8.11215347 17.8972278 -9 25 C-9.66 25 -10.32 25 -11 25 C-11.33 26.32 -11.66 27.64 -12 29 C-11.89558594 28.05898437 -11.79117188 27.11796875 -11.68359375 26.1484375 C-11.42994548 22.25916395 -11.34583435 18.84803325 -12 15 C-14.59808434 12.06259471 -17.40305703 10.49872624 -21 9 C-20.67 8.34 -20.34 7.68 -20 7 C-15.94718288 8.22527029 -12.55639236 9.69880494 -9 12 C-8.773125 11.278125 -8.54625 10.55625 -8.3125 9.8125 C-6.74262951 6.4484918 -4.71030608 4.50703313 -2 2 C-1.34 1.34 -0.68 0.68 0 0 Z " fill="#0C0C09" transform="translate(649,177)"/>
<path d="M0 0 C0.99 0.66 1.98 1.32 3 2 C2.88512252 3.58409994 2.75765492 5.16728963 2.625 6.75 C2.55539062 7.63171875 2.48578125 8.5134375 2.4140625 9.421875 C2.00149945 11.99066382 1.28839043 13.75841015 0 16 C-0.66 16 -1.32 16 -2 16 C-2 14.68 -2 13.36 -2 12 C-2.62648438 11.93941406 -3.25296875 11.87882813 -3.8984375 11.81640625 C-4.71570313 11.73261719 -5.53296875 11.64882812 -6.375 11.5625 C-7.59316406 11.44068359 -7.59316406 11.44068359 -8.8359375 11.31640625 C-11 11 -11 11 -13 10 C-12.67 9.01 -12.34 8.02 -12 7 C-8.37 7.33 -4.74 7.66 -1 8 C-1.020625 7.05125 -1.04125 6.1025 -1.0625 5.125 C-1 2 -1 2 0 0 Z " fill="#212219" transform="translate(669,120)"/>
<path d="M0 0 C2.5625 0.1875 2.5625 0.1875 4.5625 2.1875 C4.1875 5.3125 4.1875 5.3125 3.5625 8.1875 C1.25 8.875 1.25 8.875 -1.4375 9.1875 C-3.3125 8.0625 -3.3125 8.0625 -4.4375 6.1875 C-3.87661439 0.29820111 -3.87661439 0.29820111 0 0 Z " fill="#50585C" transform="translate(697.4375,128.8125)"/>
<path d="M0 0 C4.55555556 0.55555556 4.55555556 0.55555556 6 2 C6.1875 4.4375 6.1875 4.4375 6 7 C5.34 7.66 4.68 8.32 4 9 C-0.55555556 8.44444444 -0.55555556 8.44444444 -2 7 C-2.1875 4.5625 -2.1875 4.5625 -2 2 C-1.34 1.34 -0.68 0.68 0 0 Z " fill="#545C61" transform="translate(674,181)"/>
<path d="M0 0 C3 1 3 1 4.38671875 3.1796875 C4.81597656 4.06914062 5.24523437 4.95859375 5.6875 5.875 C6.12449219 6.75929687 6.56148437 7.64359375 7.01171875 8.5546875 C8 11 8 11 8 14 C6.68 14 5.36 14 4 14 C3.13116294 12.42466914 2.28040932 10.83935491 1.4375 9.25 C0.96183594 8.36828125 0.48617187 7.4865625 -0.00390625 6.578125 C-1.07998186 3.79298812 -1.06528748 2.73019786 0 0 Z " fill="#0D0B0B" transform="translate(682,159)"/>
<path d="M0 0 C1.65 0.33 3.3 0.66 5 1 C5.6875 3.3125 5.6875 3.3125 6 6 C4.8125 7.875 4.8125 7.875 3 9 C0.8125 8.6875 0.8125 8.6875 -1 8 C-1.625 5.6875 -1.625 5.6875 -2 3 C-1.34 2.01 -0.68 1.02 0 0 Z " fill="#E75454" transform="translate(709,342)"/>
<path d="M0 0 C1.67542976 0.28604898 3.34385343 0.61781233 5 1 C5 3.31 5 5.62 5 8 C3.34385343 8.38218767 1.67542976 8.71395102 0 9 C-1 8 -1 8 -1.125 4.5 C-1 1 -1 1 0 0 Z " fill="#120E08" transform="translate(693,359)"/>
<path d="M0 0 C4.75 0.75 4.75 0.75 7 3 C6.625 5.625 6.625 5.625 6 8 C3.64035727 7.59316505 2.14065912 7.10185661 0.1875 5.6875 C-1 4 -1 4 -0.6875 1.8125 C-0.460625 1.214375 -0.23375 0.61625 0 0 Z " fill="#19130A" transform="translate(678,377)"/>
<path d="M0 0 C1.75 0.0625 1.75 0.0625 4 1 C6.44727466 4.2161819 8 6.92394904 8 11 C6.25 10.875 6.25 10.875 4 10 C1.06644827 6.33306034 0 4.76869466 0 0 Z " fill="#080707" transform="translate(662,197)"/>
<path d="M0 0 C0 0.99 0 1.98 0 3 C-6.5 6 -6.5 6 -11 6 C-10.875 4.125 -10.875 4.125 -10 2 C-6.40349908 0.40155515 -3.96602757 0 0 0 Z " fill="#050504" transform="translate(701,150)"/>
<path d="M0 0 C-0.4452885 5.27315333 -1.08373163 10.01770224 -3 15 C-3.99 14.67 -4.98 14.34 -6 14 C-5.68817931 12.58318366 -5.37551263 11.16655349 -5.0625 9.75 C-4.88847656 8.96109375 -4.71445312 8.1721875 -4.53515625 7.359375 C-4.35855469 6.58078125 -4.18195312 5.8021875 -4 5 C-3.85433594 4.26265625 -3.70867188 3.5253125 -3.55859375 2.765625 C-3.28208984 1.89164063 -3.28208984 1.89164063 -3 1 C-1 0 -1 0 0 0 Z " fill="#0F0F0B" transform="translate(669,135)"/>
<path d="M0 0 C1.4540625 0.0309375 1.4540625 0.0309375 2.9375 0.0625 C3.5625 1.9375 3.5625 1.9375 3.9375 4.0625 C3.2775 4.7225 2.6175 5.3825 1.9375 6.0625 C-0.6875 5.6875 -0.6875 5.6875 -3.0625 5.0625 C-3.625 3.125 -3.625 3.125 -4.0625 1.0625 C-3.0625 0.0625 -3.0625 0.0625 0 0 Z " fill="#19140A" transform="translate(682.0625,364.9375)"/>
<path d="M0 0 C0.99 0.33 1.98 0.66 3 1 C2.67 2.98 2.34 4.96 2 7 C0.68 7.33 -0.64 7.66 -2 8 C-2.125 5.125 -2.125 5.125 -2 2 C-1.34 1.34 -0.68 0.68 0 0 Z " fill="#160E05" transform="translate(710,148)"/>
<path d="M0 0 C1.32 0 2.64 0 4 0 C3.34 2.97 2.68 5.94 2 9 C1.01 8.67 0.02 8.34 -1 8 C-1.125 2.25 -1.125 2.25 0 0 Z " fill="#26271D" transform="translate(709,91)"/>
<path d="M0 0 C2.0625 0.4375 2.0625 0.4375 4 1 C3.67 2.65 3.34 4.3 3 6 C1.68 5.67 0.36 5.34 -1 5 C-1 1 -1 1 0 0 Z " fill="#151919" transform="translate(611,418)"/>
<path d="M0 0 C1.98 0.495 1.98 0.495 4 1 C3.67 2.65 3.34 4.3 3 6 C1.68 5.67 0.36 5.34 -1 5 C-0.67 3.35 -0.34 1.7 0 0 Z " fill="#120F09" transform="translate(685,340)"/>
<path d="M0 0 C2.97 0.495 2.97 0.495 6 1 C5.443125 1.268125 4.88625 1.53625 4.3125 1.8125 C1.80287477 3.10122647 -0.59334236 4.52926478 -3 6 C-2 4 -1 2 0 0 Z " fill="#9CA68C" transform="translate(693,211)"/>
</svg>
