<?xml version="1.0" encoding="UTF-8"?>
<svg version="1.1" xmlns="http://www.w3.org/2000/svg" width="893" height="771">
<path d="M0 0 C294.69 0 589.38 0 893 0 C893 254.43 893 508.86 893 771 C598.31 771 303.62 771 0 771 C0 516.57 0 262.14 0 0 Z " fill="#FEFAF4" transform="translate(0,0)"/>
<path d="M0 0 C6.20196309 3.80575008 10.88753718 11.08020356 13 18 C13.08721401 20.02417627 13.1683587 22.04963608 13.17358398 24.07568359 C13.23185939 33.70441716 15.29225696 40.53040796 19.90820312 48.96289062 C21.08725891 51.16281046 22.18119991 53.39260626 23.265625 55.640625 C31.68826563 73.04488528 41.13947582 89.99176395 52 106 C52.44279297 106.65387695 52.88558594 107.30775391 53.34179688 107.98144531 C60.26628071 118.14020452 67.67957665 127.78574726 75.53955078 137.23535156 C77.5948109 139.71870498 79.60560265 142.23745214 81.625 144.75 C85.71706764 149.75225181 90.05383455 154.49662223 94.44921875 159.23046875 C96.4955351 161.45227318 98.48064423 163.70033738 100.4375 166 C112.43891726 181.05907655 112.43891726 181.05907655 128 190 C130.27314677 188.9957768 130.27314677 188.9957768 132.54296875 187.34375 C133.43935059 186.74062988 134.33573242 186.13750977 135.25927734 185.51611328 C136.22559082 184.8507959 137.1919043 184.18547852 138.1875 183.5 C140.26440979 182.10821534 142.34392965 180.72031922 144.42578125 179.3359375 C146.04540771 178.25844238 146.04540771 178.25844238 147.69775391 177.15917969 C176.45108333 158.35876231 207.47933773 142.23875828 240 131 C241.55272934 130.43797949 243.10477005 129.87405413 244.65625 129.30859375 C256.62505732 124.98025148 268.69395022 121.24376615 281 118 C282.1765918 117.6891748 283.35318359 117.37834961 284.56542969 117.05810547 C321.37971401 107.45825324 358.93749146 101.39204577 397 100 C398.09957031 99.92394531 399.19914062 99.84789062 400.33203125 99.76953125 C409.81600517 99.31907293 417.86594951 102.23798935 425.375 108.0625 C431.93684905 114.432161 435.32740014 122.00852433 435.625 131.125 C435.33329481 137.41749758 433.94172426 142.45598121 431 148 C430.46375 149.051875 429.9275 150.10375 429.375 151.1875 C422.63527844 159.16874922 413.95002156 163.25506427 403.66308594 164.35766602 C400.51754332 164.55940671 397.37380046 164.72478947 394.22442627 164.85284424 C381.19870093 165.39420046 368.4527438 166.67140046 355.56713867 168.67944336 C338.24112501 171.33021933 338.24112501 171.33021933 333.78955078 168.68798828 C332 167 332 167 330.9375 163.6875 C331.00200227 159.88186581 331.51833411 158.18221232 334.04418945 155.34887695 C338.51011092 152.268835 344.36869109 152.29991956 349.625 151.75 C350.9344458 151.59289551 352.2438916 151.43579102 353.59301758 151.27392578 C357.3930083 150.82428088 361.19546248 150.40906756 365 150 C366.74113296 149.79637649 368.48205943 149.59096924 370.22265625 149.3828125 C377.05170511 148.59369419 383.86140373 147.99361449 390.7265625 147.61328125 C391.89872314 147.54189941 393.07088379 147.47051758 394.27856445 147.39697266 C396.58327264 147.26036197 398.88924173 147.14321522 401.19604492 147.04833984 C407.87056087 146.72117725 407.87056087 146.72117725 413.63671875 143.67578125 C417.8258179 138.93275164 418.45416196 135.70839795 418.31640625 129.47265625 C417.84544597 125.79218886 416.4608062 123.7268393 414 121 C396.62159328 108.70795622 354.2004542 120.39419563 334.27246094 123.79052734 C300.98318693 129.64912119 267.24916439 137.99339807 236 151 C235.02482422 151.4012207 234.04964844 151.80244141 233.04492188 152.21582031 C220.44164261 157.4222029 207.91300458 162.67770857 195.84228516 169.03613281 C193.96044235 170.02069621 192.06594229 170.97663808 190.16796875 171.9296875 C181.04256409 176.5693457 172.28026822 181.76592131 163.5625 187.125 C162.47275879 187.79402344 161.38301758 188.46304688 160.26025391 189.15234375 C148.73788238 195.18151285 148.73788238 195.18151285 140 204 C140.56984619 204.26208252 141.13969238 204.52416504 141.72680664 204.79418945 C144.16914953 206.08972501 146.19563517 207.58821102 148.37109375 209.29296875 C149.60375977 210.2375293 149.60375977 210.2375293 150.86132812 211.20117188 C152.58201775 212.52789011 154.29558144 213.86390083 156.00195312 215.20898438 C156.82501953 215.83482422 157.64808594 216.46066406 158.49609375 217.10546875 C159.24044678 217.68449951 159.9847998 218.26353027 160.75170898 218.86010742 C162.9557641 220.21626352 162.9557641 220.21626352 165.51831055 219.84326172 C168.09066151 218.96919382 169.97459127 217.93805762 172.2109375 216.40234375 C173.02788086 215.85594238 173.84482422 215.30954102 174.68652344 214.74658203 C175.5737207 214.14958496 176.46091797 213.55258789 177.375 212.9375 C199.86169692 198.22402965 224.96926763 185.0948517 250.66796875 177.10546875 C254.00779519 176.055249 254.00779519 176.055249 257.14453125 174.6171875 C262.4389467 172.28923545 267.99079488 170.67402723 273.5 168.9375 C274.60214844 168.58623047 275.70429688 168.23496094 276.83984375 167.87304688 C279.88997049 166.90454925 282.94383364 165.9492395 286 165 C286.7228418 164.77054688 287.44568359 164.54109375 288.19042969 164.3046875 C293.04804493 162.81803372 296.08273512 162.8526382 301 164 C303.6192182 166.20996536 303.92701746 167.57122759 304.5 170.9375 C303.98061569 174.11872893 303.28386506 175.72573787 300.83984375 177.8515625 C293.48630366 182.44167033 283.8211887 183.94789909 275.49536133 186.16210938 C270.53523735 187.49729433 265.77768254 189.11800357 261 191 C260.28102539 191.2781958 259.56205078 191.5563916 258.82128906 191.84301758 C231.28288088 202.54090285 204.97412762 215.16122743 180 231 C207.25209073 249.90229602 237.91679417 262.91739405 269 274 C269.74056641 274.26796387 270.48113281 274.53592773 271.24414062 274.81201172 C275.45977455 276.33263559 279.70676607 277.71759255 284 279 C284.84594727 279.25313965 285.69189453 279.5062793 286.56347656 279.76708984 C320.60933299 289.78023398 355.70440426 295.56474846 391.12890625 297.47265625 C392.39025391 297.54379639 393.65160156 297.61493652 394.95117188 297.68823242 C397.25723949 297.80749565 399.56477046 297.90256983 401.87304688 297.96606445 C411.47168816 298.42938003 419.66899938 301.82961753 426.9375 308.1875 C433.92206024 316.04513027 435.75604578 324.19444164 435.34765625 334.55078125 C434.49836647 342.97688099 430.85513403 348.90041703 425 355 C417.02592334 361.234003 409.85779222 362.38816516 399.9375 362.375 C398.72537842 362.37411377 397.51325684 362.37322754 396.2644043 362.37231445 C385.8784422 362.24362494 375.62953474 361.35252985 365.3125 360.1875 C364.57321259 360.10481873 363.83392517 360.02213745 363.07223511 359.93695068 C352.29793982 358.71040358 341.66299739 356.95745517 331 355 C329.13593047 354.67800087 327.27141983 354.35853201 325.40625 354.04296875 C262.38178824 343.16217654 200.67796103 319.91308592 147 285 C146.35949707 284.58459961 145.71899414 284.16919922 145.05908203 283.74121094 C140.25546857 280.6128461 135.54662234 277.42831673 131 273.9375 C128.31196977 271.75814721 128.31196977 271.75814721 126.0098114 272.2048645 C123.75107971 273.09847957 122.55509618 274.0704956 120.84301758 275.78466797 C119.95607964 276.66226273 119.95607964 276.66226273 119.05122375 277.55758667 C118.42201523 278.19600494 117.7928067 278.83442322 117.14453125 279.4921875 C116.48345871 280.15276154 115.82238617 280.81333557 115.14128113 281.493927 C113.73991492 282.89763482 112.34224364 284.30503963 110.94799805 285.71582031 C108.84631129 287.84081376 106.73193804 289.95247675 104.61523438 292.0625 C97.99230219 298.70007699 91.59034033 305.34897588 85.79736328 312.73339844 C83.9711648 315.03636322 82.0472238 317.20804555 80.0625 319.375 C55.67586601 346.67275859 36.59829816 379.67330492 20.33837891 412.30688477 C19.67728622 413.63261253 19.67728622 413.63261253 19.00283813 414.98512268 C18.67190155 415.6500322 18.34096497 416.31494171 18 417 C19.24052915 417.00032605 19.24052915 417.00032605 20.50611949 417.00065869 C69.53240587 417.01417734 118.55861276 417.05367221 167.58484827 417.12685562 C173.47274363 417.13562227 179.36063929 417.1441721 185.24853516 417.15258789 C187.00678098 417.15510648 187.00678098 417.15510648 188.80054691 417.15767596 C207.77493301 417.18433881 226.74928889 417.19344053 245.72369179 417.19604143 C265.19616565 417.19910191 284.66855223 417.22105962 304.14098668 417.26052457 C316.15454602 417.28427801 328.16793107 417.29332792 340.18151066 417.28351311 C348.42197773 417.27819348 356.66228877 417.29124541 364.90271142 417.3186629 C369.65558647 417.33393665 374.40811224 417.3411879 379.16099739 417.32659721 C383.51777128 417.31340183 387.87386972 417.32342602 392.23056784 417.35143773 C393.8014208 417.357525 395.37233423 417.3553009 396.94315562 417.34362926 C407.34818153 417.27240468 417.27954104 418.01113637 425.46147323 425.1466729 C432.06876509 431.96399617 435.17397243 438.51463538 435.5 448 C435.15662986 458.30110419 431.31886218 464.91323704 424 472 C414.94807844 480.23662146 403.47910775 479.28635644 391.95994568 479.24050903 C390.32700616 479.24138198 388.69406691 479.24313461 387.06112915 479.24568737 C382.58920707 479.25014733 378.11738127 479.24217582 373.64547145 479.23213124 C368.81736377 479.22347955 363.98926133 479.22641812 359.16114807 479.22793579 C350.8011643 479.22898355 342.44121179 479.2227183 334.08123589 479.21146011 C321.99417668 479.19519336 309.90713256 479.1899959 297.8200636 479.18748413 C278.2087285 479.18310888 258.59741005 479.16980436 238.98608398 479.15087891 C219.93758223 479.13251573 200.889085 479.11836136 181.84057617 479.10986328 C180.66606443 479.10933783 179.49155268 479.10881239 178.28144967 479.10827102 C172.38916133 479.10566091 166.49687296 479.1031335 160.60458457 479.10064721 C111.73637821 479.07991999 62.86818992 479.04469906 14 479 C14.02719116 480.94205322 14.02719116 480.94205322 14.05493164 482.92333984 C14.06959475 484.64420219 14.08381272 486.36506837 14.09765625 488.0859375 C14.11074829 488.93663818 14.12384033 489.78733887 14.1373291 490.66381836 C14.19956505 500.99498506 11.59119049 509.20758096 4.85546875 517.1640625 C2.08301059 519.90733689 -0.44813583 521.35092021 -4 523 C-5.0725 523.5775 -6.145 524.155 -7.25 524.75 C-15.19406675 527.39802225 -23.50569497 526.7404731 -31 523 C-39.15051128 518.11783018 -44.75601828 511.21159088 -47.375 502 C-48.7349016 494.50694216 -48.14722029 486.58184502 -48 479 C-48.92224365 479.02094727 -49.8444873 479.04189453 -50.79467773 479.06347656 C-54.25571931 479.13213681 -57.71602476 479.18203229 -61.17749023 479.21972656 C-62.66816718 479.23969458 -64.1587673 479.2668792 -65.64916992 479.30175781 C-74.11464823 479.49473553 -81.57063832 479.63873867 -89 475 C-89.88171875 474.48179687 -90.7634375 473.96359375 -91.671875 473.4296875 C-98.33425386 468.44542662 -102.4074555 462.24938049 -104 454 C-104.82198859 443.96225476 -103.17478812 435.79432549 -96.8046875 427.85546875 C-91.22300092 422.11672173 -84.43822575 418.27847456 -76.38134766 417.77294922 C-75.07214355 417.78342285 -73.76293945 417.79389648 -72.4140625 417.8046875 C-71.36138687 417.80893234 -71.36138687 417.80893234 -70.28744507 417.81326294 C-68.06644972 417.82437488 -65.84587155 417.84946166 -63.625 417.875 C-62.11068295 417.88504146 -60.59635951 417.89416527 -59.08203125 417.90234375 C-55.38788742 417.92428446 -51.69398449 417.95875125 -48 418 C-48.00460896 417.22216345 -48.00921793 416.4443269 -48.01396656 415.64291954 C-48.12440192 396.71396138 -48.20713522 377.78506755 -48.25906086 358.85585594 C-48.28483938 349.70180057 -48.3199831 340.54796029 -48.37719727 331.39404297 C-48.42704311 323.41520723 -48.45929358 315.43652727 -48.47044247 307.45754015 C-48.47695928 303.23288415 -48.49226789 299.00867376 -48.52865028 294.78416061 C-48.5626287 290.80649653 -48.57304944 286.82946093 -48.56553841 282.8516655 C-48.56691215 281.39317406 -48.57683435 279.93466126 -48.59602737 278.47629547 C-48.7510444 266.08813336 -48.7510444 266.08813336 -45.65202332 262.08535767 C-43 260 -43 260 -40 260 C-40.02274013 255.7279764 -40.09996726 251.45864871 -40.1875 247.1875 C-40.19330078 245.97255859 -40.19910156 244.75761719 -40.20507812 243.50585938 C-40.23408203 242.34248047 -40.26308594 241.17910156 -40.29296875 239.98046875 C-40.3086792 238.90692139 -40.32438965 237.83337402 -40.34057617 236.72729492 C-40.72583351 233.78862223 -40.72583351 233.78862223 -43.41918945 232.3762207 C-44.27085693 231.92206787 -45.12252441 231.46791504 -46 231 C-48.2778874 227.80718119 -48.25729281 224.91435122 -48.265625 221.0625 C-48.26820313 219.92039062 -48.27078125 218.77828125 -48.2734375 217.6015625 C-48.26570313 216.41304687 -48.25796875 215.22453125 -48.25 214 C-48.26160156 212.21722656 -48.26160156 212.21722656 -48.2734375 210.3984375 C-48.27085937 209.25632813 -48.26828125 208.11421875 -48.265625 206.9375 C-48.26336914 205.89464844 -48.26111328 204.85179687 -48.25878906 203.77734375 C-47.99519972 200.94848301 -47.5681322 199.34892863 -46 197 C-43 195 -43 195 -40 195 C-40 186.42 -40 177.84 -40 169 C-41.32 168.67 -42.64 168.34 -44 168 C-46.4178943 166.0298639 -46.98502564 165.04492309 -48 162 C-48.09929332 160.10494178 -48.13931829 158.20657092 -48.14717102 156.30892944 C-48.15432632 155.12300201 -48.16148163 153.93707458 -48.16885376 152.71520996 C-48.17154266 151.41233032 -48.17423157 150.10945068 -48.17700195 148.76708984 C-48.183268 147.38225128 -48.18991493 145.9974144 -48.19691467 144.61257935 C-48.21794637 140.06204395 -48.22831842 135.51150826 -48.23828125 130.9609375 C-48.24232959 129.39261482 -48.24644653 127.82429232 -48.25063133 126.25597 C-48.26968359 118.88497885 -48.28391273 111.5139977 -48.2922433 104.14298666 C-48.30200655 95.64527286 -48.32830188 87.14782018 -48.36874419 78.65019834 C-48.39895434 72.07595173 -48.41371694 65.50177973 -48.41702431 58.92746508 C-48.41936986 55.00409076 -48.4282648 51.08099538 -48.45348549 47.15769577 C-48.47685635 43.46235988 -48.48096369 39.76748476 -48.47072411 36.07209396 C-48.46999678 34.08067616 -48.48902595 32.08928129 -48.50878906 30.09796143 C-48.46678401 22.82161416 -47.68016615 17.33131495 -44 11 C-43.53078125 10.19046875 -43.0615625 9.3809375 -42.578125 8.546875 C-32.50534004 -5.08101053 -14.79466429 -8.11867811 0 0 Z " fill="#3D332E" transform="translate(204,38)"/>
<path d="M0 0 C3.67284749 1.26062484 6.29906491 3.07195073 8.66805702 6.20853418 C10.31859499 9.66770652 10.37442368 12.14624665 10.37358761 15.9759531 C10.37753913 16.6693804 10.38149065 17.3628077 10.38556191 18.07724795 C10.39518538 20.406242 10.38341412 22.73463594 10.37181091 25.06361389 C10.3743851 26.74799941 10.37828569 28.43238334 10.3834005 30.11676306 C10.39369159 34.74965231 10.38535959 39.38235159 10.37410367 44.01523173 C10.36526364 49.00982304 10.37374923 54.00438708 10.38031006 58.99897766 C10.3894735 67.65477791 10.38813264 76.31052517 10.38012505 84.96632576 C10.36890723 97.48556805 10.37792195 110.00473461 10.39268685 122.5239703 C10.4164681 142.84060455 10.42982592 163.15722946 10.43383789 183.47387695 C10.43408276 184.69017103 10.43432763 185.90646511 10.43457992 187.15961658 C10.43712666 200.7342392 10.43769221 214.3088611 10.43664551 227.88348389 C10.43631248 232.80782064 10.43602708 237.73215739 10.43579102 242.65649414 C10.43572823 243.87161311 10.43566544 245.08673207 10.43560075 246.33867282 C10.43499653 266.57965292 10.44985164 286.82058987 10.47662407 307.06155199 C10.49245678 319.55376095 10.49465836 332.04583096 10.47949005 344.53804146 C10.4700482 353.09233737 10.47474428 361.64654929 10.49070387 370.2008353 C10.49942744 375.14106859 10.5014687 380.08107904 10.48617744 385.02130127 C10.47230331 389.5395693 10.47662518 394.05743272 10.49569846 398.5756784 C10.49932568 400.21421595 10.49611484 401.85278511 10.48554879 403.4912926 C10.47219206 405.71132199 10.48323121 407.9299177 10.50057125 410.14988804 C10.50046391 411.38506595 10.50035658 412.62024387 10.50024599 413.89285141 C10.78448833 417.03888326 10.78448833 417.03888326 12.60520905 419.3969177 C15.82291842 421.55086476 17.95317144 421.49976624 21.81608391 421.49942875 C22.50438142 421.50483371 23.19267894 421.51023867 23.90183395 421.51580742 C26.21957563 421.52911456 28.53625469 421.51382144 30.85397339 421.49879456 C32.52782309 421.50251981 34.20166965 421.50800767 35.87550843 421.51511139 C40.4840425 421.52959934 45.09223982 421.51916957 49.70076203 421.50482833 C54.66746975 421.49373791 59.63412625 421.5056989 64.60083008 421.51501465 C73.21027613 421.52812143 81.81962514 421.52692967 90.42907333 421.51642036 C102.88348931 421.50150011 115.33779112 421.51138095 127.79220058 421.52793955 C148.00616412 421.55441732 168.2201021 421.56525887 188.43408203 421.56420898 C189.64443576 421.56415066 190.85478949 421.56409234 192.1018206 421.56403225 C197.00609018 421.5637664 201.91035974 421.56344911 206.81462931 421.56306899 C220.31147848 421.56210293 233.80832687 421.56343017 247.30517578 421.56616211 C249.11759112 421.56652195 249.11759112 421.56652195 250.96662091 421.56688906 C271.10135006 421.57129313 291.23605543 421.58751691 311.37077057 421.6113829 C323.79609745 421.62546946 336.22133414 421.62831928 348.64666416 421.61676001 C357.15845265 421.60944629 365.67019565 421.61248407 374.18197976 421.62371845 C379.09609256 421.62980179 384.01007824 421.63085263 388.92418289 421.61884117 C393.42094335 421.60791568 397.91747804 421.61067307 402.41422893 421.62438463 C404.04273874 421.62688504 405.67126587 421.62428016 407.29975711 421.61611075 C409.51085888 421.6057336 411.72116112 421.61377199 413.93223381 421.62641239 C415.77556134 421.62600786 415.77556134 421.62600786 417.65612781 421.62559515 C422.6941843 422.1896935 425.92690487 423.81089458 429.3125 427.5625 C432.15864421 431.6735972 432.65123653 435.05773924 432 440 C430.35973259 444.3003902 428.01173689 447.67662503 424 450 C420.90041411 450.37440485 420.90041411 450.37440485 417.16829872 450.37358761 C416.47831283 450.37753913 415.78832695 450.38149065 415.07743239 450.38556191 C412.75410432 450.39520481 410.43137492 450.38340254 408.10806274 450.37181091 C406.43009046 450.37438446 404.75211977 450.37828446 403.0741533 450.3834005 C398.45426742 450.39370156 393.83457175 450.3853529 389.21469498 450.37410367 C384.23572617 450.36526987 379.25678484 450.37374742 374.27781677 450.38031006 C365.64710383 450.38947722 357.01644403 450.38812971 348.38573074 450.38012505 C335.90055838 450.3689095 323.41546198 450.37792017 310.93029623 450.39268685 C290.66642275 450.4164736 270.40255863 450.42982661 250.13867188 450.43383789 C248.31865536 450.43420519 248.31865536 450.43420519 246.46187083 450.43457992 C232.9241043 450.43712595 219.38633849 450.43769261 205.84857178 450.43664551 C200.93973796 450.43631249 196.03090414 450.43602709 191.12207031 450.43579102 C189.91080643 450.43572823 188.69954254 450.43566544 187.45157368 450.43560075 C167.26711617 450.43499631 147.08270188 450.44986185 126.89826238 450.47662407 C114.44220912 450.49244934 101.98629519 450.49466607 89.5302404 450.47949005 C80.9974124 450.47004045 72.46466854 450.47475642 63.93185045 450.49070387 C59.00555297 450.49941844 54.07947882 450.5014901 49.15319252 450.48617744 C44.64526558 450.47227673 40.1377436 450.47665916 35.62983887 450.49569846 C33.99729232 450.49931788 32.36471393 450.4961382 30.73219772 450.48554879 C28.51543271 450.47213617 26.30009101 450.48327966 24.08338356 450.50057125 C22.85146078 450.50046391 21.61953799 450.50035658 20.35028422 450.50024599 C16.30551156 451.10359521 14.1219318 452.39124349 11 455 C10.13178376 458.36596794 10.13178376 458.36596794 10.30078125 462.1796875 C10.29418991 462.87007111 10.28759857 463.56045471 10.2808075 464.27175903 C10.26335298 466.47382572 10.28527104 468.67306858 10.3125 470.875 C10.3238403 473.06922672 10.32636994 475.26260409 10.3120575 477.45681763 C10.30132886 479.45280853 10.31849409 481.44889175 10.3371582 483.44482422 C9.90763287 487.9739682 8.55245518 491.34763434 5.421875 494.6796875 C1.19657599 497.70057885 -1.66071624 498.85809918 -7 498 C-12.45476375 495.94441534 -15.071005 493.08417416 -18 488 C-18.49829102 484.64428711 -18.49829102 484.64428711 -18.50390625 481.02734375 C-18.52259766 479.71572266 -18.54128906 478.40410156 -18.56054688 477.05273438 C-18.56299963 475.68099162 -18.56363407 474.30924448 -18.5625 472.9375 C-18.56727102 470.23741985 -18.59304647 467.53995204 -18.62890625 464.83984375 C-18.62963135 463.64738037 -18.63035645 462.45491699 -18.63110352 461.22631836 C-19.04004695 457.6497548 -19.78542309 455.81823932 -22 453 C-24.76278922 451.33132713 -26.83611481 450.74874883 -30.04663086 450.72875977 C-30.83102036 450.71857315 -31.61540985 450.70838654 -32.42356873 450.69789124 C-33.26218948 450.69575119 -34.10081024 450.69361115 -34.96484375 450.69140625 C-36.75195644 450.66624992 -38.53906574 450.64085184 -40.32617188 450.61523438 C-43.13500111 450.58648509 -45.94377161 450.56245812 -48.75268555 450.54370117 C-51.46954348 450.52202348 -54.18572164 450.48258789 -56.90234375 450.44140625 C-58.15723854 450.44123253 -58.15723854 450.44123253 -59.43748474 450.4410553 C-64.11945957 450.3617556 -67.18698365 450.00583895 -71 447 C-74.66396876 442.84090033 -75.63979378 439.57546321 -75.39453125 434.1796875 C-74.57030767 429.62605623 -71.51188149 425.90111949 -68 423 C-65.30105832 422.10035277 -63.72975239 421.87173867 -60.95922852 421.8581543 C-60.15151505 421.85111984 -59.34380157 421.84408539 -58.51161194 421.83683777 C-57.64281906 421.83267349 -56.77402618 421.82850922 -55.87890625 421.82421875 C-54.03839995 421.80102643 -52.19790511 421.77690934 -50.35742188 421.75195312 C-47.45622006 421.71679747 -44.55544196 421.68746741 -41.65405273 421.67407227 C-38.85348378 421.65861265 -36.05414957 421.6184246 -33.25390625 421.57421875 C-31.95375328 421.57708138 -31.95375328 421.57708138 -30.62733459 421.58000183 C-25.69084891 421.50623833 -25.69084891 421.50623833 -21.48413086 419.08911133 C-18.88600253 415.43190058 -18.8691961 413.20765197 -18.85282898 408.72564697 C-18.84915229 408.07480314 -18.8454756 407.42395931 -18.8416875 406.75339293 C-18.83063403 404.56247542 -18.82680402 402.37160531 -18.82299805 400.18066406 C-18.81673461 398.61376799 -18.81008792 397.04687341 -18.80308533 395.47998047 C-18.78566366 391.21537441 -18.77512023 386.95077957 -18.7668798 382.68614674 C-18.76173174 380.02234769 -18.7556559 377.35855214 -18.74936867 374.69475555 C-18.73031269 366.36214809 -18.71608284 358.02954952 -18.7077567 349.69692445 C-18.69798402 340.07513445 -18.67166549 330.45357449 -18.63125581 320.83186555 C-18.60110276 313.39739608 -18.58628857 305.96299257 -18.58297569 298.52846313 C-18.58062412 294.08707085 -18.57165016 289.64592421 -18.54651451 285.20459747 C-18.52324308 281.0250419 -18.51899668 276.84589384 -18.52927589 272.66629028 C-18.52977161 271.13364049 -18.52344063 269.60097071 -18.50971985 268.06838226 C-18.49200881 265.97252997 -18.49910112 263.87814142 -18.51225281 261.7822876 C-18.50986445 260.61052097 -18.5074761 259.43875435 -18.50501537 258.23147964 C-19.10981266 254.28309412 -20.51811189 252.09426634 -23 249 C-25.12119128 248.04768403 -25.12119128 248.04768403 -27 248 C-27.00410889 247.22809326 -27.00821777 246.45618652 -27.01245117 245.66088867 C-27.0453119 242.16897579 -27.11594893 238.67882526 -27.1875 235.1875 C-27.19330078 233.97255859 -27.19910156 232.75761719 -27.20507812 231.50585938 C-27.23408203 230.34248047 -27.26308594 229.17910156 -27.29296875 227.98046875 C-27.3086792 226.90692139 -27.32438965 225.83337402 -27.34057617 224.72729492 C-27.72583351 221.78862223 -27.72583351 221.78862223 -30.41918945 220.3762207 C-31.27085693 219.92206787 -32.12252441 219.46791504 -33 219 C-35.2778874 215.80718119 -35.25729281 212.91435122 -35.265625 209.0625 C-35.26820313 207.92039062 -35.27078125 206.77828125 -35.2734375 205.6015625 C-35.26570313 204.41304687 -35.25796875 203.22453125 -35.25 202 C-35.26160156 200.21722656 -35.26160156 200.21722656 -35.2734375 198.3984375 C-35.27085937 197.25632813 -35.26828125 196.11421875 -35.265625 194.9375 C-35.26336914 193.89464844 -35.26111328 192.85179687 -35.25878906 191.77734375 C-34.99519972 188.94848301 -34.5681322 187.34892863 -33 185 C-30 183 -30 183 -27 183 C-27 174.42 -27 165.84 -27 157 C-27.99 156.67 -28.98 156.34 -30 156 C-28.01432292 155.90234375 -26.02864583 155.8046875 -24.04296875 155.70703125 C-20.9757257 154.64551884 -20.410066 152.85806561 -19 150 C-18.56012215 147.13912951 -18.56012215 147.13912951 -18.63491821 144.04823303 C-18.62960587 142.85522079 -18.62429352 141.66220856 -18.61882019 140.43304443 C-18.6281105 139.13264221 -18.63740082 137.83223999 -18.64697266 136.49243164 C-18.64614142 135.10243079 -18.64392388 133.71243017 -18.64042664 132.32243347 C-18.63548348 129.33385816 -18.63956157 126.34547932 -18.65044022 123.35692024 C-18.6668177 118.62909497 -18.65832782 113.90151544 -18.64559937 109.1736908 C-18.61549547 96.58036274 -18.61694123 83.98707925 -18.63585222 71.39373344 C-18.64818933 63.117005 -18.64631546 54.84055526 -18.61746442 46.56385893 C-18.60223916 41.86614883 -18.60969914 37.16919573 -18.63417459 32.47153294 C-18.64425727 29.54628786 -18.63354142 26.62138879 -18.61705971 23.69618416 C-18.61197247 21.69825622 -18.63171241 19.70031312 -18.65223694 17.70248413 C-18.56255021 7.90972445 -18.56255021 7.90972445 -15.64926147 4.27268982 C-10.34585342 -0.27688054 -6.81113508 -0.83718049 0 0 Z " fill="#686DAE" transform="translate(191,50)"/>
<path d="M0 0 C2.2880202 2.21788857 3.83420934 4.23368214 5.35546875 7.04296875 C5.80486816 7.85757568 6.25426758 8.67218262 6.71728516 9.51147461 C7.20245605 10.39456299 7.68762695 11.27765137 8.1875 12.1875 C15.12873749 24.57575605 22.96622504 36.30015742 31 48 C31.48210937 48.70769531 31.96421875 49.41539062 32.4609375 50.14453125 C39.37228394 60.26022923 47.11419984 69.63658443 55 79 C55.53447754 79.6403418 56.06895508 80.28068359 56.61962891 80.94042969 C62.63869604 88.15122301 68.84051453 94.99341534 75.55859375 101.55859375 C77.61785166 103.61785166 79.50970705 105.7055647 81.375 107.9375 C85.93263644 113.27113689 91.21269603 117.87137758 96.41162109 122.56445312 C97.83879327 123.8543044 99.25782003 125.15315472 100.67578125 126.453125 C125.02286932 148.66450359 152.3283539 166.89759812 181 183 C181.86963379 183.48855469 182.73926758 183.97710937 183.63525391 184.48046875 C194.59965585 190.57393673 205.88439569 195.86232627 217.375 200.875 C217.99344788 201.14635773 218.61189575 201.41771545 219.24908447 201.69729614 C227.30305161 205.21592984 235.40093896 208.24913164 243.76293945 210.92626953 C246.51576316 211.83937902 249.15369742 212.84741413 251.8125 214 C258.55409084 216.7700596 265.62073701 218.50121054 272.65283203 220.36767578 C274.8161649 220.95047505 276.96888299 221.56119907 279.12109375 222.18359375 C309.05013682 230.67872169 340.48239262 235.64364586 371.51953125 237.578125 C372.21103271 237.62136398 372.90253418 237.66460297 373.61499023 237.70915222 C376.90495331 237.90937339 380.19277613 238.0847467 383.48583984 238.22973633 C395.62662526 238.85098272 395.62662526 238.85098272 400.64453125 243.53515625 C404.79586254 248.96382024 405.77822495 252.21832541 405 259 C403.61798314 263.27925702 401.47478805 265.61423471 398 268.4375 C374.09397508 280.40156691 318.05278759 263.50166102 292.91894531 257.67578125 C290.30079378 257.06963844 287.67933221 256.48347653 285.0546875 255.90625 C276.98909895 254.10846082 269.11367648 251.8974834 261.25390625 249.35546875 C258.14924358 248.35403608 255.0320986 247.40831571 251.90234375 246.48828125 C251.02618408 246.23030762 250.15002441 245.97233398 249.24731445 245.70654297 C247.55808094 245.21114351 245.86788054 244.71902321 244.17651367 244.23095703 C239.19732732 242.76352528 234.40545601 241.03492707 229.60351562 239.06469727 C226.89278653 237.95615548 224.16634812 236.89674439 221.43359375 235.84375 C164.72120292 213.77659834 113.33731427 180.64300924 70.3762207 137.5065918 C68.8072764 135.93225845 67.23301442 134.36338411 65.65820312 132.79492188 C60.22796008 127.36852367 54.97285858 121.8526783 50 116 C49.0632731 114.93956953 48.12454489 113.88090273 47.18359375 112.82421875 C30.06206005 93.36568523 15.3924175 71.74609063 3 49 C2.19393311 47.69373657 2.19393311 47.69373657 1.37158203 46.36108398 C-0.48307518 41.81621644 -0.37567251 37.86627502 -0.29296875 33.0078125 C-0.28872391 32.06187225 -0.28447906 31.11593201 -0.28010559 30.1413269 C-0.26338306 27.13558867 -0.22574263 24.1305338 -0.1875 21.125 C-0.17244486 19.08073889 -0.15875791 17.03646721 -0.14648438 14.9921875 C-0.11350055 9.99453046 -0.06176253 4.99738089 0 0 Z " fill="#FBC970" transform="translate(218,114)"/>
<path d="M0 0 C1.67542976 0.28604898 3.34385343 0.61781233 5 1 C4.44271087 4.34373475 3.64826111 7.03312999 2 10 C2.70125 10.226875 3.4025 10.45375 4.125 10.6875 C7 12 7 12 9.75 14.6875 C13.2766242 17.19682875 13.82656222 17.28206802 17.875 16.8125 C19.25507163 16.56882399 20.63259929 16.30690549 22 16 C22.33 17.65 22.66 19.3 23 21 C20.525 21.99 20.525 21.99 18 23 C18.7425 24.8253125 18.7425 24.8253125 19.5 26.6875 C20.72479441 29.92486738 21.32803185 32.50099357 21 36 C22.175625 35.938125 22.175625 35.938125 23.375 35.875 C26 36 26 36 28 38 C27.46428571 41.53571429 27.46428571 41.53571429 26 43 C24.33382885 43.04063832 22.66611905 43.042721 21 43 C21.04125 43.845625 21.0825 44.69125 21.125 45.5625 C20.98464972 49.42213269 20.17219836 52.33688013 19 56 C19.99 56.598125 20.98 57.19625 22 57.8125 C22.99 58.534375 23.98 59.25625 25 60 C25 60.99 25 61.98 25 63 C20.06729471 64.6442351 17.45975807 63.18615592 13 61 C12.814375 61.556875 12.62875 62.11375 12.4375 62.6875 C10.33639286 66.06754192 7.29334006 67.85140381 4 70 C4.680625 70.721875 5.36125 71.44375 6.0625 72.1875 C8 75 8 75 7.75 77.8125 C7.37875 78.8953125 7.37875 78.8953125 7 80 C4.41895019 79.53909825 3.06556549 79.05327196 1 77.375 C-0.86193542 75.83000517 -0.86193542 75.83000517 -2.9375 75.9375 C-6.15212343 77.59351813 -7.81137056 80.14262267 -10 83 C-9.34 83.556875 -8.68 84.11375 -8 84.6875 C-6 87 -6 87 -5.75 89.75 C-5.8325 90.4925 -5.915 91.235 -6 92 C-10.55384615 92.36923077 -10.55384615 92.36923077 -12.8125 90.5 C-13.204375 90.005 -13.59625 89.51 -14 89 C-17.69790046 90.23263349 -17.9354846 91.20052451 -19.6875 94.5625 C-20.12449219 95.38878906 -20.56148437 96.21507812 -21.01171875 97.06640625 C-21.33785156 97.70449219 -21.66398438 98.34257812 -22 99 C-21.50886719 99.43957031 -21.01773438 99.87914062 -20.51171875 100.33203125 C-19 102 -19 102 -18.8125 104.6875 C-18.9053125 105.8321875 -18.9053125 105.8321875 -19 107 C-22.12290635 106.51421457 -24.99580359 106.0013988 -28 105 C-30.29769316 106.18270001 -30.29769316 106.18270001 -32.6875 107.875 C-37.31360394 110.809621 -40.56067775 111.79854362 -46 112 C-46 113.65 -46 115.3 -46 117 C-47.65614657 117.38218767 -49.32457024 117.71395102 -51 118 C-52 117 -52 117 -52.0625 114.4375 C-52.041875 113.633125 -52.02125 112.82875 -52 112 C-54.31 112 -56.62 112 -59 112 C-59.185625 112.804375 -59.37125 113.60875 -59.5625 114.4375 C-63.43819335 124.04247918 -70.71453184 129.27704777 -79 135 C-84.45496845 138.98825502 -87.4390836 142.73283274 -90 149 C-90.4125 149.99 -90.825 150.98 -91.25 152 C-91.4975 152.66 -91.745 153.32 -92 154 C-93.32 154 -94.64 154 -96 154 C-97.50574487 149.59859193 -96.83184695 147.03561582 -94.875 143 C-91.07722034 136.06853329 -86.9486194 131.78251455 -80.34375 127.56640625 C-73.9480982 123.29197896 -67.6389831 118.19011316 -65.25 110.625 C-65.1675 110.08875 -65.085 109.5525 -65 109 C-68.59245526 105.96958432 -68.59245526 105.96958432 -72.9609375 105.18359375 C-75.38936714 106.15589604 -76.92690416 107.38031979 -78.875 109.125 C-79.51179687 109.68445313 -80.14859375 110.24390625 -80.8046875 110.8203125 C-87.77060357 117.73664909 -91.98305428 125.17719836 -96.41210938 133.90625 C-100.95895599 142.58280134 -106.39432959 149.79810986 -116 153 C-118.9985905 153.5511428 -121.95580101 153.85906486 -125 154 C-125.33 152.35 -125.66 150.7 -126 149 C-125.41992188 148.82984375 -124.83984375 148.6596875 -124.2421875 148.484375 C-119.22154385 146.92681558 -115.31590422 145.08278873 -111 142 C-110.01 141.67 -109.02 141.34 -108 141 C-106.87711078 139.17411335 -106.87711078 139.17411335 -106 137 C-99.08728108 123.04152811 -92.12756773 109.22392648 -79 100 C-78.34 100 -77.68 100 -77 100 C-77.66 98.02 -78.32 96.04 -79 94 C-90.21949976 98.57516486 -95.7476744 106.02739023 -102.390625 115.82421875 C-104.28130894 118.3803133 -106.35687229 120.23791486 -109 122 C-110.32 121.34 -111.64 120.68 -113 120 C-112.41091489 116.57122257 -111.2517706 114.87966857 -108.875 112.375 C-106.12908095 109.37792982 -103.84300481 106.34224103 -101.625 102.9375 C-97.45270879 96.82504628 -91.86969963 91.91017825 -85 89 C-84.01 89 -83.02 89 -82 89 C-82.16242187 88.31164062 -82.32484375 87.62328125 -82.4921875 86.9140625 C-83.0552271 83.68308138 -83.13253694 80.65357019 -83.125 77.375 C-83.12886719 75.68503906 -83.12886719 75.68503906 -83.1328125 73.9609375 C-83 71 -83 71 -82 68 C-84.31 67.34 -86.62 66.68 -89 66 C-88.67 64.35 -88.34 62.7 -88 61 C-85.03 61.66 -82.06 62.32 -79 63 C-78.731875 62.2575 -78.46375 61.515 -78.1875 60.75 C-77 58 -77 58 -75.3125 55.9375 C-73.78325956 54.10420068 -73.78325956 54.10420068 -74.125 51.9375 C-74.88344333 49.9052161 -74.88344333 49.9052161 -76.625 48.5625 C-77.305625 47.7890625 -77.305625 47.7890625 -78 47 C-77.6875 44.3125 -77.6875 44.3125 -77 42 C-73.21630285 42.70068466 -71.60990747 43.83405552 -68 46 C-65.36 42.7 -62.72 39.4 -60 36 C-60.99 34.02 -60.99 34.02 -62 32 C-61.625 29.25 -61.625 29.25 -61 27 C-58.03824877 27.61277612 -56.61941217 28.25372522 -54 30 C-51.03 27.36 -48.06 24.72 -45 22 C-45.99 20.02 -45.99 20.02 -47 18 C-46.625 15.25 -46.625 15.25 -46 13 C-43.5625 13.375 -43.5625 13.375 -41 14 C-40.505 14.99 -40.505 14.99 -40 16 C-35.99822092 15.38434168 -33.30464252 13.2270417 -30 11 C-29.34 11 -28.68 11 -28 11 C-28.495 10.1646875 -28.495 10.1646875 -29 9.3125 C-30.1309601 6.69715478 -30.15662974 4.8193354 -30 2 C-28.35 2 -26.7 2 -25 2 C-24.01 4.475 -24.01 4.475 -23 7 C-22.21625 6.835 -21.4325 6.67 -20.625 6.5 C-14.74066717 5.68836789 -8.754507 5.32933668 -3 7 C-2.5359375 5.5459375 -2.5359375 5.5459375 -2.0625 4.0625 C-1 1 -1 1 0 0 Z " fill="#F8C169" transform="translate(755,299)"/>
<path d="M0 0 C4.00451517 3.88034416 6.15183687 7.16907033 6.3125 12.75 C6.25622052 17.6322451 5.29587855 20.25873246 2 24 C-1.92125544 27.73890168 -4.57626414 28.55816999 -9.94921875 28.90625 C-10.62735626 28.95628677 -11.30549377 29.00632355 -12.00418091 29.05787659 C-13.46772203 29.16453597 -14.93184756 29.26340734 -16.39639282 29.35525513 C-20.31662728 29.60292309 -24.23210674 29.91248771 -28.1484375 30.21484375 C-28.95624161 30.2757872 -29.76404572 30.33673065 -30.59632874 30.39952087 C-38.61357464 31.0168963 -46.59878567 31.86377351 -54.5843811 32.80126953 C-56.0600942 32.97428598 -57.5361495 33.14441008 -59.01254272 33.31152344 C-61.07825834 33.54576075 -63.14271711 33.78890639 -65.20703125 34.03515625 C-66.3772583 34.1731665 -67.54748535 34.31117676 -68.75317383 34.45336914 C-74.87207128 35.45152342 -74.87207128 35.45152342 -79.8125 38.875 C-81.23682271 41.20627122 -81.23682271 41.20627122 -82 45 C-95.365 47.475 -95.365 47.475 -109 50 C-109.99 48.68 -110.98 47.36 -112 46 C-118.45616478 44.36845293 -123.1626772 45.49928778 -129.375 47.5625 C-130.66905762 47.97205933 -130.66905762 47.97205933 -131.98925781 48.38989258 C-134.66546141 49.24263325 -137.33302502 50.11886683 -140 51 C-141.67441817 51.54445846 -143.34889548 52.08873509 -145.0234375 52.6328125 C-175.56558986 62.64354226 -206.03915144 75.73668364 -233.0546875 93.2578125 C-233.91787598 93.81533203 -234.78106445 94.37285156 -235.67041016 94.94726562 C-237.35825 96.04501647 -239.0380427 97.15526587 -240.70849609 98.27929688 C-241.46984863 98.77751953 -242.23120117 99.27574219 -243.015625 99.7890625 C-243.68883789 100.23975098 -244.36205078 100.69043945 -245.05566406 101.15478516 C-247 102 -247 102 -248.97143555 101.83129883 C-251.43516955 100.82166899 -253.31246711 99.51134175 -255.44140625 97.91015625 C-256.27220703 97.29076172 -257.10300781 96.67136719 -257.95898438 96.03320312 C-259.24772461 95.05770508 -259.24772461 95.05770508 -260.5625 94.0625 C-262.27180792 92.78211476 -263.98143009 91.5021489 -265.69140625 90.22265625 C-266.44623291 89.65297119 -267.20105957 89.08328613 -267.97875977 88.49633789 C-269.61798087 87.28281136 -271.30300646 86.13132903 -273 85 C-271.65090448 80.95271344 -268.99995767 79.70622678 -265.5625 77.5 C-264.89581299 77.06494141 -264.22912598 76.62988281 -263.54223633 76.18164062 C-240.70219321 61.37903323 -217.12166251 48.3030527 -192.25 37.25 C-191.22060303 36.78988525 -190.19120605 36.32977051 -189.13061523 35.85571289 C-183.12660956 33.21986652 -177.10719915 30.96703907 -170.86645508 28.95874023 C-168.15279856 28.05110637 -165.51890277 27.04007322 -162.87109375 25.95703125 C-128.29395392 11.84405338 -89.93449339 4.75954367 -53 0.125 C-51.77598984 -0.03032196 -51.77598984 -0.03032196 -50.5272522 -0.18878174 C-9.42148608 -5.33291665 -9.42148608 -5.33291665 0 0 Z " fill="#FD798B" transform="translate(617,157)"/>
<path d="M0 0 C1.32 0.33 2.64 0.66 4 1 C3.21824485 5.84688192 1.60155722 10.3766367 0 15 C1.98 16.32 3.96 17.64 6 19 C10.41756458 17.08807 13.42362201 13.95434136 16.87890625 10.6796875 C19 9 19 9 22 9 C22.495 10.485 22.495 10.485 23 12 C19 16 15 20 11 24 C11.9590625 25.60875 11.9590625 25.60875 12.9375 27.25 C14.5671548 29.9836145 15.19545912 31.78183646 16 35 C20.95 35 25.9 35 31 35 C30.67 36.32 30.34 37.64 30 39 C25.71 39.66 21.42 40.32 17 41 C16.67 45.95 16.34 50.9 16 56 C19.3 57.98 22.6 59.96 26 62 C25.67 63.32 25.34 64.64 25 66 C21.98782888 65.35550393 19.48344164 64.34977818 16.75 62.9375 C16.04359375 62.57527344 15.3371875 62.21304688 14.609375 61.83984375 C14.07828125 61.56269531 13.5471875 61.28554687 13 61 C12.58427734 62.68029297 12.58427734 62.68029297 12.16015625 64.39453125 C11.79433333 65.86720302 11.42844447 67.33985842 11.0625 68.8125 C10.88009766 69.55048828 10.69769531 70.28847656 10.50976562 71.04882812 C9.7577385 74.07060984 8.98514427 77.04456718 8 80 C10.97 80 13.94 80 17 80 C17.33 81.32 17.66 82.64 18 84 C17 85 17 85 14.49609375 85.09765625 C13.48675781 85.08605469 12.47742188 85.07445312 11.4375 85.0625 C10.42558594 85.05347656 9.41367187 85.04445313 8.37109375 85.03515625 C7.58863281 85.02355469 6.80617188 85.01195312 6 85 C5.16209211 86.78953185 4.32980604 88.58169695 3.5 90.375 C3.0359375 91.37273437 2.571875 92.37046875 2.09375 93.3984375 C0.8708127 95.83692626 0.8708127 95.83692626 1 98 C3.01608167 99.81240747 3.01608167 99.81240747 5.5 101.625 C6.75296875 102.57246094 6.75296875 102.57246094 8.03125 103.5390625 C8.6809375 104.02117187 9.330625 104.50328125 10 105 C9.505 106.98 9.505 106.98 9 109 C6.13132769 107.61735163 3.43975968 106.07851447 0.75 104.375 C-0.30960938 103.70597656 -0.30960938 103.70597656 -1.390625 103.0234375 C-1.92171875 102.68570313 -2.4528125 102.34796875 -3 102 C-3.25652344 102.87269531 -3.51304687 103.74539062 -3.77734375 104.64453125 C-5.01988029 108.05455965 -6.55137072 110.67710398 -8.5625 113.6875 C-10.4456736 116.51813309 -11.92328158 118.76984475 -13 122 C-10.03 122.66 -7.06 123.32 -4 124 C-3.67 125.32 -3.34 126.64 -3 128 C-4.39613065 127.85704109 -5.79189308 127.71048442 -7.1875 127.5625 C-8.35345703 127.44068359 -8.35345703 127.44068359 -9.54296875 127.31640625 C-12.04640786 126.99402379 -14.52490524 126.49501895 -17 126 C-18.98 128.97 -20.96 131.94 -23 135 C-21.989375 136.4025 -20.97875 137.805 -19.9375 139.25 C-16.92211538 143.43461538 -16.92211538 143.43461538 -17.31640625 146.296875 C-17.54199219 146.85890625 -17.76757812 147.4209375 -18 148 C-22.20763224 146.4972742 -23.8027758 143.76667005 -26 140 C-26 139.34 -26 138.68 -26 138 C-26.61746094 138.37253906 -27.23492188 138.74507812 -27.87109375 139.12890625 C-34.21262196 142.67128198 -37.87830998 143.49325759 -45 142 C-45.99 146.62 -46.98 151.24 -48 156 C-49.32 156 -50.64 156 -52 156 C-52 152.04 -52 148.08 -52 144 C-54.0728125 143.071875 -54.0728125 143.071875 -56.1875 142.125 C-56.96480469 141.77695313 -57.74210938 141.42890625 -58.54296875 141.0703125 C-61.00741942 139.99676801 -63.50413879 138.99834448 -66 138 C-71.445 143.445 -71.445 143.445 -77 149 C-77.99 148.67 -78.98 148.34 -80 148 C-79.48223379 143.89552608 -77.35372556 142.04300477 -74.4375 139.25 C-73.61121094 138.45078125 -72.78492188 137.6515625 -71.93359375 136.828125 C-71.29550781 136.22484375 -70.65742187 135.6215625 -70 135 C-70.30679688 134.25363281 -70.61359375 133.50726563 -70.9296875 132.73828125 C-72.17815118 129.54421907 -73.0926672 126.30528378 -74 123 C-79.94 123.495 -79.94 123.495 -86 124 C-86.33 122.68 -86.66 121.36 -87 120 C-86 119 -86 119 -83.71484375 118.90234375 C-82.79832031 118.91394531 -81.88179687 118.92554688 -80.9375 118.9375 C-79.55884766 118.95103516 -79.55884766 118.95103516 -78.15234375 118.96484375 C-77.08693359 118.98224609 -77.08693359 118.98224609 -76 119 C-75.47023414 114.22556697 -75.19229453 109.75120867 -76 105 C-78.59808434 102.06259471 -81.40305703 100.49872624 -85 99 C-84.67 98.01 -84.34 97.02 -84 96 C-79.86117858 96.60865021 -76.69990949 98.08855092 -73 100 C-71.66094733 98.2126038 -70.32890934 96.41995047 -69 94.625 C-68.2575 93.62726563 -67.515 92.62953125 -66.75 91.6015625 C-64.8139515 89.24598283 -64.8139515 89.24598283 -65 87 C-68.3 85.68 -71.6 84.36 -75 83 C-74.67 82.01 -74.34 81.02 -74 80 C-69.03083364 80.51405169 -64.70973649 81.23384882 -60 83 C-59.7525 82.34 -59.505 81.68 -59.25 81 C-57.92905339 77.82972813 -56.36217965 74.87335809 -54.70703125 71.8671875 C-53.70813225 69.82279206 -53.70813225 69.82279206 -55 67 C-56.85804317 65.55129381 -56.85804317 65.55129381 -59.0625 64.3125 C-59.79597656 63.87550781 -60.52945313 63.43851563 -61.28515625 62.98828125 C-61.85105469 62.66214844 -62.41695312 62.33601563 -63 62 C-62.67 60.68 -62.34 59.36 -62 58 C-58.20774749 59.4499789 -54.62189716 61.16898551 -51 63 C-50.47599609 61.31970703 -50.47599609 61.31970703 -49.94140625 59.60546875 C-49.48178595 58.13280778 -49.0221497 56.66015179 -48.5625 55.1875 C-48.33240234 54.44951172 -48.10230469 53.71152344 -47.86523438 52.95117188 C-46.9312816 49.95981589 -45.99100896 46.97302688 -45 44 C-48.3 43.34 -51.6 42.68 -55 42 C-55.33 40.68 -55.66 39.36 -56 38 C-52.04 38 -48.08 38 -44 38 C-43.13375 35.4321875 -43.13375 35.4321875 -42.25 32.8125 C-40.71667859 28.56300923 -39.18317191 25.29685662 -36 22 C-37.18517211 19.1986841 -38.67593621 17.17815856 -40.6875 14.9375 C-41.450625 13.968125 -42.21375 12.99875 -43 12 C-42.67 11.01 -42.34 10.02 -42 9 C-38.40094092 9.55550695 -37.00090201 10.74887248 -34.75 13.5625 C-34.22921875 14.20316406 -33.7084375 14.84382813 -33.171875 15.50390625 C-32.78515625 15.99761719 -32.3984375 16.49132812 -32 17 C-31.30132813 16.71125 -30.60265625 16.4225 -29.8828125 16.125 C-28.97273437 15.75375 -28.06265625 15.3825 -27.125 15 C-26.22007812 14.62875 -25.31515625 14.2575 -24.3828125 13.875 C-22 13 -22 13 -20 13 C-20.495 11.6696875 -20.495 11.6696875 -21 10.3125 C-21.91222143 7.29076653 -22.18330958 5.11626294 -22 2 C-20.109375 2.24609375 -20.109375 2.24609375 -18 3 C-16.55036313 5.55850089 -15.89599095 8.1776285 -15 11 C-10.05 11.495 -10.05 11.495 -5 12 C-3.35 8.04 -1.7 4.08 0 0 Z " fill="#EC7145" transform="translate(734,82)"/>
<path d="M0 0 C53.8349359 0 53.8349359 0 70.59375 16.33984375 C77.81471965 24.32276636 81.35801556 32.6451255 84 43 C84.19078125 43.65742187 84.3815625 44.31484375 84.578125 44.9921875 C87.34812861 58.17535282 83.54161937 72.71232985 76.6875 84.0625 C67.93445773 96.47829602 55.90295321 104.59465688 41 108 C27.39711414 109.36028859 13.6707311 109 0 109 C0 73.03 0 37.06 0 0 Z " fill="#BF4747" transform="translate(678,607)"/>
<path d="M0 0 C48.4 0 48.4 0 58 8 C64.4578335 15.67197659 64.72929339 23.2235852 64.22216797 32.93261719 C63.50833125 39.57522087 60.07638932 44.32237992 55.1875 48.625 C54.135625 49.40875 53.08375 50.1925 52 51 C52.73605469 51.24234375 53.47210937 51.4846875 54.23046875 51.734375 C63.37325804 54.87456683 68.5697233 58.27576281 73 67 C75.7032826 75.14385135 74.644273 84.71521436 71.37109375 92.49609375 C66.13806947 102.05269935 59.5084024 103.95830677 49 108 C32.83 108 16.66 108 0 108 C0 72.36 0 36.72 0 0 Z " fill="#BF4747" transform="translate(779,607)"/>
<path d="M0 0 C2.33984375 1.5625 2.33984375 1.5625 6.33984375 5.5625 C3.36984375 10.5125 0.39984375 15.4625 -2.66015625 20.5625 C-7.41195548 19.37455019 -11.26272541 17.28724981 -15.58984375 15.03515625 C-25.13446452 10.4571384 -36.02200822 9.73178382 -46.2578125 12.5546875 C-54.24544299 16.12942984 -59.13552744 21.51477239 -62.49414062 29.56030273 C-64.54564501 35.11403549 -65.13957793 40.10557624 -65.03515625 46 C-65.02500488 46.83257324 -65.01485352 47.66514648 -65.00439453 48.52294922 C-64.7258957 59.56143381 -61.7021693 68.33375807 -53.890625 76.38671875 C-47.15517522 82.44715613 -39.88022526 83.97077429 -30.83984375 83.84765625 C-24.64324367 83.03698993 -17.89759715 80.16315012 -13.66015625 75.5625 C-10.40612355 70.18546591 -8.70505118 65.83186956 -7.66015625 59.5625 C-16.90015625 59.5625 -26.14015625 59.5625 -35.66015625 59.5625 C-35.66015625 53.9525 -35.66015625 48.3425 -35.66015625 42.5625 C-19.16015625 42.5625 -2.66015625 42.5625 14.33984375 42.5625 C14.33984375 71.79794974 14.33984375 71.79794974 9.33984375 79.5625 C8.89382812 80.28824219 8.4478125 81.01398438 7.98828125 81.76171875 C1.25077073 91.64214619 -7.67906076 97.23619638 -18.66015625 101.5625 C-19.5521875 101.93761719 -20.44421875 102.31273437 -21.36328125 102.69921875 C-32.62526551 105.64815065 -47.21949452 105.20761949 -57.80859375 100.234375 C-72.08672353 91.86308795 -80.55183953 81.89165151 -86.66015625 66.5625 C-87.0365625 65.69238281 -87.41296875 64.82226562 -87.80078125 63.92578125 C-91.70787765 48.63482672 -89.50485467 30.98710727 -81.91015625 17.3125 C-73.96439246 5.0867238 -63.00485965 -3.76987073 -48.87451172 -7.96801758 C-31.88899695 -11.56924634 -14.89637229 -8.24340602 0 0 Z " fill="#BF4848" transform="translate(206.66015625,613.4375)"/>
<path d="M0 0 C2.27465134 2.27465134 3.74743977 3.96647623 5.42578125 6.59765625 C5.88557373 7.30784912 6.34536621 8.01804199 6.8190918 8.74975586 C7.3119165 9.51296143 7.80474121 10.27616699 8.3125 11.0625 C14.24382887 20.10408149 20.70474755 28.63385305 27.45898438 37.07275391 C28.76905697 38.71117486 30.0656827 40.36033338 31.359375 42.01171875 C41.57494881 54.85799484 53.30926229 66.50519644 65 78 C63.59162427 81.21109666 61.91964364 83.29599049 59.40234375 85.72265625 C58.68755859 86.42060303 57.97277344 87.1185498 57.23632812 87.83764648 C56.47771484 88.57184814 55.71910156 89.3060498 54.9375 90.0625 C49.23331515 95.66737304 43.87893043 101.25795273 38.94921875 107.55859375 C37.00651929 109.99183455 34.94646549 112.23387635 32.8125 114.5 C22.33826894 126.0307622 13.64983419 139.2913136 4.99902344 152.20874023 C4.48758789 152.96872314 3.97615234 153.72870605 3.44921875 154.51171875 C2.99893311 155.18678467 2.54864746 155.86185059 2.0847168 156.55737305 C1.54778198 157.27147339 1.54778198 157.27147339 1 158 C0.67 158 0.34 158 0 158 C0 105.86 0 53.72 0 0 Z " fill="#FEFAF4" transform="translate(218,190)"/>
<path d="M0 0 C2.70531528 2.45185362 4.9012055 5.01603752 7 8 C7.65162109 8.91265625 7.65162109 8.91265625 8.31640625 9.84375 C12.64368424 17.44287232 12.15625242 27.57196107 11 36 C8.27888711 45.50849258 2.22632483 52.27313173 -6.1796875 57.3046875 C-8.09756845 58.29619576 -10.00337807 59.18024872 -12 60 C-13.14142456 60.50575562 -13.14142456 60.50575562 -14.3059082 61.02172852 C-22.79456531 64.10410722 -35.86899759 63.7115651 -44.34375 60.71484375 C-55.33257145 55.47126482 -62.51500253 48.31836271 -67 37 C-69.56549309 28.94172042 -68.76838144 19.87877804 -65.265625 12.28125 C-59.49870298 1.88655104 -51.59344045 -4.28805698 -40.5 -8.25 C-26.09724313 -11.40949805 -11.82636241 -8.78529779 0 0 Z " fill="#BF4848" transform="translate(367,655)"/>
<path d="M0 0 C7.59 0 15.18 0 23 0 C24.69769531 3.72023438 24.69769531 3.72023438 26.4296875 7.515625 C27.5283114 9.92179069 28.62718093 12.32784405 29.72607422 14.73388672 C30.48870104 16.40401677 31.2510731 18.07426318 32.01318359 19.74462891 C33.10967871 22.14776879 34.20709418 24.55048654 35.3046875 26.953125 C35.6443454 27.69806213 35.9840033 28.44299927 36.33395386 29.21051025 C36.81422531 30.26114655 36.81422531 30.26114655 37.30419922 31.33300781 C37.58399628 31.94589661 37.86379333 32.5587854 38.15206909 33.19024658 C39.0677215 35.14453916 40.02739057 37.07350624 41 39 C41.47945068 37.854104 41.95890137 36.70820801 42.45288086 35.52758789 C44.22644733 31.29054535 46.00323017 27.05485804 47.78100586 22.81958008 C48.55109554 20.98368759 49.32030353 19.14742502 50.08862305 17.31079102 C51.19089812 14.67627543 52.29630078 12.04309179 53.40234375 9.41015625 C53.74716293 8.58411392 54.09198212 7.75807159 54.44725037 6.90699768 C56.88612829 1.11387171 56.88612829 1.11387171 58 0 C60.35313555 -0.07271741 62.70833668 -0.08370868 65.0625 -0.0625 C66.99802734 -0.04896484 66.99802734 -0.04896484 68.97265625 -0.03515625 C69.97167969 -0.02355469 70.97070312 -0.01195312 72 0 C76.35451801 8.43219249 80.22852018 16.9905213 83.875 25.75 C84.37257813 26.9359375 84.87015625 28.121875 85.3828125 29.34375 C86.59219475 32.22766152 87.79785895 35.11306437 89 38 C91.93744628 34.49334639 93.70080787 30.5720082 95.5390625 26.42578125 C95.86538666 25.70134323 96.19171082 24.97690521 96.52792358 24.23051453 C97.56497591 21.92658363 98.5953808 19.61976116 99.625 17.3125 C100.66269474 14.99496574 101.70180286 12.67808865 102.74349976 10.36235046 C103.39043929 8.92340053 104.03489762 7.48333206 104.67666626 6.04206848 C106.88846758 1.11153242 106.88846758 1.11153242 108 0 C109.70772358 -0.08713831 111.41898649 -0.10700007 113.12890625 -0.09765625 C114.68061523 -0.09282227 114.68061523 -0.09282227 116.26367188 -0.08789062 C117.35228516 -0.07951172 118.44089844 -0.07113281 119.5625 -0.0625 C121.2012207 -0.05573242 121.2012207 -0.05573242 122.87304688 -0.04882812 C125.58208495 -0.03699826 128.29101599 -0.02051543 131 0 C125.61066693 10.82747928 120.16067547 21.6215854 114.625 32.375 C114.25859406 33.08735809 113.89218811 33.79971619 113.51467896 34.53366089 C107.88227168 45.47350235 102.11372578 56.31975668 96 67 C91.38 67 86.76 67 82 67 C77.89140551 59.10717374 74.19783171 51.08505184 70.625 42.9375 C70.17205566 41.91390381 69.71911133 40.89030762 69.25244141 39.83569336 C68.83140137 38.86768799 68.41036133 37.89968262 67.9765625 36.90234375 C67.59580566 36.03085693 67.21504883 35.15937012 66.82275391 34.26147461 C66 32 66 32 66 29 C65.34 29 64.68 29 64 29 C63.90017822 29.66604248 63.80035645 30.33208496 63.69750977 31.01831055 C62.82029037 34.76821619 61.36309375 38.18552671 59.83984375 41.70703125 C59.53051407 42.43242599 59.22118439 43.15782074 58.90248108 43.90519714 C57.91861847 46.20957108 56.92816731 48.51104444 55.9375 50.8125 C55.26714053 52.37937015 54.59721384 53.94642552 53.92773438 55.51367188 C52.2901605 59.34461122 50.64667391 63.17296387 49 67 C44.05 67 39.1 67 34 67 C33.17757812 65.41574219 32.35515625 63.83148437 31.5078125 62.19921875 C26.31712998 52.2054747 21.12545127 42.21250515 15.875 32.25 C15.48473633 31.5084668 15.09447266 30.76693359 14.69238281 30.00292969 C12.44853854 25.74127951 10.19579381 21.48448043 7.9375 17.23046875 C6.91658155 15.29952417 5.89574653 13.36853547 4.875 11.4375 C4.3888623 10.52581055 3.90272461 9.61412109 3.40185547 8.67480469 C2.95729004 7.83208008 2.51272461 6.98935547 2.0546875 6.12109375 C1.65749512 5.3727124 1.26030273 4.62433105 0.85107422 3.85327148 C0 2 0 2 0 0 Z " fill="#BF4847" transform="translate(384,648)"/>
<path d="M0 0 C6.6 0 13.2 0 20 0 C20.33 17.16 20.66 34.32 21 52 C23.97 50.02 26.94 48.04 30 46 C37.33142208 43.06743117 45.78412753 42.80619816 53.54296875 44.58203125 C59.72943431 47.28629464 65.23708503 53.26172278 68.08981323 59.31095886 C69.0577094 62.17049573 69.24169595 64.33148197 69.22705078 67.34106445 C69.22689972 68.3817659 69.22674866 69.42246735 69.22659302 70.4947052 C69.21627045 71.6063353 69.20594788 72.71796539 69.1953125 73.86328125 C69.1924826 75.01040085 69.18965271 76.15752045 69.18673706 77.33940125 C69.17555697 80.99720768 69.15045595 84.65476778 69.125 88.3125 C69.11496741 90.79491833 69.10584205 93.27734051 69.09765625 95.75976562 C69.07562467 101.83993842 69.04110935 107.91992747 69 114 C62.4 114 55.8 114 49 114 C48.97421875 110.82117188 48.9484375 107.64234375 48.921875 104.3671875 C48.88343252 101.27920784 48.83827928 98.19139391 48.79248047 95.10351562 C48.76430256 92.96199491 48.74307225 90.82037082 48.72900391 88.67871094 C48.70753075 85.59516593 48.66085683 82.51285982 48.609375 79.4296875 C48.60814636 78.47633514 48.60691772 77.52298279 48.60565186 76.54074097 C48.48177461 70.88370126 47.85841222 67.43954064 44 63 C40.57670149 60.71780099 39.15862332 60.70258837 35.125 60.6875 C34.09632813 60.67074219 33.06765625 60.65398438 32.0078125 60.63671875 C28.49102833 61.0614732 26.75758645 61.77990922 24 64 C20.54248957 69.3142925 20.53033141 74.08115771 20.48828125 80.2109375 C20.47033005 81.17907379 20.45237885 82.14721008 20.43388367 83.14468384 C20.37992205 86.22141227 20.34593011 89.2979868 20.3125 92.375 C20.27931447 94.46746926 20.24482367 96.55991826 20.20898438 98.65234375 C20.12175838 103.7682496 20.06156827 108.88346425 20 114 C13.4 114 6.8 114 0 114 C0 76.38 0 38.76 0 0 Z " fill="#BF4848" transform="translate(583,602)"/>
<path d="M0 0 C5.55515346 3.99971049 10.66900933 8.30789236 15.703125 12.94921875 C17.73259382 14.76124448 19.79626429 16.40785149 22 18 C20.5044728 21.62278134 18.45677042 23.59460585 15.50390625 26.1328125 C10.11922889 30.86266202 5.00202607 35.80558586 -0.0625 40.875 C-1.38326538 42.19697388 -1.38326538 42.19697388 -2.73071289 43.5456543 C-7.75200189 48.61465373 -12.51534633 53.6865141 -16.88671875 59.328125 C-19.0289954 62.03665962 -21.28254563 64.60222884 -23.57861328 67.1796875 C-40.8107864 86.59168269 -54.63817426 108.82516527 -68 131 C-69.53649083 133.54485084 -71.07864726 136.08613259 -72.625 138.625 C-73.25664062 139.66914063 -73.88828125 140.71328125 -74.5390625 141.7890625 C-75.26222656 142.88347656 -75.26222656 142.88347656 -76 144 C-76.33 144 -76.66 144 -77 144 C-77.20018979 138.15099331 -77.34404829 132.30404826 -77.43945312 126.45239258 C-77.47928549 124.46896567 -77.53357473 122.48576738 -77.60351562 120.50317383 C-78.07800443 106.69066505 -76.80261761 97.45139077 -69 86 C-68.20482911 84.75178524 -67.41420379 83.50066422 -66.62792969 82.24682617 C-64.60436219 79.04983612 -62.51880894 75.90025721 -60.40087891 72.76513672 C-59.12428142 70.87393546 -57.86029013 68.9747636 -56.59765625 67.07421875 C-51.05509614 58.77994197 -45.17031408 50.83848096 -39 43 C-38.29496338 42.09282227 -37.58992676 41.18564453 -36.86352539 40.25097656 C-32.38312518 34.4957546 -27.54259676 29.13843563 -22.58203125 23.80078125 C-20.54384943 21.58992442 -18.56956947 19.35448634 -16.625 17.0625 C-11.43339648 11.0545264 -5.64902388 5.57257092 0 0 Z " fill="#FC798A" transform="translate(295,280)"/>
<path d="M0 0 C6.6 0 13.2 0 20 0 C20.03738281 3.02285156 20.07476562 6.04570313 20.11328125 9.16015625 C20.15955268 12.10252938 20.21076593 15.04477812 20.26245117 17.98706055 C20.29561184 20.02474345 20.32367112 22.06251624 20.34643555 24.1003418 C20.38014462 27.03733463 20.43246874 29.97351023 20.48828125 32.91015625 C20.49467117 33.81459976 20.5010611 34.71904327 20.50764465 35.65089417 C20.63435817 41.15856457 21.34048955 45.13858476 24 50 C27.85293465 52.77769708 31.3846288 53.54751561 36.04296875 53.3515625 C40.51965326 52.54736768 43.26234096 50.04289727 45.8125 46.4375 C47.41416088 43.1498803 48.12741765 40.51275178 48.20532227 36.89575195 C48.22526749 36.07512772 48.24521271 35.25450348 48.26576233 34.40901184 C48.28247482 33.52767075 48.29918732 32.64632965 48.31640625 31.73828125 C48.33718735 30.83248825 48.35796844 29.92669525 48.37937927 28.99345398 C48.44476558 26.09987984 48.50370904 23.20621493 48.5625 20.3125 C48.6056956 18.35090207 48.64931023 16.38931332 48.69335938 14.42773438 C48.80122443 9.61858126 48.90037907 4.80935927 49 0 C55.6 0 62.2 0 69 0 C69 22.44 69 44.88 69 68 C62.4 68 55.8 68 49 68 C48.505 64.535 48.505 64.535 48 61 C47.54109375 61.40992188 47.0821875 61.81984375 46.609375 62.2421875 C45.99578125 62.78101563 45.3821875 63.31984375 44.75 63.875 C44.14671875 64.40867187 43.5434375 64.94234375 42.921875 65.4921875 C38.55376824 68.91919809 35.45281139 69.25154585 29.875 69.1875 C28.63492188 69.18105469 27.39484375 69.17460938 26.1171875 69.16796875 C23 69 23 69 21 68 C20.67 74.6 20.34 81.2 20 88 C12.08 88 4.16 88 -4 88 C-4.10957444 80.89195364 -4.02434431 74.1230296 -2.98364258 67.09716797 C0.29327102 44.94333239 -0.25813178 22.34175056 0 0 Z " fill="#BF4747" transform="translate(26,648)"/>
<path d="M0 0 C1.67542976 0.28604898 3.34385343 0.61781233 5 1 C4.44271087 4.34373475 3.64826111 7.03312999 2 10 C2.70125 10.226875 3.4025 10.45375 4.125 10.6875 C7 12 7 12 9.75 14.6875 C13.2766242 17.19682875 13.82656222 17.28206802 17.875 16.8125 C19.25507163 16.56882399 20.63259929 16.30690549 22 16 C22.33 17.65 22.66 19.3 23 21 C20.525 21.99 20.525 21.99 18 23 C18.7425 24.8253125 18.7425 24.8253125 19.5 26.6875 C20.72479441 29.92486738 21.32803185 32.50099357 21 36 C22.175625 35.938125 22.175625 35.938125 23.375 35.875 C26 36 26 36 28 38 C27.46428571 41.53571429 27.46428571 41.53571429 26 43 C24.33382885 43.04063832 22.66611905 43.042721 21 43 C21.04125 43.845625 21.0825 44.69125 21.125 45.5625 C20.98464972 49.42213269 20.17219836 52.33688013 19 56 C19.99 56.598125 20.98 57.19625 22 57.8125 C22.99 58.534375 23.98 59.25625 25 60 C25 60.99 25 61.98 25 63 C20.06729471 64.6442351 17.45975807 63.18615592 13 61 C12.814375 61.556875 12.62875 62.11375 12.4375 62.6875 C10.33639286 66.06754192 7.29334006 67.85140381 4 70 C4.680625 70.721875 5.36125 71.44375 6.0625 72.1875 C8 75 8 75 7.75 77.8125 C7.37875 78.8953125 7.37875 78.8953125 7 80 C4.41895019 79.53909825 3.06556549 79.05327196 1 77.375 C-0.86193542 75.83000517 -0.86193542 75.83000517 -2.9375 75.9375 C-6.15212343 77.59351813 -7.81137056 80.14262267 -10 83 C-9.34 83.556875 -8.68 84.11375 -8 84.6875 C-6 87 -6 87 -5.75 89.75 C-5.8325 90.4925 -5.915 91.235 -6 92 C-10.55384615 92.36923077 -10.55384615 92.36923077 -12.8125 90.5 C-13.204375 90.005 -13.59625 89.51 -14 89 C-17.69790046 90.23263349 -17.9354846 91.20052451 -19.6875 94.5625 C-20.12449219 95.38878906 -20.56148437 96.21507812 -21.01171875 97.06640625 C-21.33785156 97.70449219 -21.66398438 98.34257812 -22 99 C-21.50886719 99.43957031 -21.01773438 99.87914062 -20.51171875 100.33203125 C-19 102 -19 102 -18.8125 104.6875 C-18.9053125 105.8321875 -18.9053125 105.8321875 -19 107 C-22.12290635 106.51421457 -24.99580359 106.0013988 -28 105 C-30.29769316 106.18270001 -30.29769316 106.18270001 -32.6875 107.875 C-37.31360394 110.809621 -40.56067775 111.79854362 -46 112 C-46 113.65 -46 115.3 -46 117 C-47.65614657 117.38218767 -49.32457024 117.71395102 -51 118 C-52 117 -52 117 -52.0625 114.4375 C-52.041875 113.633125 -52.02125 112.82875 -52 112 C-54.31 112 -56.62 112 -59 112 C-59.185625 112.804375 -59.37125 113.60875 -59.5625 114.4375 C-63.43819335 124.04247918 -70.71453184 129.27704777 -79 135 C-84.45496845 138.98825502 -87.4390836 142.73283274 -90 149 C-90.4125 149.99 -90.825 150.98 -91.25 152 C-91.4975 152.66 -91.745 153.32 -92 154 C-93.32 154 -94.64 154 -96 154 C-97.50574487 149.59859193 -96.83184695 147.03561582 -94.875 143 C-91.07722034 136.06853329 -86.9486194 131.78251455 -80.34375 127.56640625 C-73.9480982 123.29197896 -67.6389831 118.19011316 -65.25 110.625 C-65.1675 110.08875 -65.085 109.5525 -65 109 C-68.59245526 105.96958432 -68.59245526 105.96958432 -72.9609375 105.18359375 C-75.38936714 106.15589604 -76.92690416 107.38031979 -78.875 109.125 C-79.51179687 109.68445313 -80.14859375 110.24390625 -80.8046875 110.8203125 C-87.77060357 117.73664909 -91.98305428 125.17719836 -96.41210938 133.90625 C-100.95895599 142.58280134 -106.39432959 149.79810986 -116 153 C-118.9985905 153.5511428 -121.95580101 153.85906486 -125 154 C-125.33 152.35 -125.66 150.7 -126 149 C-125.41992188 148.82984375 -124.83984375 148.6596875 -124.2421875 148.484375 C-119.22154385 146.92681558 -115.31590422 145.08278873 -111 142 C-110.01 141.67 -109.02 141.34 -108 141 C-106.87711078 139.17411335 -106.87711078 139.17411335 -106 137 C-99.08728108 123.04152811 -92.12756773 109.22392648 -79 100 C-78.34 100 -77.68 100 -77 100 C-77.66 98.02 -78.32 96.04 -79 94 C-90.21949976 98.57516486 -95.7476744 106.02739023 -102.390625 115.82421875 C-104.28130894 118.3803133 -106.35687229 120.23791486 -109 122 C-110.32 121.34 -111.64 120.68 -113 120 C-112.41091489 116.57122257 -111.2517706 114.87966857 -108.875 112.375 C-106.12908095 109.37792982 -103.84300481 106.34224103 -101.625 102.9375 C-97.45270879 96.82504628 -91.86969963 91.91017825 -85 89 C-84.01 89 -83.02 89 -82 89 C-82.16242187 88.31164062 -82.32484375 87.62328125 -82.4921875 86.9140625 C-83.0552271 83.68308138 -83.13253694 80.65357019 -83.125 77.375 C-83.12886719 75.68503906 -83.12886719 75.68503906 -83.1328125 73.9609375 C-83 71 -83 71 -82 68 C-84.31 67.34 -86.62 66.68 -89 66 C-88.67 64.35 -88.34 62.7 -88 61 C-85.03 61.66 -82.06 62.32 -79 63 C-78.731875 62.2575 -78.46375 61.515 -78.1875 60.75 C-77 58 -77 58 -75.3125 55.9375 C-73.78325956 54.10420068 -73.78325956 54.10420068 -74.125 51.9375 C-74.88344333 49.9052161 -74.88344333 49.9052161 -76.625 48.5625 C-77.305625 47.7890625 -77.305625 47.7890625 -78 47 C-77.6875 44.3125 -77.6875 44.3125 -77 42 C-73.21630285 42.70068466 -71.60990747 43.83405552 -68 46 C-65.36 42.7 -62.72 39.4 -60 36 C-60.99 34.02 -60.99 34.02 -62 32 C-61.625 29.25 -61.625 29.25 -61 27 C-58.03824877 27.61277612 -56.61941217 28.25372522 -54 30 C-51.03 27.36 -48.06 24.72 -45 22 C-45.99 20.02 -45.99 20.02 -47 18 C-46.625 15.25 -46.625 15.25 -46 13 C-43.5625 13.375 -43.5625 13.375 -41 14 C-40.505 14.99 -40.505 14.99 -40 16 C-35.99822092 15.38434168 -33.30464252 13.2270417 -30 11 C-29.34 11 -28.68 11 -28 11 C-28.495 10.1646875 -28.495 10.1646875 -29 9.3125 C-30.1309601 6.69715478 -30.15662974 4.8193354 -30 2 C-28.35 2 -26.7 2 -25 2 C-24.01 4.475 -24.01 4.475 -23 7 C-22.21625 6.835 -21.4325 6.67 -20.625 6.5 C-14.74066717 5.68836789 -8.754507 5.32933668 -3 7 C-2.5359375 5.5459375 -2.5359375 5.5459375 -2.0625 4.0625 C-1 1 -1 1 0 0 Z M-33.5 20.6875 C-34.61810059 21.48716187 -34.61810059 21.48716187 -35.75878906 22.30297852 C-41.00658326 26.12023645 -45.64716444 30.1807892 -50 35 C-51.66261974 36.67070379 -53.32955834 38.3371169 -55 40 C-60.99261096 46.01275419 -66.000641 52.13319944 -70.5 59.3125 C-70.92112061 59.98192627 -71.34224121 60.65135254 -71.77612305 61.34106445 C-76.66581211 69.37576948 -78.05011964 76.60419268 -77 86 C-74.80035649 93.38670984 -70.41831802 98.80654358 -64 103 C-57.21316407 106.60590903 -49.52113199 106.99599149 -42 106 C-32.74244329 102.69178488 -27.64310596 95.61553441 -22.09375 87.90234375 C-14.73215892 77.69775014 -6.80375606 70.20650204 3.375 62.8125 C9.24139421 58.4336986 13.48487107 53.36585757 15 46 C15.78186874 37.83805312 15.84758895 30.83142074 11 24 C10.29875 22.948125 9.5975 21.89625 8.875 20.8125 C4.32102651 15.62011901 -3.27824242 12.46152518 -10.078125 11.796875 C-10.79484375 11.78140625 -11.5115625 11.7659375 -12.25 11.75 C-13.30960938 11.71132813 -13.30960938 11.71132813 -14.390625 11.671875 C-21.84546461 12.60930992 -27.55845068 16.38330611 -33.5 20.6875 Z " fill="#090A0A" transform="translate(755,299)"/>
<path d="M0 0 C6.6 0 13.2 0 20 0 C20 8.58 20 17.16 20 26 C24.95 26 29.9 26 35 26 C35 30.95 35 35.9 35 41 C30.05 41 25.1 41 20 41 C20.0969456 45.50286816 20.1996766 50.00481746 20.31738281 54.50708008 C20.35565798 56.03857339 20.39051349 57.57015615 20.421875 59.10180664 C20.46755807 61.3038733 20.52554537 63.50532496 20.5859375 65.70703125 C20.59748871 66.39150833 20.60903992 67.07598541 20.62094116 67.78120422 C20.73273744 71.38460837 20.94394553 72.9159183 23 76 C25.43693311 76.36416047 25.43693311 76.36416047 28.125 76.1875 C29.03507813 76.16042969 29.94515625 76.13335938 30.8828125 76.10546875 C31.58148437 76.07066406 32.28015625 76.03585937 33 76 C33.70246995 77.8903376 34.38640849 79.78756828 35.0625 81.6875 C35.44535156 82.74324219 35.82820312 83.79898438 36.22265625 84.88671875 C37.0233052 88.09333792 36.9237249 89.8686307 36 93 C28.26444256 95.9752144 18.24375508 96.86921153 10.4375 93.5625 C5.68535508 90.66763442 2.01388548 85.41525678 0.4365387 80.10198975 C-0.28916299 76.60764315 -0.12091084 73.06910797 -0.09765625 69.515625 C-0.0962413 68.70003113 -0.09482635 67.88443726 -0.09336853 67.04412842 C-0.08778303 64.44604788 -0.07523321 61.84805437 -0.0625 59.25 C-0.05748312 57.48567833 -0.05292054 55.72135531 -0.04882812 53.95703125 C-0.03781835 49.63798744 -0.02056369 45.31900846 0 41 C-2.97 41 -5.94 41 -9 41 C-9 36.05 -9 31.1 -9 26 C-6.03 26 -3.06 26 0 26 C0 17.42 0 8.84 0 0 Z " fill="#BF4848" transform="translate(528,622)"/>
<path d="M0 0 C1.32 0.33 2.64 0.66 4 1 C3.21824485 5.84688192 1.60155722 10.3766367 0 15 C1.98 16.32 3.96 17.64 6 19 C10.41756458 17.08807 13.42362201 13.95434136 16.87890625 10.6796875 C19 9 19 9 22 9 C22.495 10.485 22.495 10.485 23 12 C19 16 15 20 11 24 C11.9590625 25.60875 11.9590625 25.60875 12.9375 27.25 C14.5671548 29.9836145 15.19545912 31.78183646 16 35 C20.95 35 25.9 35 31 35 C30.67 36.32 30.34 37.64 30 39 C25.71 39.66 21.42 40.32 17 41 C16.67 45.95 16.34 50.9 16 56 C19.3 57.98 22.6 59.96 26 62 C25.67 63.32 25.34 64.64 25 66 C21.98782888 65.35550393 19.48344164 64.34977818 16.75 62.9375 C16.04359375 62.57527344 15.3371875 62.21304688 14.609375 61.83984375 C14.07828125 61.56269531 13.5471875 61.28554687 13 61 C12.58427734 62.68029297 12.58427734 62.68029297 12.16015625 64.39453125 C11.79433333 65.86720302 11.42844447 67.33985842 11.0625 68.8125 C10.88009766 69.55048828 10.69769531 70.28847656 10.50976562 71.04882812 C9.7577385 74.07060984 8.98514427 77.04456718 8 80 C10.97 80 13.94 80 17 80 C17.33 81.32 17.66 82.64 18 84 C17 85 17 85 14.49609375 85.09765625 C13.48675781 85.08605469 12.47742188 85.07445312 11.4375 85.0625 C10.42558594 85.05347656 9.41367187 85.04445313 8.37109375 85.03515625 C7.58863281 85.02355469 6.80617188 85.01195312 6 85 C5.16209211 86.78953185 4.32980604 88.58169695 3.5 90.375 C3.0359375 91.37273437 2.571875 92.37046875 2.09375 93.3984375 C0.8708127 95.83692626 0.8708127 95.83692626 1 98 C3.01608167 99.81240747 3.01608167 99.81240747 5.5 101.625 C6.75296875 102.57246094 6.75296875 102.57246094 8.03125 103.5390625 C8.6809375 104.02117187 9.330625 104.50328125 10 105 C9.505 106.98 9.505 106.98 9 109 C6.13132769 107.61735163 3.43975968 106.07851447 0.75 104.375 C-0.30960938 103.70597656 -0.30960938 103.70597656 -1.390625 103.0234375 C-1.92171875 102.68570313 -2.4528125 102.34796875 -3 102 C-3.25652344 102.87269531 -3.51304687 103.74539062 -3.77734375 104.64453125 C-5.01988029 108.05455965 -6.55137072 110.67710398 -8.5625 113.6875 C-10.4456736 116.51813309 -11.92328158 118.76984475 -13 122 C-10.03 122.66 -7.06 123.32 -4 124 C-3.67 125.32 -3.34 126.64 -3 128 C-4.39613065 127.85704109 -5.79189308 127.71048442 -7.1875 127.5625 C-8.35345703 127.44068359 -8.35345703 127.44068359 -9.54296875 127.31640625 C-12.04640786 126.99402379 -14.52490524 126.49501895 -17 126 C-18.98 128.97 -20.96 131.94 -23 135 C-21.989375 136.4025 -20.97875 137.805 -19.9375 139.25 C-16.92211538 143.43461538 -16.92211538 143.43461538 -17.31640625 146.296875 C-17.54199219 146.85890625 -17.76757812 147.4209375 -18 148 C-22.20763224 146.4972742 -23.8027758 143.76667005 -26 140 C-26 139.34 -26 138.68 -26 138 C-26.68707031 138.37253906 -27.37414062 138.74507812 -28.08203125 139.12890625 C-28.98308594 139.60199219 -29.88414062 140.07507813 -30.8125 140.5625 C-31.70582031 141.03816406 -32.59914063 141.51382813 -33.51953125 142.00390625 C-36 143 -36 143 -39 142 C-38.77734375 140.15234375 -38.77734375 140.15234375 -38 138 C-36.06640625 136.75390625 -36.06640625 136.75390625 -33.5625 135.5625 C-22.69076603 129.3899606 -16.06055905 116.51396581 -10 106 C-9.34257813 104.88496094 -8.68515625 103.76992187 -8.0078125 102.62109375 C2.71333953 83.89425892 13.23975063 57.91392379 11 36 C8.44003866 27.82357176 4.19182417 23.53256043 -3 19.1875 C-9.23893553 16.76973879 -17.08106497 16.9599035 -23.47265625 18.65625 C-30.32878458 21.72103184 -34.52081414 27.26133716 -37.33227539 34.08325195 C-38.21023906 36.60350524 -38.70846426 39.17228315 -39.17651367 41.79589844 C-42.43466145 59.87336355 -50.25296221 77.16549886 -61 92 C-69.44690726 103.30448707 -69.44690726 103.30448707 -71 117 C-68.96386523 124.23610971 -66.81055084 130.63085423 -60.16015625 134.765625 C-59.13792969 135.25546875 -58.11570312 135.7453125 -57.0625 136.25 C-56.04285156 136.75015625 -55.02320313 137.2503125 -53.97265625 137.765625 C-51.27844149 138.88437909 -48.87261372 139.55561777 -46 140 C-46.14109986 142.10448938 -46.28804175 144.2085877 -46.4375 146.3125 C-46.51871094 147.48425781 -46.59992187 148.65601563 -46.68359375 149.86328125 C-47 153 -47 153 -48 156 C-49.32 156 -50.64 156 -52 156 C-52 152.04 -52 148.08 -52 144 C-54.0728125 143.071875 -54.0728125 143.071875 -56.1875 142.125 C-56.96480469 141.77695313 -57.74210938 141.42890625 -58.54296875 141.0703125 C-61.00741942 139.99676801 -63.50413879 138.99834448 -66 138 C-71.445 143.445 -71.445 143.445 -77 149 C-77.99 148.67 -78.98 148.34 -80 148 C-79.48223379 143.89552608 -77.35372556 142.04300477 -74.4375 139.25 C-73.61121094 138.45078125 -72.78492188 137.6515625 -71.93359375 136.828125 C-71.29550781 136.22484375 -70.65742187 135.6215625 -70 135 C-70.30679688 134.25363281 -70.61359375 133.50726563 -70.9296875 132.73828125 C-72.17815118 129.54421907 -73.0926672 126.30528378 -74 123 C-79.94 123.495 -79.94 123.495 -86 124 C-86.33 122.68 -86.66 121.36 -87 120 C-86 119 -86 119 -83.71484375 118.90234375 C-82.79832031 118.91394531 -81.88179687 118.92554688 -80.9375 118.9375 C-79.55884766 118.95103516 -79.55884766 118.95103516 -78.15234375 118.96484375 C-77.08693359 118.98224609 -77.08693359 118.98224609 -76 119 C-75.47023414 114.22556697 -75.19229453 109.75120867 -76 105 C-78.59808434 102.06259471 -81.40305703 100.49872624 -85 99 C-84.67 98.01 -84.34 97.02 -84 96 C-79.86117858 96.60865021 -76.69990949 98.08855092 -73 100 C-71.66094733 98.2126038 -70.32890934 96.41995047 -69 94.625 C-68.2575 93.62726563 -67.515 92.62953125 -66.75 91.6015625 C-64.8139515 89.24598283 -64.8139515 89.24598283 -65 87 C-68.3 85.68 -71.6 84.36 -75 83 C-74.67 82.01 -74.34 81.02 -74 80 C-69.03083364 80.51405169 -64.70973649 81.23384882 -60 83 C-59.7525 82.34 -59.505 81.68 -59.25 81 C-57.92905339 77.82972813 -56.36217965 74.87335809 -54.70703125 71.8671875 C-53.70813225 69.82279206 -53.70813225 69.82279206 -55 67 C-56.85804317 65.55129381 -56.85804317 65.55129381 -59.0625 64.3125 C-59.79597656 63.87550781 -60.52945313 63.43851563 -61.28515625 62.98828125 C-61.85105469 62.66214844 -62.41695312 62.33601563 -63 62 C-62.67 60.68 -62.34 59.36 -62 58 C-58.20774749 59.4499789 -54.62189716 61.16898551 -51 63 C-50.47599609 61.31970703 -50.47599609 61.31970703 -49.94140625 59.60546875 C-49.48178595 58.13280778 -49.0221497 56.66015179 -48.5625 55.1875 C-48.33240234 54.44951172 -48.10230469 53.71152344 -47.86523438 52.95117188 C-46.9312816 49.95981589 -45.99100896 46.97302688 -45 44 C-48.3 43.34 -51.6 42.68 -55 42 C-55.33 40.68 -55.66 39.36 -56 38 C-52.04 38 -48.08 38 -44 38 C-43.13375 35.4321875 -43.13375 35.4321875 -42.25 32.8125 C-40.71667859 28.56300923 -39.18317191 25.29685662 -36 22 C-37.18517211 19.1986841 -38.67593621 17.17815856 -40.6875 14.9375 C-41.450625 13.968125 -42.21375 12.99875 -43 12 C-42.67 11.01 -42.34 10.02 -42 9 C-38.40094092 9.55550695 -37.00090201 10.74887248 -34.75 13.5625 C-34.22921875 14.20316406 -33.7084375 14.84382813 -33.171875 15.50390625 C-32.78515625 15.99761719 -32.3984375 16.49132812 -32 17 C-31.30132813 16.71125 -30.60265625 16.4225 -29.8828125 16.125 C-28.97273437 15.75375 -28.06265625 15.3825 -27.125 15 C-26.22007812 14.62875 -25.31515625 14.2575 -24.3828125 13.875 C-22 13 -22 13 -20 13 C-20.495 11.6696875 -20.495 11.6696875 -21 10.3125 C-21.91222143 7.29076653 -22.18330958 5.11626294 -22 2 C-20.109375 2.24609375 -20.109375 2.24609375 -18 3 C-16.55036313 5.55850089 -15.89599095 8.1776285 -15 11 C-10.05 11.495 -10.05 11.495 -5 12 C-3.35 8.04 -1.7 4.08 0 0 Z " fill="#0F0E0C" transform="translate(734,82)"/>
<path d="M0 0 C12.71047607 0 20.54610761 0.49619492 30.1796875 8.16015625 C33.57945476 11.59640169 35.85838869 15.69631613 38 20 C38.37382813 20.72960937 38.74765625 21.45921875 39.1328125 22.2109375 C41.96566602 31.32200694 41.45062381 43.40594397 37.3125 51.9375 C34.98027484 55.83001663 32.53085947 59.10288454 29 62 C27.9171875 63.0209375 27.9171875 63.0209375 26.8125 64.0625 C17.90683302 70.19751503 11.41539464 70 0 70 C0 46.9 0 23.8 0 0 Z " fill="#FEF8F2" transform="translate(699,626)"/>
<path d="M0 0 C0.84949219 0.4846875 1.69898438 0.969375 2.57421875 1.46875 C1.95376412 5.70197844 0.46898316 8.99165295 -1.48828125 12.78125 C-2.03613281 13.84988281 -2.58398438 14.91851563 -3.1484375 16.01953125 C-3.56996094 16.82777344 -3.99148438 17.63601563 -4.42578125 18.46875 C-10.17578125 17.59375 -10.17578125 17.59375 -12.42578125 16.46875 C-18.40267855 16.40898103 -22.79945047 17.50332362 -27.42578125 21.46875 C-31.11316864 26.06846928 -30.8971481 30.5059809 -30.9375 36.14453125 C-30.9554512 37.0696904 -30.9734024 37.99484955 -30.99189758 38.94804382 C-31.04592204 41.89240003 -31.07987116 44.83659484 -31.11328125 47.78125 C-31.14646126 49.78192346 -31.18095155 51.78257565 -31.21679688 53.78320312 C-31.30410247 58.67840764 -31.36423806 63.57288297 -31.42578125 68.46875 C-38.02578125 68.46875 -44.62578125 68.46875 -51.42578125 68.46875 C-51.42578125 46.02875 -51.42578125 23.58875 -51.42578125 0.46875 C-44.82578125 0.46875 -38.22578125 0.46875 -31.42578125 0.46875 C-31.09578125 3.10875 -30.76578125 5.74875 -30.42578125 8.46875 C-29.95140625 7.746875 -29.47703125 7.025 -28.98828125 6.28125 C-21.48592954 -1.95303847 -10.41285278 -4.6543196 0 0 Z " fill="#BF4847" transform="translate(291.42578125,647.53125)"/>
<path d="M0 0 C5.87500395 3.42467389 10.62850924 8.34592915 13.02734375 14.82421875 C15.39626036 25.41582114 12.55850271 35.81257713 9.5 45.9375 C9.25330566 46.75847168 9.00661133 47.57944336 8.75244141 48.42529297 C1.72398823 71.41769751 -10.39997001 105.14365351 -32.58984375 117.7890625 C-34.56043994 118.85810621 -34.56043994 118.85810621 -36.0234375 120.54296875 C-38.4397409 122.82503307 -41.30212996 122.63581415 -44.5 122.9375 C-44.5 122.2775 -44.5 121.6175 -44.5 120.9375 C-45.61375 120.89625 -46.7275 120.855 -47.875 120.8125 C-54.42170502 119.95353516 -60.04211081 116.72411922 -64.3984375 111.78515625 C-68.91273755 105.34402081 -71.30831979 98.88597795 -70.5 90.9375 C-68.67847458 83.70344192 -64.68308642 78.14942954 -60.35058594 72.23852539 C-49.08225174 56.8592747 -41.92994642 39.79127693 -38.31005859 21.09204102 C-36.81139184 13.78622022 -33.90341025 7.37990553 -28 2.5625 C-27.4534375 2.10101563 -26.906875 1.63953125 -26.34375 1.1640625 C-18.73249641 -3.89935621 -8.15389685 -3.76143345 0 0 Z M-24.5 6.9375 C-25.0465625 7.32679687 -25.593125 7.71609375 -26.15625 8.1171875 C-30.6344922 11.82710383 -31.55397151 15.87686706 -32.7421875 21.421875 C-37.60836723 43.99693558 -46.80244371 64.16141051 -60.8359375 82.5 C-64.47884365 87.83608788 -65.30212291 92.6130694 -64.5 98.9375 C-62.60564608 106.21517613 -58.8339485 110.09874333 -52.5 113.9375 C-48.05270534 116.16114733 -41.94215531 115.6008536 -37.2421875 114.32421875 C-22.29698447 107.67213819 -12.29476746 86.09068889 -5.5 72.0625 C-5.19707031 71.45639893 -4.89414062 70.85029785 -4.58203125 70.22583008 C-2.58400065 65.95011494 -2.32486105 62.60604751 -2.5 57.9375 C-2.00663208 55.19314097 -1.25547654 52.62888519 -0.5 49.9375 C0.49 49.9375 1.48 49.9375 2.5 49.9375 C4.19325512 46.26546047 4.70537529 43.52908329 4.5625 39.5 C4.48156909 35.50740832 4.65150552 31.86178698 5.5 27.9375 C6.49 27.6075 7.48 27.2775 8.5 26.9375 C8.80756866 21.09369553 8.5261402 17.13867846 5.5 11.9375 C0.15524441 6.24568236 -4.49317445 2.95421723 -12.375 2.5625 C-17.41671156 2.68218455 -20.5538012 3.86178623 -24.5 6.9375 Z " fill="#F4D12B" transform="translate(732.5,101.0625)"/>
<path d="M0 0 C4.87318174 3.69560055 8.23138168 9.16289504 10.14453125 14.90234375 C10.89926789 24.41697453 10.64948943 33.02319409 4.671875 40.82421875 C0.83198405 44.92736464 -3.70248583 47.94905184 -8.31640625 51.11328125 C-16.38932304 56.80158262 -21.9748943 63.36286025 -27.49609375 71.4375 C-28.07750122 72.28731445 -28.07750122 72.28731445 -28.6706543 73.15429688 C-29.48421381 74.3546031 -30.28724596 75.56209175 -31.08129883 76.77539062 C-33.65953494 80.60008551 -35.91625677 83.01732902 -40.04296875 85.27734375 C-40.90277344 85.75945312 -41.76257813 86.2415625 -42.6484375 86.73828125 C-49.27596829 90.23386386 -57.48689927 89.88619747 -64.66796875 87.83984375 C-72.33292775 84.80198844 -77.66161151 79.17076091 -81.0078125 71.70703125 C-83.3433235 63.97939578 -82.73892877 55.862136 -79.3671875 48.55078125 C-71.64455786 35.02121304 -61.03674553 21.61892639 -48.85546875 11.90234375 C-48.11039063 11.27070313 -47.3653125 10.6390625 -46.59765625 9.98828125 C-32.10492802 -2.08122554 -18.10608787 -10.7111804 0 0 Z M-35.85546875 8.90234375 C-36.665 9.50046875 -37.47453125 10.09859375 -38.30859375 10.71484375 C-42.48092941 14.07672572 -44.58128015 16.55075164 -45.85546875 21.90234375 C-48.16331785 23.0562683 -50.32777206 23.43671541 -52.85546875 23.90234375 C-53.51546875 26.21234375 -54.17546875 28.52234375 -54.85546875 30.90234375 C-55.95568359 30.99708984 -55.95568359 30.99708984 -57.078125 31.09375 C-64.73257935 33.32226203 -69.9243787 44.24247855 -73.76171875 50.80859375 C-76.60779126 56.25678971 -76.52586982 61.89920694 -75.85546875 67.90234375 C-73.46084825 74.21918749 -68.71708725 78.55395049 -63.03125 82.01171875 C-57.9861896 84.07684222 -51.80177163 83.60864924 -46.57421875 82.35546875 C-40.29176869 79.71285087 -36.73742726 74.27360709 -32.85546875 68.90234375 C-24.98879879 58.1438131 -16.57306087 48.97915065 -5.5859375 41.3203125 C-1.17284539 38.21722918 2.62392936 35.2901554 4.14453125 29.90234375 C5.07670511 23.11546392 5.31487937 16.82672306 1.64453125 10.83984375 C-2.55137204 5.63381559 -6.36447001 2.49411061 -13.05859375 1.359375 C-22.41124547 0.81346031 -28.426543 3.40579753 -35.85546875 8.90234375 Z " fill="#C1E9F5" transform="translate(759.85546875,316.09765625)"/>
<path d="M0 0 C5.33473851 2.93871392 9.30104468 7.54165258 11.53515625 13.18359375 C12.63708145 19.62389982 12.7619976 26.05470285 9.47265625 31.87109375 C5.3546459 37.15865836 -0.4121274 40.74420265 -5.83984375 44.56640625 C-15.28170609 51.27128702 -21.71662907 60.41336392 -28.30859375 69.8125 C-31.98129272 74.87915517 -35.25461305 78.58095357 -41.46484375 80.18359375 C-48.40397259 81.15750657 -54.03076605 80.89989714 -59.78125 76.6796875 C-64.18069925 72.77020011 -68.06282363 68.45585058 -68.80078125 62.44921875 C-68.97142049 49.27586953 -61.56067137 38.7085427 -52.65625 29.265625 C-52.26308594 28.90855469 -51.86992188 28.55148437 -51.46484375 28.18359375 C-50.14484375 28.84359375 -48.82484375 29.50359375 -47.46484375 30.18359375 C-47.985869 34.50503847 -49.38231997 36.67512654 -52.21484375 39.93359375 C-59.98666207 49.34176524 -59.98666207 49.34176524 -61.88671875 61.04296875 C-60.96965475 65.6962194 -58.85160295 68.95532132 -55.27734375 72.12109375 C-50.18993158 74.04300501 -45.50861205 73.79672424 -40.33984375 72.24609375 C-36.13447909 69.22920171 -33.46064549 65.3614125 -30.46484375 61.18359375 C-28.48438451 58.50182475 -26.48691036 55.83414052 -24.46484375 53.18359375 C-24.02914062 52.60996094 -23.5934375 52.03632813 -23.14453125 51.4453125 C-16.8403129 43.61006969 -8.35577934 37.75680867 -0.33984375 31.7890625 C2.6594127 29.22094917 4.32007484 27.36570786 5.0390625 23.4140625 C5.19709418 16.21347162 5.19709418 16.21347162 1.84765625 10.05859375 C-2.01217091 6.37829344 -5.17408415 4.9623121 -10.52734375 5.05859375 C-17.90678258 6.04912245 -24.02487624 11.3836202 -29.6484375 15.9609375 C-31.46484375 17.18359375 -31.46484375 17.18359375 -34.21484375 16.87109375 C-34.95734375 16.64421875 -35.69984375 16.41734375 -36.46484375 16.18359375 C-35.95925004 12.12981564 -34.111349 10.69823133 -30.96484375 8.24609375 C-29.14640488 6.87199093 -27.31326228 5.51709569 -25.46484375 4.18359375 C-24.748125 3.64605469 -24.03140625 3.10851562 -23.29296875 2.5546875 C-16.37520925 -2.00947338 -7.8505275 -2.60025396 0 0 Z " fill="#090907" transform="translate(752.46484375,318.81640625)"/>
<path d="M0 0 C5.1635108 2.06882386 8.94034334 5.34932188 12 10 C13.99653601 15.98960802 14.07712301 22.72147055 11.375 28.4375 C7.34983133 32.78044514 3.74357596 36.57665538 -2.41796875 37.2734375 C-9.27491079 37.52489095 -13.86417344 36.72496043 -19 32 C-23.43436357 26.67876371 -23.6139505 21.8638736 -23.38671875 15.03125 C-22.70724413 9.70526711 -20.34421971 7.18029048 -16.4375 3.75 C-10.74613342 -0.33610934 -6.94512018 -0.92981117 0 0 Z " fill="#FEF8F3" transform="translate(344,663)"/>
<path d="M0 0 C4.90469983 2.81970597 8.6681336 6.1129157 11.125 11.25 C11.88984613 15.07423064 11.88434655 18.47895002 11.75 22.375 C9.8125 22.9375 9.8125 22.9375 7.75 23.375 C6.15736024 21.78236024 6.6323645 19.95239526 6.5625 17.75 C6.0503027 12.0751791 4.06060446 9.00943121 -0.25 5.375 C-4.13769335 2.78320444 -8.04915459 3.26820409 -12.5546875 3.5 C-16.7223699 4.85298675 -19.54295957 6.91882549 -22.25 10.375 C-23.73018548 14.01129801 -24.4459878 17.71641807 -25.1875 21.5625 C-27.68211795 32.83666591 -31.26817173 42.97628223 -36.25 53.375 C-36.79269531 54.51839844 -37.33539062 55.66179687 -37.89453125 56.83984375 C-41.6750411 64.28128528 -46.34260099 71.00025481 -51.25097656 77.72900391 C-51.75338867 78.41913574 -52.25580078 79.10926758 -52.7734375 79.8203125 C-53.452854 80.74094482 -53.452854 80.74094482 -54.14599609 81.68017578 C-56.68150753 85.57259515 -57.06169593 89.89134627 -56.25 94.375 C-54.13301314 98.97523443 -51.8293562 102.53491692 -47.3125 104.9375 C-40.36708843 105.92970165 -36.05193546 105.46315568 -30.25 101.375 C-18.48160988 89.21803096 -10.42141986 72.53483691 -3.25 57.375 C-1.93 57.375 -0.61 57.375 0.75 57.375 C0.12244153 61.97120291 -1.726878 65.78963455 -3.8125 69.875 C-4.17037598 70.57987549 -4.52825195 71.28475098 -4.89697266 72.01098633 C-21.04426033 103.36841073 -21.04426033 103.36841073 -33.734375 109.59375 C-39.10140162 111.26052845 -44.59892691 111.50542722 -49.82421875 109.27734375 C-56.00613299 105.44557873 -58.95172116 101.26983652 -61.25 94.375 C-62.36657921 85.09457931 -58.97565552 79.6141501 -53.5625 72.375 C-41.00383063 55.30451237 -32.23847515 35.03308268 -28.8828125 14.046875 C-27.70021971 9.05370543 -25.08576116 5.90864402 -21.25 2.625 C-20.2290625 1.73554687 -20.2290625 1.73554687 -19.1875 0.828125 C-13.84279107 -3.1804067 -5.85694588 -2.71969934 0 0 Z " fill="#100B03" transform="translate(729.25,105.625)"/>
<path d="M0 0 C20.57894737 -0.51879699 20.57894737 -0.51879699 28.0625 5.4375 C30.83013472 9.28518729 30.69072742 13.56643161 30.48046875 18.15234375 C29.72586118 22.624774 28.49940083 24.09624187 25 27 C19.35748982 29.99224025 14.87725231 30.38438228 8.5625 30.1875 C5.736875 30.125625 2.91125 30.06375 0 30 C0 20.1 0 10.2 0 0 Z " fill="#FEF9F3" transform="translate(800,669)"/>
<path d="M0 0 C3.01338156 2.20411758 3.90027881 3.41513634 4.53344727 7.12866211 C4.59914456 14.40159568 4.59914456 14.40159568 4.57641602 16.84448242 C4.56255951 18.92854878 4.59661189 21.00811047 4.63476562 23.09179688 C4.63283203 24.41115234 4.63089844 25.73050781 4.62890625 27.08984375 C4.62963135 28.29503662 4.63035645 29.50022949 4.63110352 30.74194336 C3.82200338 34.91890327 2.33533842 36.43311968 -1 39 C-4.62761169 39 -6.92005751 38.79195782 -9.875 36.625 C-13.33442854 31.62804767 -12.18437929 24.85766318 -12.1875 19.0625 C-12.19974609 17.86947266 -12.21199219 16.67644531 -12.22460938 15.44726562 C-12.22654297 14.30064453 -12.22847656 13.15402344 -12.23046875 11.97265625 C-12.23457764 10.92343994 -12.23868652 9.87422363 -12.24291992 8.79321289 C-11.99536626 5.94671897 -11.579983 4.35928783 -10 2 C-6.2794164 -0.48038907 -4.40203429 -0.46337203 0 0 Z " fill="#3D332E" transform="translate(168,233)"/>
<path d="M0 0 C14.34375 0 14.34375 0 20.4375 5 C23.09207412 8.39785487 23.34750684 11.6965312 23.27734375 15.9375 C22.66382613 20.4999972 20.08339787 23.16661703 16.5625 25.875 C13 27 13 27 0 27 C0 18.09 0 9.18 0 0 Z " fill="#FEF8F2" transform="translate(800,623)"/>
<path d="M0 0 C3.99370666 0.92485838 5.58861015 2.33655422 8.2265625 5.515625 C8.85718817 9.43951808 8.61742996 11.65571658 6.9765625 15.265625 C4.10025903 18.96372946 2.54113292 20.34831604 -2.2109375 20.953125 C-6.32428837 20.44797665 -7.87805266 19.41100984 -10.7734375 16.515625 C-12.39586656 13.27076688 -12.32540869 10.0222655 -11.7734375 6.515625 C-9.42886023 1.07163096 -5.62555959 -0.41392077 0 0 Z " fill="#070402" transform="translate(736.7734375,335.484375)"/>
<path d="M0 0 C2.9375 2.0625 2.9375 2.0625 5 5 C5.3876468 7.91602967 5.03240252 10.25266218 4 13 C1.27020297 16.21152592 -0.34255711 16.89433954 -4.5 17.5625 C-8 17 -8 17 -10.9375 14.9375 C-13 12 -13 12 -13.625 8.5 C-12.84922564 4.15566358 -11.38221335 2.73798224 -8 0 C-4.99054157 -1.50472922 -3.20590237 -0.88005163 0 0 Z " fill="#0F0805" transform="translate(703,172)"/>
<path d="M0 0 C3.2292795 0.26910663 4.18532256 0.81490926 7 2.75 C9.52975133 6.46557226 9.7878128 8.2757483 9 12.6875 C7.01216563 15.60713173 5.5685303 17.29852978 2.0625 18.16796875 C-1.93959545 18.44841862 -3.65814571 17.92964679 -7 15.5625 C-9 12.6875 -9 12.6875 -9.625 9.75 C-8.51134939 4.29311199 -5.7790012 0.38307773 0 0 Z " fill="#0D0705" transform="translate(721,117.3125)"/>
<path d="M0 0 C3 0.125 3 0.125 4 1.125 C4.1875 4.0625 4.1875 4.0625 4 7.125 C3.34 7.785 2.68 8.445 2 9.125 C-1.29714793 8.79528521 -2.6226839 8.5023161 -5 6.125 C-4.27477017 0.17811542 -4.27477017 0.17811542 0 0 Z " fill="#50575C" transform="translate(699,175.875)"/>
<path d="M0 0 C1.2375 0.1546875 1.2375 0.1546875 2.5 0.3125 C4.5 3.3125 4.5 3.3125 4.125 6 C3.91875 6.763125 3.7125 7.52625 3.5 8.3125 C0.625 8.9375 0.625 8.9375 -2.5 9.3125 C-4.5 7.3125 -4.5 7.3125 -4.75 4.8125 C-4.40047575 1.3172575 -3.47557682 0.4344471 0 0 Z " fill="#525A5F" transform="translate(721.5,121.6875)"/>
<path d="M0 0 C3 1 3 1 4.421875 3.14453125 C4.86015625 4.02496094 5.2984375 4.90539062 5.75 5.8125 C6.19859375 6.68519531 6.6471875 7.55789062 7.109375 8.45703125 C8.06982104 11.19935744 8.02018585 12.3313431 7 15 C4 14 4 14 2.578125 11.85546875 C2.13984375 10.97503906 1.7015625 10.09460938 1.25 9.1875 C0.80140625 8.31480469 0.3528125 7.44210938 -0.109375 6.54296875 C-1.06982104 3.80064256 -1.02018585 2.6686569 0 0 Z " fill="#080707" transform="translate(705,153)"/>
<path d="M0 0 C1.99954746 -0.04254356 4.00041636 -0.04080783 6 0 C7 1 7 1 7.1875 3.4375 C7 6 7 6 5 8 C1.875 7.625 1.875 7.625 -1 7 C-0.67 4.69 -0.34 2.38 0 0 Z " fill="#F15757" transform="translate(732,342)"/>
<path d="M0 0 C3.69230769 0.69230769 3.69230769 0.69230769 5 2 C5.1875 4.9375 5.1875 4.9375 5 8 C4.34 8.66 3.68 9.32 3 10 C0.875 9.625 0.875 9.625 -1 9 C-1.09765625 2.84765625 -1.09765625 2.84765625 -1 1 C-0.67 0.67 -0.34 0.34 0 0 Z " fill="#120E07" transform="translate(717,358)"/>
<path d="M0 0 C0.99 0 1.98 0 3 0 C4.421875 1.609375 4.421875 1.609375 5.75 3.75 C6.19859375 4.44609375 6.6471875 5.1421875 7.109375 5.859375 C8.16007332 8.38473764 7.93134261 9.47856025 7 12 C3.7558811 10.95724749 2.39805336 9.38759509 0.6875 6.5625 C-1 3 -1 3 0 0 Z " fill="#0C0A0A" transform="translate(685,192)"/>
<path d="M0 0 C2.8992226 0.46761655 3.86675182 0.86675182 6 3 C5.625 5.625 5.625 5.625 5 8 C0.25 7.25 0.25 7.25 -2 5 C-1.46428571 1.46428571 -1.46428571 1.46428571 0 0 Z " fill="#18120A" transform="translate(702,377)"/>
<path d="M0 0 C-1 3 -1 3 -2.7421875 3.94921875 C-3.79792969 4.31466797 -3.79792969 4.31466797 -4.875 4.6875 C-5.92300781 5.06455078 -5.92300781 5.06455078 -6.9921875 5.44921875 C-9 6 -9 6 -12 6 C-11.7421875 4.11328125 -11.7421875 4.11328125 -11 2 C-9.2578125 0.91796875 -9.2578125 0.91796875 -7.125 0.1875 C-6.42632813 -0.06644531 -5.72765625 -0.32039062 -5.0078125 -0.58203125 C-3 -1 -3 -1 0 0 Z " fill="#070606" transform="translate(725,144)"/>
<path d="M0 0 C1.4540625 0.0309375 1.4540625 0.0309375 2.9375 0.0625 C3.5625 1.9375 3.5625 1.9375 3.9375 4.0625 C3.2775 4.7225 2.6175 5.3825 1.9375 6.0625 C-0.6875 5.6875 -0.6875 5.6875 -3.0625 5.0625 C-3.625 3.125 -3.625 3.125 -4.0625 1.0625 C-3.0625 0.0625 -3.0625 0.0625 0 0 Z " fill="#140F08" transform="translate(705.0625,364.9375)"/>
<path d="M0 0 C1.98 0.495 1.98 0.495 4 1 C3.67 2.98 3.34 4.96 3 7 C1.68 7.33 0.36 7.66 -1 8 C-1.125 2.25 -1.125 2.25 0 0 Z " fill="#120D03" transform="translate(733,142)"/>
<path d="M0 0 C1.67542976 0.28604898 3.34385343 0.61781233 5 1 C4.67 2.65 4.34 4.3 4 6 C2.68 5.67 1.36 5.34 0 5 C-0.5625 3.0625 -0.5625 3.0625 -1 1 C-0.67 0.67 -0.34 0.34 0 0 Z " fill="#1F1F1E" transform="translate(631,420)"/>
<path d="M0 0 C1.67542976 0.28604898 3.34385343 0.61781233 5 1 C4.67 2.32 4.34 3.64 4 5 C2.68 5.33 1.36 5.66 0 6 C-0.38218767 4.34385343 -0.71395102 2.67542976 -1 1 C-0.67 0.67 -0.34 0.34 0 0 Z " fill="#15130E" transform="translate(708,339)"/>
</svg>
