<?xml version="1.0" encoding="UTF-8"?>
<svg version="1.1" xmlns="http://www.w3.org/2000/svg" width="893" height="771">
<path d="M0 0 C294.69 0 589.38 0 893 0 C893 254.43 893 508.86 893 771 C598.31 771 303.62 771 0 771 C0 516.57 0 262.14 0 0 Z " fill="#202020" transform="translate(0,0)"/>
<path d="M0 0 C5.06201697 2.39295348 6.88462001 4.9101291 9 10 C9.37555552 13.25936514 9.37555552 13.25936514 9.37638092 16.86194706 C9.38063204 17.530903 9.38488315 18.19985894 9.38926309 18.88908628 C9.39986439 21.12882633 9.38914748 23.36794873 9.37854004 25.60768127 C9.38183123 27.2303458 9.38644516 28.85300809 9.3922677 30.47566551 C9.40448768 34.93333821 9.39810967 39.39082095 9.38876271 43.84849346 C9.38197092 48.65631364 9.39249648 53.46409864 9.40104675 58.27191162 C9.41361786 66.60247321 9.4155847 74.9329829 9.41069031 83.26355171 C9.40388765 95.31361656 9.41638982 107.36360301 9.43419749 119.41365384 C9.46285269 138.97099691 9.48036209 158.52833153 9.48876953 178.08569336 C9.4895303 179.84160393 9.4895303 179.84160393 9.49030644 181.63298743 C9.49433871 191.13205351 9.49783261 200.63111978 9.50130367 210.13018608 C9.50436107 218.43501674 9.50763324 226.73984729 9.51123047 235.04467773 C9.51173308 236.21416364 9.5122357 237.38364954 9.51275355 238.58857442 C9.521491 258.07360856 9.54191317 277.55861359 9.57071257 297.04362816 C9.58791292 309.06679159 9.59446827 321.08987275 9.58740652 333.11304688 C9.58323433 341.34681935 9.58955384 349.58053987 9.60420525 357.81430025 C9.61228109 362.56830506 9.61534432 367.32218113 9.60538292 372.07618523 C9.59634549 376.4254049 9.6009721 380.77438478 9.61659735 385.12358379 C9.61979605 386.69952414 9.61788415 388.27548459 9.61043197 389.85141058 C9.60104076 391.98919784 9.61000443 394.12614763 9.62361908 396.26389408 C9.62389146 397.45258376 9.62416385 398.64127344 9.62444448 399.86598402 C10.07488547 403.62492026 11.30375603 406.30375603 14 409 C16.0888551 409.09936676 18.18113901 409.12663543 20.27235603 409.12749195 C21.27130244 409.1299577 21.27130244 409.1299577 22.29042959 409.13247326 C24.54993293 409.13682787 26.80937301 409.13400094 29.06887817 409.13130188 C30.69404904 409.13300235 32.31921949 409.13515126 33.94438922 409.13771313 C37.49235951 409.14232594 41.04031233 409.14372793 44.58828545 409.14274788 C50.35996568 409.14116056 56.13162846 409.14634549 61.90330505 409.15237427 C70.2835909 409.16050075 78.66387369 409.16543577 87.04416275 409.16866493 C100.28652483 409.17415248 113.52886102 409.19104106 126.77120972 409.21000671 C131.29822727 409.21636405 135.82524488 409.22267242 140.3522625 409.22898388 C141.48374495 409.23056764 142.6152274 409.2321514 143.78099719 409.23378316 C156.6717046 409.2517333 169.56241384 409.2679527 182.453125 409.28295898 C183.63201616 409.28433486 184.81090732 409.28571073 186.02552246 409.28712829 C205.12608109 409.30905415 224.2266331 409.31981294 243.3272021 409.32732973 C262.9228424 409.33539699 282.51842577 409.35867605 302.11403358 409.3952834 C314.20826748 409.41732937 326.30238439 409.42696663 338.39663737 409.42078307 C346.6851589 409.4176117 354.97358048 409.42891728 363.26207109 409.45167748 C368.04669612 409.46436261 372.83109849 409.47049427 377.61573219 409.45926094 C381.99555411 409.44911008 386.37494331 409.45730515 390.754714 409.4801239 C392.33958289 409.48512779 393.92449046 409.48337202 395.50934066 409.47419123 C410.24270783 409.39555118 410.24270783 409.39555118 416 414 C419.23585287 417.65338227 419.4728114 421.08220151 419.27734375 425.7890625 C418.67870889 430.5612784 417.06945901 433.13226801 413.36748886 436.13595295 C407.27368439 439.43578017 399.92209349 438.5513283 393.18267822 438.51225281 C391.5494725 438.51741383 389.91627154 438.52432942 388.28307986 438.5328458 C383.80096067 438.55116701 379.31916846 438.54467855 374.83703685 438.53414643 C370.00130773 438.52714565 365.16564903 438.54319825 360.3299408 438.55648804 C351.95300252 438.57639901 343.57615531 438.58183706 335.19919586 438.57755089 C323.08427608 438.57146038 310.96947264 438.5883171 298.85457644 438.61096082 C279.19455741 438.64717641 259.53456123 438.66633184 239.87451172 438.67407227 C220.78433175 438.68163823 201.69417276 438.69473968 182.60400391 438.71704102 C180.83951194 438.71909706 180.83951194 438.71909706 179.03937367 438.72119465 C166.20442773 438.73631382 153.36948432 438.7530438 140.53454208 438.77101612 C139.40743633 438.77258809 138.28033057 438.77416006 137.1190701 438.77577967 C130.36174131 438.78520538 130.36174131 438.78520538 123.60441276 438.79479728 C110.40146627 438.81363042 97.19853512 438.82749864 83.99557582 438.83259294 C75.71932852 438.83582707 67.44308763 438.84207902 59.16684422 438.8507212 C53.46591929 438.85645366 47.76501379 438.85806557 42.06408645 438.85648732 C38.61437349 438.85657008 35.16467506 438.86075295 31.71496674 438.86618242 C30.12899667 438.86784099 28.54302373 438.86777907 26.95705393 438.86587711 C24.81081912 438.86352319 22.66467924 438.8672287 20.51845169 438.87250805 C18.72597783 438.87324268 18.72597783 438.87324268 16.89729238 438.87399215 C13.93198667 438.87005537 13.93198667 438.87005537 11 440 C9.59433153 443.40992547 9.85822723 447.10499232 9.82421875 450.7421875 C9.80037109 452.05574219 9.77652344 453.36929687 9.75195312 454.72265625 C9.71689073 456.79844787 9.6875087 458.87365562 9.67407227 460.94970703 C9.65851078 462.96408208 9.61662889 464.97819883 9.57421875 466.9921875 C9.55963623 468.19214355 9.54505371 469.39209961 9.5300293 470.62841797 C8.73304805 475.69811441 6.20288373 478.7646059 2.6875 482.375 C-0.84442374 484.51058179 -2.92707003 484.50018438 -7 484 C-12.2590971 482.10672504 -14.79008594 479.40216785 -18 475 C-19.14049257 471.5785223 -19.15909371 468.85718652 -19.2109375 465.25 C-19.23899458 463.90623758 -19.26765896 462.56248772 -19.296875 461.21875 C-19.3381961 459.1054708 -19.37509411 456.99242928 -19.40136719 454.87890625 C-19.42895576 452.83544927 -19.47480693 450.79304998 -19.5234375 448.75 C-19.5531665 446.91695313 -19.5531665 446.91695313 -19.58349609 445.046875 C-20.04415349 441.67700145 -20.39163177 441.01560657 -23 439 C-24.90659175 438.55870014 -24.90659175 438.55870014 -27.0090332 438.63110352 C-27.81029129 438.62422012 -28.61154938 438.61733673 -29.43708801 438.61024475 C-30.29960678 438.61640305 -31.16212555 438.62256134 -32.05078125 438.62890625 C-33.88216328 438.61151909 -35.71354345 438.59393476 -37.54492188 438.57617188 C-40.42833969 438.56611144 -43.31163375 438.56249949 -46.19506836 438.56420898 C-48.98067954 438.56062943 -51.76533983 438.53324583 -54.55078125 438.50390625 C-55.40722733 438.51208878 -56.2636734 438.5202713 -57.14607239 438.52870178 C-62.5843933 438.4613827 -65.68621398 437.61630072 -70 434 C-72.79122193 430.69460561 -73.9083448 428.74633519 -74.4375 424.4375 C-73.72631618 418.84962714 -71.09382837 415.71003196 -67 412 C-63.96011276 409.97340851 -63.35710719 409.7492382 -59.94335938 409.72875977 C-58.72694763 409.71347984 -58.72694763 409.71347984 -57.48596191 409.69789124 C-56.17806702 409.69468117 -56.17806702 409.69468117 -54.84375 409.69140625 C-52.99869466 409.66625374 -51.15364265 409.6408556 -49.30859375 409.61523438 C-46.39860847 409.58644457 -43.48868093 409.56242716 -40.57861328 409.54370117 C-37.7708589 409.52209576 -34.96377407 409.48266838 -32.15625 409.44140625 C-31.28432007 409.44129044 -30.41239014 409.44117462 -29.51403809 409.4410553 C-28.70309692 409.42771652 -27.89215576 409.41437775 -27.05664062 409.40063477 C-26.34399048 409.39556412 -25.63134033 409.39049347 -24.89709473 409.38526917 C-22.31379832 408.86064357 -21.58065067 408.1137921 -20 406 C-19.54531302 403.01695408 -19.54531302 403.01695408 -19.61904907 399.54724121 C-19.6143691 398.8893427 -19.60968913 398.2314442 -19.60486734 397.55360937 C-19.59288249 395.3447805 -19.60238766 393.13656807 -19.61181641 390.92773438 C-19.60775223 389.34596901 -19.60241122 387.76420647 -19.59588623 386.18244934 C-19.58218837 381.88290534 -19.5875214 377.58357686 -19.59702349 373.28402901 C-19.60460733 368.78907811 -19.59757803 364.29414594 -19.59286499 359.79919434 C-19.58740371 352.2500476 -19.5946088 344.70098885 -19.60888672 337.15185547 C-19.62521396 328.4182084 -19.61992572 319.68477141 -19.6034075 310.95112944 C-19.58980323 303.45892139 -19.58786778 295.96677667 -19.59572351 288.47456026 C-19.60040587 283.99701779 -19.60100948 279.51957413 -19.59111404 275.04203796 C-19.58246202 270.83295014 -19.5884338 266.62413374 -19.60579681 262.4150753 C-19.60977113 260.86828246 -19.60861151 259.32146686 -19.60200882 257.774683 C-19.5938401 255.66706423 -19.60405689 253.56032138 -19.61904907 251.45275879 C-19.62018015 250.27215126 -19.62131123 249.09154373 -19.62247658 247.87516022 C-19.77355503 245.02751327 -19.77355503 245.02751327 -21.27380943 243.15920258 C-23.23428328 241.70094764 -23.23428328 241.70094764 -27 241 C-27 232.75 -27 224.5 -27 216 C-25.02 215.01 -23.04 214.02 -21 213 C-19.5791063 210.1582126 -19.87020745 207.74016255 -19.8671875 204.56640625 C-19.86589844 203.27798828 -19.86460937 201.98957031 -19.86328125 200.66210938 C-19.86537598 199.98946045 -19.8674707 199.31681152 -19.86962891 198.6237793 C-19.87497009 196.57398035 -19.86968454 194.52440141 -19.86328125 192.47460938 C-19.86457031 191.18490234 -19.86585938 189.89519531 -19.8671875 188.56640625 C-19.86887939 186.78665405 -19.86887939 186.78665405 -19.87060547 184.97094727 C-19.86620175 181.94364621 -19.86620175 181.94364621 -21 179 C-24.00847418 177.77479736 -24.00847418 177.77479736 -27 177 C-27.17426756 173.08389516 -27.28084155 169.16878503 -27.375 165.25 C-27.42527344 164.13882813 -27.47554687 163.02765625 -27.52734375 161.8828125 C-27.67300205 153.82305328 -27.67300205 153.82305328 -25.67285156 151.37695312 C-24.0390625 150.296875 -24.0390625 150.296875 -21 149 C-19.28326721 147.28326721 -19.87161866 145.0247929 -19.86869812 142.68110657 C-19.86468994 141.5272496 -19.86068176 140.37339264 -19.85655212 139.18457031 C-19.8573452 137.26849976 -19.8573452 137.26849976 -19.8581543 135.3137207 C-19.85512432 133.96371852 -19.85160331 132.61371737 -19.84762573 131.26371765 C-19.8397223 128.34935199 -19.83458633 125.43499865 -19.83133507 122.52062416 C-19.82543485 117.91078046 -19.80890274 113.30101438 -19.78999329 108.69120789 C-19.78365536 107.1140223 -19.77732974 105.53683667 -19.77101612 103.95965099 C-19.76785031 103.16960843 -19.7646845 102.37956588 -19.76142275 101.56558263 C-19.71932857 90.82962437 -19.68638331 80.09370126 -19.67407227 69.35766602 C-19.6656895 62.12181795 -19.64318787 54.88616094 -19.6047166 47.65040845 C-19.58495701 43.82047931 -19.57255079 39.9908358 -19.57755089 36.16085243 C-19.58220073 32.55493573 -19.56837443 28.94955965 -19.54053879 25.34375191 C-19.53034449 23.39354952 -19.53987457 21.44327508 -19.55003357 19.49307251 C-19.48117843 13.04279792 -19.41540682 8.8684188 -15 4 C-13.948125 2.824375 -13.948125 2.824375 -12.875 1.625 C-8.60849133 -0.7865049 -4.78840944 -0.75202584 0 0 Z " fill="#686DAE" transform="translate(183,59)"/>
<path d="M0 0 C2.63220937 2.52717097 4.27159541 5.00295577 6.046875 8.20703125 C6.63702393 9.25802002 7.22717285 10.30900879 7.83520508 11.3918457 C8.4670874 12.52066162 9.09896973 13.64947754 9.75 14.8125 C19.54724749 32.10916593 30.63022842 48.4367253 43 64 C43.90273133 65.16796683 44.80370648 66.33729266 45.703125 67.5078125 C50.73072923 74.02644641 55.89824534 80.28053207 61.515625 86.3046875 C63.49194364 88.44880678 65.41923181 90.61643193 67.33203125 92.81640625 C70.95613022 96.97274288 74.6735466 101.0327638 78.4375 105.0625 C79.05431641 105.73087891 79.67113281 106.39925781 80.30664062 107.08789062 C84.0667553 111.11406961 87.97113111 114.83232861 92.15405273 118.41674805 C94.5952854 120.5105708 96.95027113 122.69278546 99.3125 124.875 C121.16423252 144.73209208 145.56487938 161.14146168 171 176 C171.74620605 176.43844238 172.49241211 176.87688477 173.26123047 177.32861328 C201.88644238 194.05078135 233.45980793 206.87856694 265.51025391 215.33935547 C268.18101065 216.04803048 270.84622697 216.77569297 273.51171875 217.50390625 C301.09411019 224.96905893 329.86116104 230.12266443 358.44140625 231.5859375 C359.1949942 231.62490143 359.94858215 231.66386536 360.7250061 231.70401001 C364.29736619 231.87915 367.86681059 232.01701197 371.44238281 232.10400391 C380.7893306 232.45767859 386.59087128 234.09876054 393 241 C394.99016341 245.88494655 394.55861012 251.38623742 392.875 256.25 C390.05511626 260.38582949 386.70505988 262.43164671 382 264 C366.43842442 264.87743544 350.70354582 262.76458291 335.3125 260.6875 C334.47928223 260.57639893 333.64606445 260.46529785 332.78759766 260.35083008 C320.09924164 258.65329767 307.51271258 256.72862103 295 254 C293.65711914 253.71406982 293.65711914 253.71406982 292.28710938 253.42236328 C280.65588504 250.9353975 269.23021107 248.05535015 257.86279297 244.56005859 C255.11160016 243.73289787 252.33555231 243.00011574 249.5625 242.25 C222.97899435 234.60269016 197.44142803 223.92750904 173 211 C172.17757812 210.56751953 171.35515625 210.13503906 170.5078125 209.68945312 C131.42102716 189.04143391 96.90030205 162.89130607 65.625 131.75 C64.87581299 131.00548584 64.12662598 130.26097168 63.35473633 129.49389648 C58.69896815 124.82463784 54.28037281 120.01441457 50 115 C49.53335938 114.46036621 49.06671875 113.92073242 48.5859375 113.36474609 C41.76307338 105.46763309 35.19411605 97.40109161 29 89 C28.47535156 88.29020996 27.95070312 87.58041992 27.41015625 86.84912109 C17.85672765 73.82347349 9.59717746 60.25322129 2 46 C1.64996918 45.38251892 1.29993835 44.76503784 0.93930054 44.12884521 C-0.09467478 41.78542762 -0.24239907 40.23824522 -0.22705078 37.69042969 C-0.22689972 36.84986023 -0.22674866 36.00929077 -0.22659302 35.14324951 C-0.21627045 34.24519592 -0.20594788 33.34714233 -0.1953125 32.421875 C-0.1924826 31.4953009 -0.18965271 30.56872681 -0.18673706 29.61407471 C-0.17555611 26.65925091 -0.15045527 23.70473195 -0.125 20.75 C-0.11496751 18.74479605 -0.10584213 16.73958734 -0.09765625 14.734375 C-0.07562358 9.82279949 -0.04110795 4.91145141 0 0 Z " fill="#FAC970" transform="translate(208,120)"/>
<path d="M0 0 C5.84673451 -0.25886305 10.41219647 0.54277087 15.12109375 4.19921875 C18.44614697 7.74030651 19.40000474 11.4145631 19.68359375 16.19921875 C19.4912905 20.55588213 18.40087375 23.26826954 15.80078125 26.7265625 C11.5225053 30.47751607 7.18778113 31.57287302 1.6171875 31.75390625 C0.33602051 31.80853027 -0.94514648 31.8631543 -2.26513672 31.91943359 C-2.94493591 31.94398621 -3.62473511 31.96853882 -4.32513428 31.99383545 C-17.2093089 32.48322079 -29.99255925 33.58679364 -42.77706909 35.25250244 C-44.42429145 35.46646011 -46.07236404 35.67397364 -47.72122192 35.87493896 C-50.03454242 36.15950841 -52.34325997 36.46823664 -54.65234375 36.78515625 C-55.34149368 36.8675354 -56.03064362 36.94991455 -56.74067688 37.03479004 C-59.84471336 37.49128987 -61.55940465 37.87317836 -63.78759766 40.14697266 C-64.86637957 42.17566186 -65.4759222 43.94250806 -65.87890625 46.19921875 C-87.43136652 51.75397655 -87.43136652 51.75397655 -92.87890625 51.19921875 C-93.53890625 50.20921875 -94.19890625 49.21921875 -94.87890625 48.19921875 C-101.25672464 46.09670639 -107.04063958 47.70919563 -113.12890625 49.88671875 C-114.81101528 50.45496801 -116.49330736 51.02267569 -118.17578125 51.58984375 C-118.98466797 51.86892578 -119.79355469 52.14800781 -120.62695312 52.43554688 C-123.52140414 53.41709965 -126.44557137 54.2792824 -129.37890625 55.13671875 C-160.81399867 64.86662831 -190.48454124 79.26883916 -218.09326172 97.09936523 C-218.91068848 97.62087158 -219.72811523 98.14237793 -220.5703125 98.6796875 C-221.28388916 99.14270264 -221.99746582 99.60571777 -222.73266602 100.08276367 C-225.20398629 101.3683225 -227.09458602 101.99523423 -229.87890625 102.19921875 C-231.92773438 101.19873047 -231.92773438 101.19873047 -233.91015625 99.62890625 C-235.00263672 98.778125 -235.00263672 98.778125 -236.1171875 97.91015625 C-236.86355469 97.30429687 -237.60992187 96.6984375 -238.37890625 96.07421875 C-239.12527344 95.4915625 -239.87164062 94.90890625 -240.640625 94.30859375 C-244.64196595 91.1500131 -248.36624163 87.89309226 -251.87890625 84.19921875 C-245.8175527 79.29841382 -239.59366475 74.94423996 -232.94140625 70.88671875 C-232.02319092 70.32404297 -231.10497559 69.76136719 -230.15893555 69.18164062 C-191.47877856 45.63748772 -150.42401602 27.7143846 -106.43261719 16.83105469 C-103.51615896 16.10946827 -100.60469895 15.36931063 -97.69384766 14.62548828 C-95.10521292 13.97385648 -92.51273533 13.33824238 -89.92004395 12.70297241 C-87.96742179 12.22106442 -86.01768638 11.72750462 -84.06811523 11.23339844 C-73.55175855 8.61448501 -63.06108719 6.93111272 -52.31640625 5.57421875 C-50.74664193 5.36927594 -49.17697994 5.16354776 -47.60742188 4.95703125 C-43.7770314 4.45536124 -39.94523213 3.96580905 -36.11254883 3.48199463 C-33.88844599 3.20042647 -31.66489827 2.91476559 -29.44140625 2.62841797 C-28.03387247 2.44874976 -26.62632117 2.26921878 -25.21875 2.08984375 C-23.99148193 1.93290039 -22.76421387 1.77595703 -21.49975586 1.61425781 C-14.34668668 0.79433889 -7.17878783 0.49676822 0 0 Z " fill="#FC798A" transform="translate(582.87890625,159.80078125)"/>
<path d="M0 0 C52.59375 0 52.59375 0 68.67578125 15.3828125 C75.3222712 22.86709531 79.82663636 31.24680616 82 41 C82.17917969 41.59039063 82.35835937 42.18078125 82.54296875 42.7890625 C85.34792221 56.35832452 82.46022327 70.48562504 75 82.0625 C74.0183207 83.38875865 73.0200402 84.7030134 72 86 C71.2575 87.03125 70.515 88.0625 69.75 89.125 C60.40012666 98.89986758 48.96681357 103.11848587 36 106 C24.12 106 12.24 106 0 106 C0 71.02 0 36.04 0 0 Z " fill="#BC4545" transform="translate(655,600)"/>
<path d="M0 0 C48.45762712 0 48.45762712 0 56.5078125 7.3828125 C61.70117963 13.3225318 63.54539747 18.69049125 63.4375 26.375 C63.42920166 27.13014893 63.42090332 27.88529785 63.41235352 28.66333008 C63.20732828 35.40143709 62.06220663 39.9771365 57.17578125 44.80078125 C55.49769927 46.28144182 53.79682137 47.66752572 52 49 C53.95807282 49.9964415 55.90877853 50.96103698 57.9296875 51.82421875 C64.58645827 54.77832787 68.92283812 59.04927909 71.875 65.75 C74.79876695 74.83643742 73.16668062 83.60112492 69 92 C64.95154941 98.98424754 58.2547569 101.98897276 51 105 C34.5044074 109.12389815 17.00326766 106 0 106 C0 71.02 0 36.04 0 0 Z " fill="#BC4545" transform="translate(753,600)"/>
<path d="M0 0 C6.44204254 5.7788911 9.83760755 12.80080759 10.32421875 21.4453125 C10.27325126 26.73925747 8.94204014 31.63488119 7.5625 36.71875 C7.29074951 37.72921387 7.01899902 38.73967773 6.73901367 39.78076172 C-0.01589486 64.28488099 -12.26378489 99.92161854 -35.25 113.96875 C-37.875 114.90625 -37.875 114.90625 -39.875 114.90625 C-39.875 115.89625 -39.875 116.88625 -39.875 117.90625 C-38.885 118.23625 -37.895 118.56625 -36.875 118.90625 C-40.175 118.57625 -43.475 118.24625 -46.875 117.90625 C-46.83375 118.916875 -46.7925 119.9275 -46.75 120.96875 C-46.88073843 125.08701052 -47.60750786 128.02455533 -48.875 131.90625 C-50.195 131.57625 -51.515 131.24625 -52.875 130.90625 C-51.885 130.90625 -50.895 130.90625 -49.875 130.90625 C-49.545 126.28625 -49.215 121.66625 -48.875 116.90625 C-50.03 116.679375 -51.185 116.4525 -52.375 116.21875 C-60.81588652 114.05633208 -66.44403001 109.35705304 -70.875 101.90625 C-74.04499832 95.16457549 -73.90580593 87.95664806 -71.4375 80.96875 C-69.68119302 77.02476239 -67.41012391 73.85864242 -64.75 70.46875 C-53.93321846 56.58185885 -47.11707221 40.4512839 -43.4206543 23.31811523 C-41.28676239 13.49401763 -38.88059235 5.38091312 -30.25 -0.65625 C-21.09573852 -6.32546807 -8.821757 -6.15201475 0 0 Z " fill="#EC7245" transform="translate(712.875,110.09375)"/>
<path d="M0 0 C0.80083008 0.00749268 1.60166016 0.01498535 2.42675781 0.02270508 C7.91158563 0.12284626 12.89387857 0.51229529 18.125 2.25 C19.23488281 2.59160156 20.34476562 2.93320312 21.48828125 3.28515625 C28.63383483 5.63179528 34.51716696 8.18205151 40.125 13.25 C38.76149571 16.89475185 37.123536 20.16244487 35.125 23.5 C34.609375 24.37140625 34.09375 25.2428125 33.5625 26.140625 C32.125 28.25 32.125 28.25 30.125 29.25 C28.09375 28.140625 28.09375 28.140625 25.625 26.5 C15.44024538 20.27034923 4.92282385 18.73760996 -6.875 20.25 C-14.36879365 22.30936314 -19.53905048 26.90912675 -23.875 33.25 C-29.46664732 43.25719169 -29.5060025 57.48642809 -27.19140625 68.50390625 C-26.27240225 70.9406015 -25.24285091 73.03680024 -23.875 75.25 C-23.43929687 75.97316406 -23.00359375 76.69632813 -22.5546875 77.44140625 C-18.59912518 83.30990444 -13.58122078 87.01459307 -6.875 89.25 C3.25121272 89.87462997 11.61928526 89.94101928 19.9375 83.5 C25.28572327 78.56598992 26.11047516 73.35167386 27.125 66.25 C17.885 66.25 8.645 66.25 -0.875 66.25 C-0.875 60.97 -0.875 55.69 -0.875 50.25 C15.625 50.25 32.125 50.25 49.125 50.25 C49.125 82.23969072 49.125 82.23969072 37.23046875 95.3359375 C25.71398002 106.48919746 11.692664 110.8142719 -4.02734375 110.5625 C-16.0218981 109.588323 -28.5237828 104.10272632 -36.875 95.25 C-49.15313469 80.65293331 -53.0527578 64.94690511 -51.875 46.25 C-49.72517217 31.87302641 -42.38143821 19.21653203 -31.24609375 9.8828125 C-21.85496887 3.41577758 -11.34249269 -0.13980949 0 0 Z " fill="#BC4545" transform="translate(162.875,597.75)"/>
<path d="M0 0 C6.75052532 4.02304034 11.16945274 9.37959627 13.6875 16.8203125 C15.76778254 25.24417266 14.23506297 31.1255929 10.0703125 38.703125 C7.60241057 42.48209983 4.97734446 44.79597122 1.3203125 47.3828125 C-9.09881287 55.06573807 -17.68829779 62.6112529 -24.8046875 73.6328125 C-29.38043678 80.66340162 -33.84448119 85.58245638 -42.09765625 87.90234375 C-49.54489079 89.28813777 -56.34093108 89.6281229 -63.1171875 85.8828125 C-69.99356607 81.12739485 -74.79684056 74.58331117 -76.6796875 66.3828125 C-78.24944464 55.70458801 -72.96199379 47.08604523 -67.06640625 38.5859375 C-52.79960534 19.43900338 -26.80367304 -12.32451847 0 0 Z " fill="#F9C169" transform="translate(731.6796875,315.6171875)"/>
<path d="M0 0 C6.03542515 4.73759771 11.03564815 10.4865805 13 18 C13.39555358 21.37780985 13.52033488 24.72574691 13.5625 28.125 C13.57732422 28.97223633 13.59214844 29.81947266 13.60742188 30.69238281 C13.45428816 40.03718564 9.45484474 46.2306439 3.203125 52.95703125 C-0.20129422 56.1139661 -3.77192772 58.134674 -8 60 C-8.66257812 60.31839844 -9.32515625 60.63679687 -10.0078125 60.96484375 C-19.87596172 65.03592432 -32.44603271 64.18309195 -42.25 60.38671875 C-51.50673847 55.71890319 -57.5382137 48.89969821 -62.1328125 39.7421875 C-64.74746174 31.47424259 -64.1752704 20.01011834 -60.38671875 12.20703125 C-55.63368559 4.64234467 -50.10798614 -0.32110949 -42 -4 C-41.39929688 -4.31839844 -40.79859375 -4.63679687 -40.1796875 -4.96484375 C-27.75078963 -10.80265941 -11.14856028 -7.06674869 0 0 Z " fill="#BD4545" transform="translate(351,645)"/>
<path d="M0 0 C7.59 0 15.18 0 23 0 C28.61 12.21 34.22 24.42 40 37 C42.81086789 34.18913211 43.95740377 30.75893691 45.4765625 27.1484375 C45.80667328 26.37440582 46.13678406 25.60037415 46.47689819 24.80288696 C47.53080885 22.3288285 48.57797078 19.85197747 49.625 17.375 C50.33809923 15.69772849 51.05163552 14.02064273 51.765625 12.34375 C53.51549656 8.2313053 55.25932062 4.11634343 57 0 C61.62 0 66.24 0 71 0 C75.13436604 8.70855826 79.12089524 17.45977014 82.9375 26.3125 C83.3389624 27.23764404 83.7404248 28.16278809 84.15405273 29.1159668 C84.52473877 29.98133057 84.8954248 30.84669434 85.27734375 31.73828125 C85.60984131 32.51212158 85.94233887 33.28596191 86.28491211 34.08325195 C87 36 87 36 87 38 C87.66 38 88.32 38 89 38 C89.35835938 36.8140625 89.71671875 35.628125 90.0859375 34.40625 C92.15553482 28.19989 94.94530573 22.32461477 97.72558594 16.41308594 C98.63512536 14.47846299 99.53683539 12.54033081 100.4375 10.6015625 C104.84884542 1.15115458 104.84884542 1.15115458 106 0 C107.63472882 -0.08700342 109.27314055 -0.10701063 110.91015625 -0.09765625 C111.89951172 -0.09443359 112.88886719 -0.09121094 113.90820312 -0.08789062 C114.94912109 -0.07951172 115.99003906 -0.07113281 117.0625 -0.0625 C118.62967773 -0.05573242 118.62967773 -0.05573242 120.22851562 -0.04882812 C122.8190666 -0.03699913 125.40950559 -0.02051689 128 0 C126.2850014 4.59499789 124.0887691 8.8906076 121.8515625 13.24609375 C121.44237579 14.0462793 121.03318909 14.84646484 120.61160278 15.67089844 C119.28548624 18.26118659 117.95555524 20.8494894 116.625 23.4375 C116.175802 24.31294464 115.726604 25.18838928 115.26379395 26.09036255 C108.37675016 39.50691168 101.35372417 52.83205082 94 66 C89.38 66 84.76 66 80 66 C79.26394531 64.25074219 78.52789062 62.50148438 77.76953125 60.69921875 C76.78393408 58.36194547 75.7982525 56.02470778 74.8125 53.6875 C74.08836914 51.96563477 74.08836914 51.96563477 73.34960938 50.20898438 C72.6293457 48.50258789 72.6293457 48.50258789 71.89453125 46.76171875 C71.45987549 45.73006592 71.02521973 44.69841309 70.57739258 43.63549805 C68.44849789 38.72892464 66.2132329 33.86911237 64 29 C58.72 41.21 53.44 53.42 48 66 C43.38 66 38.76 66 34 66 C33.45698242 64.93378418 32.91396484 63.86756836 32.35449219 62.76904297 C29.82350903 57.80239419 27.28785423 52.838141 24.75 47.875 C24.29514221 46.98540588 23.84028442 46.09581177 23.37164307 45.17926025 C17.54460296 33.79366802 11.66461484 22.45329396 5.42871094 11.28466797 C4.9959082 10.50752441 4.56310547 9.73038086 4.1171875 8.9296875 C3.56973877 7.95878174 3.56973877 7.95878174 3.01123047 6.96826172 C1.85489958 4.71757614 0.93974954 2.34937385 0 0 Z " fill="#BC4545" transform="translate(369,640)"/>
<path d="M0 0 C6.6 0 13.2 0 20 0 C20.33 16.83 20.66 33.66 21 51 C23.64 49.02 26.28 47.04 29 45 C37.86153312 41.66897894 47.37546396 42.33942522 56 46 C62.13585556 49.63951889 64.573824 54.4780215 67 61 C67.33 61.66 67.66 62.32 68 63 C68.08991092 64.54227856 68.11756961 66.08840895 68.11352539 67.63330078 C68.11341209 69.07456833 68.11341209 69.07456833 68.11329651 70.54495239 C68.10813522 71.58457123 68.10297394 72.62419006 68.09765625 73.6953125 C68.0962413 74.75789276 68.09482635 75.82047302 68.09336853 76.91525269 C68.08775834 80.31853009 68.07520409 83.72174238 68.0625 87.125 C68.05748631 89.42838447 68.05292318 91.73176997 68.04882812 94.03515625 C68.03778559 99.69012936 68.02051409 105.34505363 68 111 C61.4 111 54.8 111 48 111 C47.95101562 108.04933594 47.90203125 105.09867188 47.8515625 102.05859375 C47.7974787 99.18574156 47.7402003 96.31296948 47.68261719 93.44018555 C47.64444739 91.450989 47.60957402 89.46172626 47.578125 87.47241211 C47.53221303 84.6050661 47.47426253 81.73817112 47.4140625 78.87109375 C47.40251129 77.98852402 47.39096008 77.10595428 47.37905884 76.19664001 C47.2591267 71.12438607 46.78953814 66.77014207 45 62 C40.02469921 58.87316165 33.66404788 59.35671478 28 60 C24.25130194 62.09927091 22.64420155 64.11241186 21 68 C20.67797584 70.13633955 20.67797584 70.13633955 20.68115234 72.40136719 C20.66128265 73.2619574 20.64141296 74.12254761 20.62094116 75.00921631 C20.60361435 76.38910736 20.60361435 76.38910736 20.5859375 77.796875 C20.56657135 78.74564514 20.5472052 79.69441528 20.5272522 80.67193604 C20.46754341 83.69786633 20.42110567 86.72383484 20.375 89.75 C20.33681223 91.80340187 20.29776003 93.85678786 20.2578125 95.91015625 C20.16022418 100.94002084 20.08058628 105.96971927 20 111 C13.4 111 6.8 111 0 111 C0 74.37 0 37.74 0 0 Z " fill="#BB4545" transform="translate(563,595)"/>
<path d="M0 0 C3.53320099 1.52349033 5.95208388 3.6302951 8.75 6.25 C12.98185354 10.13652425 17.34192051 13.64544921 22 17 C15.83475115 24.55215896 8.80588431 31.25801302 1.87963867 38.09985352 C-4.30914972 44.21990773 -10.39782511 50.32822451 -16 57 C-16.91205035 58.05660293 -17.82477871 59.11262109 -18.73828125 60.16796875 C-38.54428985 83.40020645 -55.61204274 108.63788532 -70.61206055 135.21118164 C-71.04301025 135.97035889 -71.47395996 136.72953613 -71.91796875 137.51171875 C-72.29719482 138.18678467 -72.6764209 138.86185059 -73.06713867 139.55737305 C-73.52890503 140.27147339 -73.52890503 140.27147339 -74 141 C-74.33 141 -74.66 141 -75 141 C-75.22583905 135.33008856 -75.38732153 129.66290154 -75.49438477 123.98950195 C-75.53909745 122.06813871 -75.60009444 120.14707145 -75.67895508 118.22680664 C-76.2604393 103.68210008 -74.01598822 94.14097547 -66 82 C-64.9627478 80.33022095 -64.9627478 80.33022095 -63.90454102 78.62670898 C-61.99489442 75.60260809 -60.01755594 72.64047051 -58 69.6875 C-56.95646362 68.14280029 -56.95646362 68.14280029 -55.8918457 66.56689453 C-51.12454677 59.54813919 -46.24126895 52.67420303 -41 46 C-40.13323634 44.86785934 -39.26740522 43.73500432 -38.40234375 42.6015625 C-33.06268623 35.65120141 -27.47265125 29.05916206 -21.48046875 22.6640625 C-19.44923951 20.48249031 -17.49198434 18.2705312 -15.5625 16 C-10.69498959 10.36895854 -5.2987135 5.22040739 0 0 Z " fill="#FC798A" transform="translate(283,283)"/>
<path d="M0 0 C6.27 0 12.54 0 19 0 C19.03738281 2.96226562 19.07476562 5.92453125 19.11328125 8.9765625 C19.15953636 11.85603072 19.21075555 14.73537101 19.26245117 17.61474609 C19.29563713 19.61076029 19.32368868 21.60686689 19.34643555 23.60302734 C19.38009793 26.4779384 19.43241977 29.35200743 19.48828125 32.2265625 C19.49467117 33.11429352 19.5010611 34.00202454 19.50764465 34.91665649 C19.64787032 40.8703438 20.45854939 45.45317634 24.84765625 49.8515625 C28.9670043 52.04954494 33.46874173 51.4915035 38 51 C42.31870894 49.29051104 44.05069247 47.16346111 46 43 C46.46740762 39.70487882 46.4884967 36.42988206 46.51171875 33.10546875 C46.52966995 32.15811356 46.54762115 31.21075836 46.56611633 30.23469543 C46.62015087 27.21900843 46.65409327 24.2034791 46.6875 21.1875 C46.7206791 19.13864997 46.75516931 17.08982072 46.79101562 15.04101562 C46.8783339 10.02732191 46.93846132 5.01434125 47 0 C53.6 0 60.2 0 67 0 C67 21.78 67 43.56 67 66 C60.4 66 53.8 66 47 66 C46.67 64.35 46.34 62.7 46 61 C44.98679687 61.63228516 44.98679687 61.63228516 43.953125 62.27734375 C43.06109375 62.82519531 42.1690625 63.37304688 41.25 63.9375 C40.36828125 64.48277344 39.4865625 65.02804687 38.578125 65.58984375 C34.02207143 68.08186699 29.16260551 68.8075584 24 68 C22.35 67.01 20.7 66.02 19 65 C19 71.93 19 78.86 19 86 C11.41 86 3.82 86 -4 86 C-4.27516024 79.30443406 -3.94406749 73.14625874 -2.95137024 66.53871155 C-0.84155499 52.37705655 -0.45465808 38.35910307 -0.3125 24.0625 C-0.27920988 21.71026895 -0.24471021 19.35805469 -0.20898438 17.00585938 C-0.12545166 11.3373352 -0.05803179 5.6688402 0 0 Z " fill="#BD4545" transform="translate(22,640)"/>
<path d="M0 0 C1.32 0.66 2.64 1.32 4 2 C3.01 4.64 2.02 7.28 1 10 C1.70125 10.226875 2.4025 10.45375 3.125 10.6875 C6 12 6 12 8.75 14.6875 C12.2766242 17.19682875 12.82656222 17.28206802 16.875 16.8125 C18.25507163 16.56882399 19.63259929 16.30690549 21 16 C21.33 17.32 21.66 18.64 22 20 C19 22 19 22 16 22 C16.433125 23.13888672 16.433125 23.13888672 16.875 24.30078125 C17.431875 25.79158203 17.431875 25.79158203 18 27.3125 C18.37125 28.29863281 18.7425 29.28476562 19.125 30.30078125 C20 33 20 33 20 36 C21.65 36 23.3 36 25 36 C25.5625 37.9375 25.5625 37.9375 26 40 C25 41 25 41 22.4375 41.0625 C21.633125 41.041875 20.82875 41.02125 20 41 C19.87882813 41.67546875 19.75765625 42.3509375 19.6328125 43.046875 C19.38144531 44.38492188 19.38144531 44.38492188 19.125 45.75 C18.96257812 46.63171875 18.80015625 47.5134375 18.6328125 48.421875 C18.03203736 50.86947744 17.22002883 52.80599857 16 55 C16.969375 55.2475 17.93875 55.495 18.9375 55.75 C19.948125 56.1625 20.95875 56.575 22 57 C22.875 59.125 22.875 59.125 23 61 C19.59068103 62.13643966 18.99664544 61.86747764 15.8125 60.5625 C15.09707031 60.27503906 14.38164063 59.98757813 13.64453125 59.69140625 C13.10183594 59.46324219 12.55914063 59.23507812 12 59 C11.814375 59.556875 11.62875 60.11375 11.4375 60.6875 C9.33639286 64.06754192 6.29334006 65.85140381 3 68 C3.680625 68.7425 4.36125 69.485 5.0625 70.25 C7 73 7 73 6.75 75.3125 C6.5025 75.869375 6.255 76.42625 6 77 C2.66666667 75.66666667 -0.66666667 74.33333333 -4 73 C-5.03531726 73.90027588 -6.05294165 74.82093035 -7.0625 75.75 C-7.63097656 76.26046875 -8.19945312 76.7709375 -8.78515625 77.296875 C-10.23997666 78.9388576 -10.23997666 78.9388576 -9.78125 81.09375 C-8.88404508 83.28293001 -7.77276101 84.45846869 -6 86 C-6.495 87.485 -6.495 87.485 -7 89 C-10.52069985 88.41321669 -12.71299843 87.64350079 -16 86 C-17.98 88.97 -19.96 91.94 -22 95 C-21.34 96.32 -20.68 97.64 -20 99 C-19.63215869 100.3242287 -19.28797019 101.65613912 -19 103 C-20.75 103.6875 -20.75 103.6875 -23 104 C-25.140625 102.51953125 -25.140625 102.51953125 -27 101 C-27.6290625 101.40992188 -28.258125 101.81984375 -28.90625 102.2421875 C-34.25783639 105.61110785 -38.77600408 107.84740816 -45 109 C-45.33 110.65 -45.66 112.3 -46 114 C-47.32 114 -48.64 114 -50 114 C-50.33 112.35 -50.66 110.7 -51 109 C-53.31 108.67 -55.62 108.34 -58 108 C-58.20625 108.825 -58.4125 109.65 -58.625 110.5 C-62.23111525 119.67920245 -69.29160547 125.78191235 -77.5625 130.75 C-84.2191679 135.05525108 -87.23600098 141.78789094 -90 149 C-91.32 148.67 -92.64 148.34 -94 148 C-93.43360411 138.93766575 -88.59715426 133.0543603 -82.24609375 126.859375 C-79.90102909 124.9180693 -77.55508991 123.5597549 -74.875 122.125 C-68.44341214 118.5276712 -65.28880659 112.86641978 -63 106 C-65.31 104.35 -67.62 102.7 -70 101 C-73.03155966 102.38104385 -75.3736216 103.99251534 -77.875 106.1875 C-78.83019531 107.01314453 -78.83019531 107.01314453 -79.8046875 107.85546875 C-85.88726445 113.79734552 -89.62179057 119.78665664 -93.3125 127.4375 C-97.89566203 136.53960341 -102.2998346 143.31669471 -111.625 148 C-115.25068488 149.074277 -118.23860665 149.23028939 -122 149 C-121.67 147.35 -121.34 145.7 -121 144 C-120.35933594 143.85304688 -119.71867188 143.70609375 -119.05859375 143.5546875 C-117.76115234 143.21824219 -117.76115234 143.21824219 -116.4375 142.875 C-115.16712891 142.56175781 -115.16712891 142.56175781 -113.87109375 142.2421875 C-105.49626882 138.61879386 -102.05570282 132.12861363 -98.125 124.25 C-92.92208114 114.27970996 -87.81477856 106.73254894 -78.875 99.75 C-77.92625 98.8425 -76.9775 97.935 -76 97 C-76.2448589 93.86242661 -76.2448589 93.86242661 -77 91 C-85.5680575 94.58761028 -90.99238364 98.13493024 -96 106 C-98.70670666 110.13966901 -101.16516463 113.81989262 -105 117 C-107.8125 117.3125 -107.8125 117.3125 -110 117 C-109.60504398 113.44539582 -108.05931608 111.97763911 -105.515625 109.609375 C-103.62204935 107.59867096 -102.16631086 105.41613777 -100.625 103.125 C-95.17048143 95.21359699 -89.639462 90.25116384 -81 86 C-81.01160156 84.97519531 -81.02320313 83.95039063 -81.03515625 82.89453125 C-81.04454022 81.533856 -81.05363977 80.17317876 -81.0625 78.8125 C-81.07087891 78.13896484 -81.07925781 77.46542969 -81.08789062 76.77148438 C-81.10606538 73.04565869 -80.89299392 69.6211958 -80 66 C-82.97 65.01 -82.97 65.01 -86 64 C-86 62.68 -86 61.36 -86 60 C-82.7 60.33 -79.4 60.66 -76 61 C-75.731875 60.29875 -75.46375 59.5975 -75.1875 58.875 C-73.9318551 55.8350176 -72.49764877 52.9272226 -71 50 C-72.65 48.35 -74.3 46.7 -76 45 C-75.67 44.01 -75.34 43.02 -75 42 C-71.17902761 42.53069061 -68.93828597 43.49701566 -66 46 C-65.73445312 45.42765625 -65.46890625 44.8553125 -65.1953125 44.265625 C-63.94323109 41.8923988 -62.5063648 39.87786714 -60.875 37.75 C-60.33617187 37.04359375 -59.79734375 36.3371875 -59.2421875 35.609375 C-58.83226562 35.07828125 -58.42234375 34.5471875 -58 34 C-58.66 33.01 -59.32 32.02 -60 31 C-59.625 28.8125 -59.625 28.8125 -59 27 C-58.13375 27.5259375 -58.13375 27.5259375 -57.25 28.0625 C-54.52984695 29.19589711 -53.7304683 28.9780782 -51 28 C-49.04173581 26.6132802 -49.04173581 26.6132802 -47.25 24.9375 C-46.63640625 24.38964844 -46.0228125 23.84179688 -45.390625 23.27734375 C-44.93171875 22.85582031 -44.4728125 22.43429687 -44 22 C-44.99 18.04 -44.99 18.04 -46 14 C-44.68 13.67 -43.36 13.34 -42 13 C-39.75 14.9375 -39.75 14.9375 -38 17 C-37.37351562 16.566875 -36.74703125 16.13375 -36.1015625 15.6875 C-35.28429687 15.130625 -34.46703125 14.57375 -33.625 14 C-32.81289063 13.443125 -32.00078125 12.88625 -31.1640625 12.3125 C-29 11 -29 11 -27 11 C-27.350625 10.443125 -27.70125 9.88625 -28.0625 9.3125 C-29.21845993 6.46113217 -28.80967438 4.91482778 -28 2 C-27.01 2 -26.02 2 -25 2 C-24.01 4.97 -24.01 4.97 -23 8 C-22.01 7.67 -21.02 7.34 -20 7 C-18.66474283 6.92026524 -17.32587917 6.89228662 -15.98828125 6.90234375 C-14.85229492 6.90717773 -14.85229492 6.90717773 -13.69335938 6.91210938 C-12.51483398 6.92467773 -12.51483398 6.92467773 -11.3125 6.9375 C-10.51521484 6.94201172 -9.71792969 6.94652344 -8.89648438 6.95117188 C-6.93095743 6.9629415 -4.96546915 6.98087652 -3 7 C-2.5359375 5.5459375 -2.5359375 5.5459375 -2.0625 4.0625 C-1 1 -1 1 0 0 Z M-65 51 C-71.33069611 60.01589987 -77.68848975 69.54103588 -76 81 C-73.66276803 89.60946465 -69.4138798 96.03540482 -61.9375 100.9375 C-54.89868181 104.53406309 -46.66547426 103.99103697 -39.1875 101.9375 C-30.4868275 98.47628357 -26.0090042 91.72633084 -21.1015625 84.109375 C-14.92898095 74.97670787 -7.44781488 68.44747513 1.46679688 62.14648438 C8.21959921 57.33817164 12.5088989 51.98169129 15 44 C16.15303817 36.75892027 14.65239644 30.31431249 11 24 C6.27540496 17.68602506 0.69738703 13.79086606 -7 12 C-29.98508896 8.80762653 -52.33127211 33.95152619 -65 51 Z " fill="#040606" transform="translate(731,301)"/>
<path d="M0 0 C6.6 0 13.2 0 20 0 C20 8.25 20 16.5 20 25 C24.62 25 29.24 25 34 25 C34 29.95 34 34.9 34 40 C29.38 40 24.76 40 20 40 C20.09684617 44.52118714 20.19951359 49.04143731 20.31738281 53.56201172 C20.35570301 55.10034021 20.39055056 56.63875925 20.421875 58.17724609 C20.46746059 60.38672276 20.5254634 62.59557448 20.5859375 64.8046875 C20.59748871 65.49432587 20.60903992 66.18396423 20.62094116 66.89450073 C20.64951022 70.8920154 20.64951022 70.8920154 23 74 C25.21072977 74.24253813 25.21072977 74.24253813 27.625 74.125 C28.44226563 74.10695313 29.25953125 74.08890625 30.1015625 74.0703125 C30.72804688 74.04710937 31.35453125 74.02390625 32 74 C32.70045456 75.91197039 33.384919 77.82980435 34.0625 79.75 C34.44535156 80.81734375 34.82820312 81.8846875 35.22265625 82.984375 C36.34429066 87.33564014 36.34429066 87.33564014 35 90 C29.49492135 93.36073138 22.25864804 93.90851343 16 93 C10.69034161 91.27343276 6.44028737 88.42322662 3 84 C-1.01317304 75.24047807 -0.33812884 66.3664862 -0.1875 56.9375 C-0.17242751 55.29232994 -0.15874364 53.64714655 -0.14648438 52.00195312 C-0.11367782 48.00096859 -0.06203766 44.00063369 0 40 C-2.97 40 -5.94 40 -9 40 C-9 35.05 -9 30.1 -9 25 C-6.03 25 -3.06 25 0 25 C0 16.75 0 8.5 0 0 Z " fill="#BC4545" transform="translate(510,615)"/>
<path d="M0 0 C11.17585403 0 21.47916502 1.66671116 29.765625 9.71484375 C37.50877693 17.92974233 39.61497115 25.15769141 39.46850586 36.26293945 C39.06565965 46.38878933 36.22866609 53.74559495 29.15234375 61.125 C26.03404939 63.84148147 22.83632492 65.52213431 19 67 C16.525 67.99 16.525 67.99 14 69 C9.38 69 4.76 69 0 69 C0 46.23 0 23.46 0 0 Z " fill="#222020" transform="translate(676,618)"/>
<path d="M0 0 C6.44204254 5.7788911 9.83760755 12.80080759 10.32421875 21.4453125 C10.27325126 26.73925747 8.94204014 31.63488119 7.5625 36.71875 C7.29074951 37.72921387 7.01899902 38.73967773 6.73901367 39.78076172 C-0.01589486 64.28488099 -12.26378489 99.92161854 -35.25 113.96875 C-37.875 114.90625 -37.875 114.90625 -39.875 114.90625 C-39.875 115.89625 -39.875 116.88625 -39.875 117.90625 C-38.885 118.23625 -37.895 118.56625 -36.875 118.90625 C-40.175 118.57625 -43.475 118.24625 -46.875 117.90625 C-46.83375 118.916875 -46.7925 119.9275 -46.75 120.96875 C-46.88073843 125.08701052 -47.60750786 128.02455533 -48.875 131.90625 C-50.195 131.57625 -51.515 131.24625 -52.875 130.90625 C-51.885 130.90625 -50.895 130.90625 -49.875 130.90625 C-49.545 126.28625 -49.215 121.66625 -48.875 116.90625 C-50.03 116.679375 -51.185 116.4525 -52.375 116.21875 C-60.81588652 114.05633208 -66.44403001 109.35705304 -70.875 101.90625 C-74.04499832 95.16457549 -73.90580593 87.95664806 -71.4375 80.96875 C-69.68119302 77.02476239 -67.41012391 73.85864242 -64.75 70.46875 C-53.93321846 56.58185885 -47.11707221 40.4512839 -43.4206543 23.31811523 C-41.28676239 13.49401763 -38.88059235 5.38091312 -30.25 -0.65625 C-21.09573852 -6.32546807 -8.821757 -6.15201475 0 0 Z M-32.640625 8.98046875 C-34.70824941 12.20622455 -35.31859116 15.66015499 -36.109375 19.375 C-41.04705774 42.14880201 -50.53092755 61.43656667 -64.125 80.19921875 C-67.08592113 84.77939362 -67.66837707 89.50944088 -66.875 94.90625 C-64.8741707 101.04898295 -62.06668452 106.03706125 -56.24609375 109.12890625 C-50.21362421 111.10660219 -43.51280745 110.95359598 -37.625 108.53125 C-23.9029328 100.38288844 -15.54166305 79.81511536 -8.875 65.90625 C-8.2871875 64.8234375 -8.2871875 64.8234375 -7.6875 63.71875 C-6.74085532 61.60700417 -6.5023021 59.83310522 -6.3125 57.53125 C-5.98134418 53.9535844 -5.51023235 50.44540168 -4.875 46.90625 C-3.885 46.90625 -2.895 46.90625 -1.875 46.90625 C0.39145225 42.65665202 0.2241254 38.95727217 0.140625 34.28125 C0.12335821 31.65669777 0.2684739 29.3979623 1.125 26.90625 C2.115 26.24625 3.105 25.58625 4.125 24.90625 C4.88232516 18.63127008 3.78244365 14.08228136 0.125 8.90625 C-4.53683227 3.91300785 -8.81981022 1.20676047 -15.6875 0.53125 C-22.2737263 0.72970503 -28.2179231 4.18920836 -32.640625 8.98046875 Z " fill="#E0C438" transform="translate(712.875,110.09375)"/>
<path d="M0 0 C1.36125 0.7425 1.36125 0.7425 2.75 1.5 C1.0841708 7.66356805 -2.12805286 12.98259656 -5.25 18.5 C-6.24 18.17 -7.23 17.84 -8.25 17.5 C-13.70231794 15.97995985 -18.26341228 15.50670614 -23.5 18.125 C-26.93850816 21.09462068 -29.7776332 23.95237439 -30.63562012 28.57977295 C-30.8066426 31.00541357 -30.85583511 33.40429347 -30.859375 35.8359375 C-30.87591125 36.71528961 -30.89244751 37.59464172 -30.90948486 38.50064087 C-30.95782914 41.29216592 -30.97930535 44.08314676 -31 46.875 C-31.02817108 48.77476676 -31.0581001 50.67450832 -31.08984375 52.57421875 C-31.16687546 57.21639286 -31.20751938 61.85686854 -31.25 66.5 C-37.52 66.5 -43.79 66.5 -50.25 66.5 C-50.25 44.72 -50.25 22.94 -50.25 0.5 C-43.98 0.5 -37.71 0.5 -31.25 0.5 C-30.92 3.14 -30.59 5.78 -30.25 8.5 C-29.36248047 7.66855469 -29.36248047 7.66855469 -28.45703125 6.8203125 C-27.66683594 6.09585938 -26.87664062 5.37140625 -26.0625 4.625 C-25.28519531 3.90570312 -24.50789063 3.18640625 -23.70703125 2.4453125 C-17.12865319 -2.7630059 -7.67090738 -3.30318665 0 0 Z " fill="#BD4545" transform="translate(280.25,639.5)"/>
<path d="M0 0 C6.75052532 4.02304034 11.16945274 9.37959627 13.6875 16.8203125 C15.76778254 25.24417266 14.23506297 31.1255929 10.0703125 38.703125 C7.60241057 42.48209983 4.97734446 44.79597122 1.3203125 47.3828125 C-9.09881287 55.06573807 -17.68829779 62.6112529 -24.8046875 73.6328125 C-29.38043678 80.66340162 -33.84448119 85.58245638 -42.09765625 87.90234375 C-49.54489079 89.28813777 -56.34093108 89.6281229 -63.1171875 85.8828125 C-69.99356607 81.12739485 -74.79684056 74.58331117 -76.6796875 66.3828125 C-78.24944464 55.70458801 -72.96199379 47.08604523 -67.06640625 38.5859375 C-52.79960534 19.43900338 -26.80367304 -12.32451847 0 0 Z M-30.6796875 10.3828125 C-31.50597656 10.90746094 -32.33226562 11.43210937 -33.18359375 11.97265625 C-35.2098661 13.33921202 -37.00137898 14.60577995 -38.6796875 16.3828125 C-38.8446875 17.4346875 -39.0096875 18.4865625 -39.1796875 19.5703125 C-39.3446875 20.4984375 -39.5096875 21.4265625 -39.6796875 22.3828125 C-41.68147192 23.33668293 -43.69946334 23.9071312 -45.82421875 24.53515625 C-46.43652344 24.81488281 -47.04882812 25.09460938 -47.6796875 25.3828125 C-48.40662654 27.36170211 -49.07785001 29.36235808 -49.6796875 31.3828125 C-50.58203125 31.63546875 -51.484375 31.888125 -52.4140625 32.1484375 C-56.80277216 33.80732775 -58.28550905 36.25181015 -60.8046875 40.0703125 C-61.22105469 40.67037109 -61.63742187 41.27042969 -62.06640625 41.88867188 C-67.4060183 49.68048821 -71.93118766 56.54959696 -70.6796875 66.3828125 C-68.51156545 73.35737378 -63.93122003 77.77472952 -57.8203125 81.5234375 C-52.34117539 83.72309108 -44.94875232 83.30665522 -39.4921875 81.1328125 C-33.78487356 77.79568472 -30.41061544 71.65977565 -26.6796875 66.3828125 C-19.43418875 56.86671731 -11.6005445 49.07325465 -1.8046875 42.1953125 C3.62072829 38.34081512 6.93789149 35.05828692 8.3203125 28.3828125 C9.06954638 21.84851044 8.14631227 16.79606913 4.3203125 11.3828125 C-0.75797147 6.30452853 -6.16848027 3.34522701 -13.3671875 2.7578125 C-20.17331041 2.96500041 -25.200929 6.66266784 -30.6796875 10.3828125 Z " fill="#BEE7F2" transform="translate(731.6796875,315.6171875)"/>
<path d="M0 0 C0.99 0 1.98 0 3 0 C2.86722656 0.59167969 2.73445312 1.18335937 2.59765625 1.79296875 C1.68994822 5.85446525 0.7908887 9.91374171 0 14 C2.68819268 16.2371888 2.68819268 16.2371888 6 18 C10.67776614 17.38450446 13.90354362 13.57794192 17.23046875 10.4609375 C19 9 19 9 21 9 C21 12 21 12 19.35546875 13.75390625 C18.64003906 14.35074219 17.92460938 14.94757813 17.1875 15.5625 C16.47980469 16.16191406 15.77210938 16.76132813 15.04296875 17.37890625 C13 19 13 19 10 21 C10.29648437 21.55171875 10.59296875 22.1034375 10.8984375 22.671875 C12.76742608 26.62193597 13.78649341 30.80788633 15 35 C19.62 34.34 24.24 33.68 29 33 C29 33.99 29 34.98 29 36 C27.58461283 36.33872513 26.16762037 36.67074624 24.75 37 C23.96109375 37.185625 23.1721875 37.37125 22.359375 37.5625 C20 38 20 38 16 38 C15.67 43.28 15.34 48.56 15 54 C18.3 55.98 21.6 57.96 25 60 C24.67 60.99 24.34 61.98 24 63 C18.555 60.525 18.555 60.525 13 58 C12.16142312 60.60258324 11.32896656 63.20685647 10.5 65.8125 C10.26152344 66.55048828 10.02304687 67.28847656 9.77734375 68.04882812 C8.80059864 71.13255196 8 73.74495809 8 77 C10.97 77.33 13.94 77.66 17 78 C17 78.66 17 79.32 17 80 C13.04 80 9.08 80 5 80 C4.525625 81.546875 4.05125 83.09375 3.5625 84.6875 C3.29566406 85.55761719 3.02882813 86.42773438 2.75390625 87.32421875 C2.03655471 89.87025921 1.482459 92.4003423 1 95 C1.5775 95.39832031 2.155 95.79664063 2.75 96.20703125 C3.86375 97.00173828 3.86375 97.00173828 5 97.8125 C5.7425 98.33457031 6.485 98.85664063 7.25 99.39453125 C7.8275 99.92433594 8.405 100.45414062 9 101 C9 101.99 9 102.98 9 104 C4.88360352 102.54715418 1.59720528 100.45128116 -2 98 C-2.61488281 99.02480469 -3.22976563 100.04960937 -3.86328125 101.10546875 C-7.2421875 106.73697917 -10.62109375 112.36848958 -14 118 C-10.7 118.66 -7.4 119.32 -4 120 C-4 120.99 -4 121.98 -4 123 C-5.60463449 122.68991116 -7.20869231 122.37683713 -8.8125 122.0625 C-10.15248047 121.80146484 -10.15248047 121.80146484 -11.51953125 121.53515625 C-14 121 -14 121 -17 120 C-17.2475 120.53625 -17.495 121.0725 -17.75 121.625 C-19.29696975 124.56424252 -21.13014369 127.25754408 -23 130 C-22.55527344 130.61488281 -22.11054687 131.22976562 -21.65234375 131.86328125 C-21.08644531 132.67152344 -20.52054688 133.47976562 -19.9375 134.3125 C-19.36902344 135.11300781 -18.80054688 135.91351563 -18.21484375 136.73828125 C-17.81394531 137.48464844 -17.41304687 138.23101562 -17 139 C-17.33 139.99 -17.66 140.98 -18 142 C-21.39417765 138.87378374 -23.6062718 136.43458973 -25 132 C-25.61488281 132.3609375 -26.22976563 132.721875 -26.86328125 133.09375 C-27.67152344 133.5578125 -28.47976563 134.021875 -29.3125 134.5 C-30.11300781 134.9640625 -30.91351562 135.428125 -31.73828125 135.90625 C-34 137 -34 137 -37 137 C-37 136.01 -37 135.02 -37 134 C-35.845 133.525625 -34.69 133.05125 -33.5 132.5625 C-14.56599611 122.9294103 -2.08930057 92.01658455 4.39453125 73.05859375 C6.24848597 67.35788214 7.88261711 61.6012495 9.4375 55.8125 C9.69692383 54.85633789 9.95634766 53.90017578 10.22363281 52.91503906 C12.73703456 43.10689495 12.67804384 35.19742696 8.00390625 26.05078125 C4.83661707 20.99846183 0.67570106 17.8295598 -5 16 C-14.27542926 14.88567497 -21.68918409 15.78880899 -29.6875 20.625 C-35.97515631 27.08259297 -38.02063161 34.97522104 -39.875 43.5625 C-44.02882382 61.3131196 -51.32567741 77.2460256 -62.3125 91.875 C-67.99851316 99.53827117 -70.42210065 106.3404484 -69 116 C-66.33033096 124.03182481 -62.32884466 128.5132169 -55.0625 132.6875 C-51.72983002 134.11578713 -48.505832 135.08848368 -45 136 C-45.96355353 145.41002278 -45.96355353 145.41002278 -47 150 C-47.99 150 -48.98 150 -50 150 C-49.34 146.04 -48.68 142.08 -48 138 C-49.381875 137.731875 -50.76375 137.46375 -52.1875 137.1875 C-55.27110415 136.52534676 -57.09194839 135.94278767 -59.8125 134.25 C-60.534375 133.8375 -61.25625 133.425 -62 133 C-66.46588239 134.60507401 -69.57330304 138.14318323 -72.9765625 141.3203125 C-75 143 -75 143 -77 143 C-77 140 -77 140 -75.3203125 138.24609375 C-74.59585938 137.64925781 -73.87140625 137.05242187 -73.125 136.4375 C-72.40570312 135.83808594 -71.68640625 135.23867187 -70.9453125 134.62109375 C-70.30335938 134.08613281 -69.66140625 133.55117187 -69 133 C-68.01 132.01 -68.01 132.01 -67 131 C-67.32310212 127.01507387 -68.85119674 124.31273836 -71 121 C-71.33 120.34 -71.66 119.68 -72 119 C-74.8159849 118.53101037 -74.8159849 118.53101037 -78.0625 118.375 C-79.16722656 118.30023438 -80.27195312 118.22546875 -81.41015625 118.1484375 C-82.69212891 118.07496094 -82.69212891 118.07496094 -84 118 C-84 117.34 -84 116.68 -84 116 C-78.555 115.505 -78.555 115.505 -73 115 C-73.020625 113.824375 -73.04125 112.64875 -73.0625 111.4375 C-73.06947261 107.52586533 -72.64250343 103.85502056 -72 100 C-72.928125 99.71125 -73.85625 99.4225 -74.8125 99.125 C-78 98 -78 98 -81 96 C-81 95.01 -81 94.02 -81 93 C-76.94718288 94.22527029 -73.55639236 95.69880494 -70 98 C-69.79375 97.34 -69.5875 96.68 -69.375 96 C-67.76600049 92.48945561 -65.64389987 89.77454458 -63.2421875 86.76953125 C-61.80848228 85.08751194 -61.80848228 85.08751194 -62 83 C-64.97 82.01 -67.94 81.02 -71 80 C-71 79.01 -71 78.02 -71 77 C-70.39671875 77.144375 -69.7934375 77.28875 -69.171875 77.4375 C-67.97304688 77.7159375 -67.97304688 77.7159375 -66.75 78 C-65.56664062 78.2784375 -65.56664062 78.2784375 -64.359375 78.5625 C-61.74443998 79.12154828 -61.74443998 79.12154828 -58 79 C-55.69 74.38 -53.38 69.76 -51 65 C-52.485 64.05125 -53.97 63.1025 -55.5 62.125 C-58.03125 60.5078125 -58.03125 60.5078125 -60 59 C-60 58.34 -60 57.68 -60 57 C-56.13275596 57.53711723 -54.03438225 58.59342098 -51 61 C-50.34 61 -49.68 61 -49 61 C-48.18372554 58.60539412 -47.37188355 56.20943474 -46.5625 53.8125 C-46.33240234 53.13896484 -46.10230469 52.46542969 -45.86523438 51.77148438 C-44.65187439 48.16657428 -43.74933365 44.74666827 -43 41 C-46.63 40.34 -50.26 39.68 -54 39 C-54 38.34 -54 37.68 -54 37 C-50.04 37 -46.08 37 -42 37 C-41.608125 35.494375 -41.21625 33.98875 -40.8125 32.4375 C-39.33122489 27.43107499 -37.25709411 24.04936024 -34 20 C-35.17325643 17.12018877 -36.37938667 15.62061333 -38.625 13.375 C-39.40875 12.59125 -40.1925 11.8075 -41 11 C-41 10.34 -41 9.68 -41 9 C-37.64749299 9.57575664 -36.06181371 10.59306263 -33.75 13.0625 C-32.96882812 13.88427734 -32.96882812 13.88427734 -32.171875 14.72265625 C-31.78515625 15.14417969 -31.3984375 15.56570312 -31 16 C-30.154375 15.71125 -29.30875 15.4225 -28.4375 15.125 C-24.97638959 13.99227296 -21.50627443 12.98175684 -18 12 C-18.495 10.9275 -18.99 9.855 -19.5 8.75 C-20.88653911 5.74583192 -21 4.54065105 -21 1 C-20.01 1.33 -19.02 1.66 -18 2 C-17.05078125 4.28515625 -17.05078125 4.28515625 -16.3125 7.0625 C-16.06113281 7.98160156 -15.80976562 8.90070313 -15.55078125 9.84765625 C-15.36902344 10.55792969 -15.18726563 11.26820312 -15 12 C-11.7 12 -8.4 12 -5 12 C-4.360625 10.576875 -3.72125 9.15375 -3.0625 7.6875 C-2.70285156 6.88699219 -2.34320312 6.08648437 -1.97265625 5.26171875 C-0.92153959 2.90510392 -0.92153959 2.90510392 0 0 Z " fill="#0A0A07" transform="translate(710,91)"/>
<path d="M0 0 C6.55632939 3.65641447 10.95929184 7.60388732 13.25 14.8125 C14.16465314 20.78343792 13.2145553 25.49674566 10.25 30.8125 C6.64673198 35.07090766 2.14524227 38.33038724 -2.20703125 41.7890625 C-3.04621094 42.45679688 -3.88539063 43.12453125 -4.75 43.8125 C-5.43449219 44.35648437 -6.11898437 44.90046875 -6.82421875 45.4609375 C-14.79123802 52.08665332 -21.06485097 60.2909481 -26.875 68.8125 C-30.24651229 73.46679884 -33.04940216 76.49546533 -38.75 77.8125 C-45.69513379 78.76980223 -51.31322737 78.53883578 -57.06640625 74.3046875 C-62.35601468 69.61644986 -65.47466025 65.171645 -66.0625 58 C-65.83968441 50.38609827 -62.18721445 44.46138509 -57.75 38.5625 C-57.31171875 37.964375 -56.8734375 37.36625 -56.421875 36.75 C-55.20768544 35.09694674 -53.97934073 33.4543169 -52.75 31.8125 C-52.151875 31.01328125 -51.55375 30.2140625 -50.9375 29.390625 C-50.545625 28.86984375 -50.15375 28.3490625 -49.75 27.8125 C-48.1 28.1425 -46.45 28.4725 -44.75 28.8125 C-45.2845952 33.18360191 -46.8169096 35.61281234 -49.5 39.0625 C-56.63883798 47.84394366 -56.63883798 47.84394366 -58.8125 58.5 C-58.04498696 62.64167414 -56.5068631 65.5830318 -53.75 68.8125 C-49.30460452 71.58612282 -44.82695503 71.31024069 -39.75 70.8125 C-33.31863643 68.56900108 -29.33227927 61.23536514 -25.75 55.75 C-18.8254001 45.5794939 -9.38275926 38.23773058 0.59375 31.19921875 C3.65211096 28.63856276 5.09379058 26.43733768 6.0625 22.5625 C6.27685412 18.27541764 6.00662422 14.75419337 4.25 10.8125 C0.55266684 7.11516684 -2.42868723 6.02910865 -7.5625 5.1875 C-14.91512458 5.1875 -21.07173809 10.63486773 -26.75 14.8125 C-27.41 15.4725 -28.07 16.1325 -28.75 16.8125 C-31.375 16.9375 -31.375 16.9375 -33.75 16.8125 C-34.05859375 14.5625 -34.05859375 14.5625 -33.75 11.8125 C-30.49672567 8.60179187 -26.5848251 6.282725 -22.75 3.8125 C-21.96367188 3.27625 -21.17734375 2.74 -20.3671875 2.1875 C-13.58082998 -2.09349973 -7.59942486 -2.40648454 0 0 Z " fill="#0B0B09" transform="translate(726.75,320.1875)"/>
<path d="M0 0 C4.05523038 2.85709413 7.51585617 6.46921234 9.75 10.9375 C10.28167861 17.1949482 10.42880464 22.60957604 6.75 27.9375 C3.03029116 32.24453129 0.16657345 34.50008402 -5.5078125 35.2265625 C-11.0586479 35.5490881 -14.95086329 34.82868521 -19.48828125 31.54296875 C-24.06052934 27.37624155 -26.51081032 23.1766443 -26.875 16.9375 C-26.51081032 10.6983557 -24.06052934 6.49875845 -19.48828125 2.33203125 C-13.35412793 -2.10994185 -7.07801952 -2.31396792 0 0 Z " fill="#222020" transform="translate(334.25,656.0625)"/>
<path d="M0 0 C4.59366202 3.24593473 8.54162721 7.80504656 9.890625 13.3359375 C10.0317353 16.02711251 9.9821249 18.63669032 9.890625 21.3359375 C7.953125 21.8984375 7.953125 21.8984375 5.890625 22.3359375 C4.28859884 20.73391134 4.73323338 18.8611164 4.640625 16.6484375 C4.15367108 11.24556779 2.84079098 9.0105105 -1.109375 5.3359375 C-4.22364266 3.4276203 -6.78532419 2.95938477 -10.421875 2.8359375 C-11.32550781 2.784375 -12.22914063 2.7328125 -13.16015625 2.6796875 C-17.57932891 3.66302658 -20.29784529 5.81488058 -23.109375 9.3359375 C-24.46956189 12.42442395 -25.10860616 15.52955686 -25.734375 18.8359375 C-26.13162913 20.63524583 -26.53399996 22.4334319 -26.94140625 24.23046875 C-27.13557129 25.10525879 -27.32973633 25.98004883 -27.52978516 26.88134766 C-28.8709552 32.56126492 -30.90803745 37.94205241 -33.109375 43.3359375 C-33.36493164 43.96999512 -33.62048828 44.60405273 -33.88378906 45.25732422 C-38.90629671 57.47559694 -45.98142814 67.85319938 -53.83764648 78.42919922 C-56.43301445 82.3205073 -56.48322406 85.77497898 -56.109375 90.3359375 C-54.76160572 94.32797152 -53.06064254 97.44062687 -49.984375 100.3359375 C-44.63270103 102.19738931 -39.43805623 102.19852492 -34.125 100.23046875 C-30.37009025 97.87149047 -28.31120959 95.24489077 -25.796875 91.6484375 C-25.32612549 90.98996826 -24.85537598 90.33149902 -24.37036133 89.65307617 C-16.82302271 78.88224926 -10.81935959 67.15896441 -5.109375 55.3359375 C-3.789375 55.3359375 -2.469375 55.3359375 -1.109375 55.3359375 C-1.7369424 59.93220575 -3.5864274 63.75044308 -5.671875 67.8359375 C-6.02902588 68.54008789 -6.38617676 69.24423828 -6.75415039 69.96972656 C-23.26340056 102.05394602 -23.26340056 102.05394602 -36.109375 106.3359375 C-43.51255926 107.21409299 -49.2397173 106.8832007 -55.26171875 102.23828125 C-59.36019785 98.0184941 -61.25240345 93.0550651 -61.546875 87.2109375 C-60.78867752 80.49547411 -57.92147339 75.76784947 -53.984375 70.3984375 C-41.75626624 53.09351369 -33.26500514 34.10898541 -29.77734375 13.078125 C-28.22944439 6.72359077 -24.19101358 3.08208977 -19.109375 -0.6640625 C-12.74303786 -4.2553296 -6.16211142 -3.42069965 0 0 Z " fill="#130D04" transform="translate(707.109375,113.6640625)"/>
<path d="M0 0 C2.97 -0.103125 5.94 -0.20625 9 -0.3125 C9.91910156 -0.35802002 10.83820312 -0.40354004 11.78515625 -0.45043945 C18.08841362 -0.5551784 22.11853865 1.01063169 27 5 C30.22270017 8.62553769 30.53139242 12.08627734 30.34375 16.78515625 C29.78508221 20.38475441 28.45806289 22.35285535 26 25 C17.20107254 29.63943448 10.30184978 29 0 29 C0 19.43 0 9.86 0 0 Z " fill="#242020" transform="translate(774,661)"/>
<path d="M0 0 C14.65 0 14.65 0 19.9375 4.5 C22.52490065 7.99556115 22.65691047 11.34781684 22.4140625 15.59765625 C21.77994351 19.27674287 20.56421079 21.30429122 18 24 C11.61333543 27.9102028 8.24669723 27 0 27 C0 18.09 0 9.18 0 0 Z " fill="#242121" transform="translate(774,616)"/>
<path d="M0 0 C2.8100346 1.79363911 4.50940468 3.01880935 6 6 C6.59873168 11.26883876 5.25400021 13.8846468 2 18 C-1.46782828 19.73391414 -5.20833321 19.45877819 -9 19 C-11.89115314 17.33758695 -12.69207311 16.08584747 -13.59375 12.90625 C-14.31784262 8.7287926 -14.42885043 6.7098214 -12.1875 3 C-8.4620862 -0.40609262 -4.91281441 -0.70586414 0 0 Z " fill="#070503" transform="translate(715,337)"/>
<path d="M0 0 C4.30405014 0.43770001 5.81989572 1.17003051 8.6875 4.375 C9.93471924 8.03870652 10.05047705 9.61447666 8.375 13.125 C6.6875 15.375 6.6875 15.375 4.6875 17.375 C-2.29841549 18.05105634 -2.29841549 18.05105634 -5.75 15.75 C-7.68481132 12.8090868 -8.24059193 10.89849544 -8.3125 7.375 C-6.29172865 3.14100288 -4.82807175 0.54657416 0 0 Z " fill="#0E0806" transform="translate(675.3125,176.625)"/>
<path d="M0 0 C4.45850936 0.79616239 5.90783917 1.93313458 8.5 5.625 C9.125 9.125 9.125 9.125 8.5 12.625 C5.90783917 16.31686542 4.45850936 17.45383761 0 18.25 C-4.45850936 17.45383761 -5.90783917 16.31686542 -8.5 12.625 C-9.125 9.125 -9.125 9.125 -8.5 5.625 C-5.90783917 1.93313458 -4.45850936 0.79616239 0 0 Z " fill="#0C0604" transform="translate(697.5,124.375)"/>
<path d="M0 0 C1.45880109 0.14107747 2.91703551 0.28802415 4.375 0.4375 C5.18710937 0.51871094 5.99921875 0.59992188 6.8359375 0.68359375 C9 1 9 1 11 2 C10.52432875 9.25398658 8.70533406 15.26812223 6 22 C2.13209997 22 0.98680587 21.72629646 -2.25 20 C-2.95640625 19.62875 -3.6628125 19.2575 -4.390625 18.875 C-4.92171875 18.58625 -5.4528125 18.2975 -6 18 C-2.97216435 21.26074609 0.2812407 23.57516517 4 26 C2.95917112 28.32461782 1.89458855 30.63218091 0.8125 32.9375 C0.52052734 33.59685547 0.22855469 34.25621094 -0.07226562 34.93554688 C-2.36298047 39.73865866 -2.36298047 39.73865866 -5.4375 41 C-8.06574637 41 -10.26720112 40.7083221 -12.8125 40.0625 C-13.60269531 39.86785156 -14.39289062 39.67320312 -15.20703125 39.47265625 C-16.09455078 39.23869141 -16.09455078 39.23869141 -17 39 C-14.90217213 41.09782787 -13.6200793 41.6509396 -10.875 42.625 C-10.15054688 42.88539063 -9.42609375 43.14578125 -8.6796875 43.4140625 C-8.12539063 43.60742188 -7.57109375 43.80078125 -7 44 C-7.33 44.99 -7.66 45.98 -8 47 C-8.70125 46.566875 -9.4025 46.13375 -10.125 45.6875 C-13.02557406 43.98498914 -15.97870875 42.47551433 -19 41 C-18.67 39.68 -18.34 38.36 -18 37 C-13.59139921 37.52305433 -9.36255922 38.12748816 -5 39 C-2.69 34.71 -0.38 30.42 2 26 C0.35 25.34 -1.3 24.68 -3 24 C-4.70294787 22.71332828 -6.37946188 21.38903267 -8 20 C-7.34 18.68 -6.68 17.36 -6 16 C-1.94718288 17.22527029 1.44360764 18.69880494 5 21 C5.19916016 19.97326172 5.19916016 19.97326172 5.40234375 18.92578125 C6.06825343 15.66587046 6.80956612 12.4283893 7.5625 9.1875 C7.83191406 8.02605469 8.10132813 6.86460937 8.37890625 5.66796875 C8.58386719 4.78753906 8.78882813 3.90710938 9 3 C7.700625 2.87625 6.40125 2.7525 5.0625 2.625 C2.84765625 2.4140625 2.84765625 2.4140625 1 2 C0.67 1.34 0.34 0.68 0 0 Z " fill="#767758" transform="translate(656,130)"/>
<path d="M0 0 C3.63 1.65 7.26 3.3 11 5 C11.66 4.34 12.32 3.68 13 3 C12.67 4.32 12.34 5.64 12 7 C7.24518354 6.42365861 4.02951788 4.44931479 0 2 C-0.103125 3.134375 -0.20625 4.26875 -0.3125 5.4375 C-0.89110501 10.19397351 -2.35073697 14.51898346 -4 19 C-2.329375 18.9690625 -2.329375 18.9690625 -0.625 18.9375 C3 19 3 19 5 20 C5 21.65 5 23.3 5 25 C1.04 25 -2.92 25 -7 25 C-7.28875 25.94875 -7.5775 26.8975 -7.875 27.875 C-9 31 -9 31 -11 33 C-10.36738317 29.30973516 -9.42909641 26.57274103 -8 23 C-4.04 23 -0.08 23 4 23 C4 22.34 4 21.68 4 21 C1.03 21 -1.94 21 -5 21 C-6.19086056 16.23655774 -5.12434546 13.29857352 -3.625 8.8125 C-3.39039063 8.07580078 -3.15578125 7.33910156 -2.9140625 6.58007812 C-1.15836522 1.15836522 -1.15836522 1.15836522 0 0 Z " fill="#717255" transform="translate(723,148)"/>
<path d="M0 0 C9.625 1.875 9.625 1.875 13 3 C13 2.01 13 1.02 13 0 C13.66 0 14.32 0 15 0 C14.67 1.32 14.34 2.64 14 4 C13.19175781 3.86980469 12.38351562 3.73960937 11.55078125 3.60546875 C4.78590748 2.55564281 4.78590748 2.55564281 -1.25 5.1875 C-3.35220126 8.0139544 -3.35220126 8.0139544 -3 12 C-2.319375 12.969375 -1.63875 13.93875 -0.9375 14.9375 C1 18 1 18 0.75 20.875 C0.37875 21.926875 0.37875 21.926875 0 23 C-2.47686489 22.61529545 -3.70314514 22.32719638 -5.4140625 20.44140625 C-5.81367187 19.82136719 -6.21328125 19.20132813 -6.625 18.5625 C-8.00970349 16.4501657 -9.20007807 14.79992193 -11 13 C-10.01 12.67 -9.02 12.34 -8 12 C-6.02 14.97 -4.04 17.94 -2 21 C-2 17.55639368 -2.79591532 16.25204608 -4.5 13.3125 C-5.7375 11.1778125 -5.7375 11.1778125 -7 9 C-4.69 6.03 -2.38 3.06 0 0 Z " fill="#7B7C5C" transform="translate(693,211)"/>
<path d="M0 0 C2.33294775 -0.04241723 4.66702567 -0.04092937 7 0 C8 1 8 1 8.0625 3.5625 C8.041875 4.366875 8.02125 5.17125 8 6 C9.32 6 10.64 6 12 6 C11.979375 5.195625 11.95875 4.39125 11.9375 3.5625 C12 1 12 1 13 0 C14.66617115 -0.04063832 16.33388095 -0.042721 18 0 C17.01 0.66 16.02 1.32 15 2 C13.93753473 3.96752828 12.92862192 5.96587579 12 8 C9.525 7.505 9.525 7.505 7 7 C6.67 5.35 6.34 3.7 6 2 C3.525 1.505 3.525 1.505 1 1 C0.79375 1.825 0.5875 2.65 0.375 3.5 C-1.86090414 9.19139236 -5.61625746 13.77328705 -10 18 C-10.66 17.67 -11.32 17.34 -12 17 C-11.46890625 16.443125 -10.9378125 15.88625 -10.390625 15.3125 C-5.89590089 10.45688564 -2.64719747 6.06649419 0 0 Z " fill="#2B3B3C" transform="translate(673,409)"/>
<path d="M0 0 C2.5625 0.1875 2.5625 0.1875 4.5625 2.1875 C4.1875 5.3125 4.1875 5.3125 3.5625 8.1875 C1.25 8.875 1.25 8.875 -1.4375 9.1875 C-3.3125 8.0625 -3.3125 8.0625 -4.4375 6.1875 C-3.87661439 0.29820111 -3.87661439 0.29820111 0 0 Z " fill="#50585C" transform="translate(697.4375,128.8125)"/>
<path d="M0 0 C4.55555556 0.55555556 4.55555556 0.55555556 6 2 C6.1875 4.4375 6.1875 4.4375 6 7 C5.34 7.66 4.68 8.32 4 9 C-0.55555556 8.44444444 -0.55555556 8.44444444 -2 7 C-2.1875 4.5625 -2.1875 4.5625 -2 2 C-1.34 1.34 -0.68 0.68 0 0 Z " fill="#545C61" transform="translate(674,181)"/>
<path d="M0 0 C3 1 3 1 4.38671875 3.1796875 C4.81597656 4.06914062 5.24523437 4.95859375 5.6875 5.875 C6.12449219 6.75929687 6.56148437 7.64359375 7.01171875 8.5546875 C8 11 8 11 8 14 C6.68 14 5.36 14 4 14 C3.13116294 12.42466914 2.28040932 10.83935491 1.4375 9.25 C0.96183594 8.36828125 0.48617187 7.4865625 -0.00390625 6.578125 C-1.07998186 3.79298812 -1.06528748 2.73019786 0 0 Z " fill="#0D0B0B" transform="translate(682,159)"/>
<path d="M0 0 C1.65 0.33 3.3 0.66 5 1 C5.6875 3.3125 5.6875 3.3125 6 6 C4.8125 7.875 4.8125 7.875 3 9 C0.8125 8.6875 0.8125 8.6875 -1 8 C-1.625 5.6875 -1.625 5.6875 -2 3 C-1.34 2.01 -0.68 1.02 0 0 Z " fill="#E75454" transform="translate(709,342)"/>
<path d="M0 0 C1.32 0.66 2.64 1.32 4 2 C3.41355713 2.09748535 2.82711426 2.1949707 2.22290039 2.29541016 C-0.45599351 3.14453567 -1.61337269 4.26825529 -3.56640625 6.2734375 C-4.5419043 7.2634375 -4.5419043 7.2634375 -5.53710938 8.2734375 C-6.53967773 9.31371094 -6.53967773 9.31371094 -7.5625 10.375 C-8.23474609 11.06078125 -8.90699219 11.7465625 -9.59960938 12.453125 C-10.85185097 13.73148087 -12.10098289 15.01289577 -13.34594727 16.29833984 C-14.88339788 17.88004181 -16.43628681 19.44430585 -18 21 C-15.49509597 12.09367455 -6.74446482 5.75038271 0 0 Z " fill="#293537" transform="translate(659,401)"/>
<path d="M0 0 C1.67542976 0.28604898 3.34385343 0.61781233 5 1 C5 3.31 5 5.62 5 8 C3.34385343 8.38218767 1.67542976 8.71395102 0 9 C-1 8 -1 8 -1.125 4.5 C-1 1 -1 1 0 0 Z " fill="#120E08" transform="translate(693,359)"/>
<path d="M0 0 C4.75 0.75 4.75 0.75 7 3 C6.625 5.625 6.625 5.625 6 8 C3.64035727 7.59316505 2.14065912 7.10185661 0.1875 5.6875 C-1 4 -1 4 -0.6875 1.8125 C-0.460625 1.214375 -0.23375 0.61625 0 0 Z " fill="#19130A" transform="translate(678,377)"/>
<path d="M0 0 C1.75 0.0625 1.75 0.0625 4 1 C6.44727466 4.2161819 8 6.92394904 8 11 C6.25 10.875 6.25 10.875 4 10 C1.06644827 6.33306034 0 4.76869466 0 0 Z " fill="#080707" transform="translate(662,197)"/>
<path d="M0 0 C2.90646395 3.52927766 5.68287538 7.05230621 8 11 C7.67 11.99 7.34 12.98 7 14 C3.52773333 10.80185964 1.69412846 8.35633032 0 4 C-0.99 3.67 -1.98 3.34 -3 3 C-2.01 2.01 -1.02 1.02 0 0 Z " fill="#060604" transform="translate(685,219)"/>
<path d="M0 0 C0 0.99 0 1.98 0 3 C-6.5 6 -6.5 6 -11 6 C-10.875 4.125 -10.875 4.125 -10 2 C-6.40349908 0.40155515 -3.96602757 0 0 0 Z " fill="#050504" transform="translate(701,150)"/>
<path d="M0 0 C1.4540625 0.0309375 1.4540625 0.0309375 2.9375 0.0625 C3.5625 1.9375 3.5625 1.9375 3.9375 4.0625 C3.2775 4.7225 2.6175 5.3825 1.9375 6.0625 C-0.6875 5.6875 -0.6875 5.6875 -3.0625 5.0625 C-3.625 3.125 -3.625 3.125 -4.0625 1.0625 C-3.0625 0.0625 -3.0625 0.0625 0 0 Z " fill="#19140A" transform="translate(682.0625,364.9375)"/>
<path d="M0 0 C1.09570312 0.19464844 2.19140625 0.38929688 3.3203125 0.58984375 C4.16335938 0.74582031 5.00640625 0.90179688 5.875 1.0625 C5.875 1.7225 5.875 2.3825 5.875 3.0625 C1.915 3.0625 -2.045 3.0625 -6.125 3.0625 C-6.455 3.7225 -6.785 4.3825 -7.125 5.0625 C-7.785 5.0625 -8.445 5.0625 -9.125 5.0625 C-8.75 2.625 -8.75 2.625 -8.125 0.0625 C-5.2144446 -1.3927777 -3.16650948 -0.57266661 0 0 Z " fill="#040403" transform="translate(721.125,167.9375)"/>
<path d="M0 0 C0.99 0.33 1.98 0.66 3 1 C2.67 2.98 2.34 4.96 2 7 C0.68 7.33 -0.64 7.66 -2 8 C-2.125 5.125 -2.125 5.125 -2 2 C-1.34 1.34 -0.68 0.68 0 0 Z " fill="#160E05" transform="translate(710,148)"/>
<path d="M0 0 C1.60463449 0.31008884 3.20869231 0.62316287 4.8125 0.9375 C5.70582031 1.11152344 6.59914063 1.28554687 7.51953125 1.46484375 C10 2 10 2 13 3 C13 2.01 13 1.02 13 0 C13.66 0 14.32 0 15 0 C14.67 1.32 14.34 2.64 14 4 C13.15695312 3.91621094 12.31390625 3.83242187 11.4453125 3.74609375 C10.34960938 3.64425781 9.25390625 3.54242188 8.125 3.4375 C7.03445313 3.33308594 5.94390625 3.22867188 4.8203125 3.12109375 C2.04847977 2.77360596 2.04847977 2.77360596 0 4 C0 2.68 0 1.36 0 0 Z " fill="#6A6B51" transform="translate(693,211)"/>
<path d="M0 0 C2.0625 0.4375 2.0625 0.4375 4 1 C3.67 2.65 3.34 4.3 3 6 C1.68 5.67 0.36 5.34 -1 5 C-1 1 -1 1 0 0 Z " fill="#030303" transform="translate(611,418)"/>
<path d="M0 0 C1.98 0.495 1.98 0.495 4 1 C3.67 2.65 3.34 4.3 3 6 C1.68 5.67 0.36 5.34 -1 5 C-0.67 3.35 -0.34 1.7 0 0 Z " fill="#120F09" transform="translate(685,340)"/>
<path d="M0 0 C3.3 0.99 6.6 1.98 10 3 C10 4.32 10 5.64 10 7 C9.278125 6.54625 8.55625 6.0925 7.8125 5.625 C5.25105919 4.14505642 2.76722011 3.02782461 0 2 C0 1.34 0 0.68 0 0 Z " fill="#6F7154" transform="translate(638,170)"/>
</svg>
